M48
; DRILL file {KiCad 7.0.6} date Fri Jul 28 17:18:56 2023
; FORMAT={-:-/ absolute / inch / decimal}
; #@! TF.CreationDate,2023-07-28T17:18:56+08:00
; #@! TF.GenerationSoftware,Kicad,Pcbnew,7.0.6
; #@! TF.FileFunction,Plated,1,4,PTH
FMAT,2
INCH
; #@! TA.AperFunction,Plated,PTH,ViaDrill
T1C0.0079
; #@! TA.AperFunction,Plated,PTH,ComponentDrill
T2C0.0236
; #@! TA.AperFunction,Plated,PTH,ComponentDrill
T3C0.0354
; #@! TA.AperFunction,Plated,PTH,ComponentDrill
T4C0.0362
; #@! TA.AperFunction,Plated,PTH,ComponentDrill
T5C0.0390
; #@! TA.AperFunction,Plated,PTH,ComponentDrill
T6C0.0394
; #@! TA.AperFunction,Plated,PTH,ComponentDrill
T7C0.0402
; #@! TA.AperFunction,Plated,PTH,ComponentDrill
T8C0.0642
; #@! TA.AperFunction,Plated,PTH,ComponentDrill
T9C0.0866
; #@! TA.AperFunction,Plated,PTH,ComponentDrill
T10C0.0906
%
G90
G05
T1
X2.8094Y-4.4689
X2.8382Y-4.2504
X2.853Y-2.1049
X2.853Y-2.2049
X2.853Y-2.5049
X2.853Y-2.6049
X2.853Y-2.7049
X2.853Y-2.8049
X2.853Y-2.9049
X2.853Y-3.0049
X2.853Y-3.1049
X2.853Y-3.2049
X2.853Y-3.3049
X2.853Y-3.4049
X2.853Y-3.5049
X2.853Y-3.6049
X2.853Y-3.7049
X2.853Y-3.8049
X2.853Y-3.9049
X2.853Y-4.0049
X2.853Y-4.5049
X2.8819Y-4.5866
X2.9252Y-4.4961
X2.9283Y-4.4253
X2.9283Y-4.448
X2.953Y-2.1049
X2.953Y-2.2049
X2.953Y-2.5049
X2.953Y-2.6049
X2.953Y-2.7049
X2.953Y-2.8049
X2.953Y-3.0049
X2.953Y-3.2049
X2.953Y-3.3049
X2.953Y-3.5049
X2.953Y-3.6049
X2.953Y-3.7049
X2.953Y-3.8049
X2.953Y-3.9049
X2.953Y-4.0049
X3.053Y-2.3049
X3.053Y-2.4049
X3.053Y-2.5049
X3.053Y-2.6049
X3.053Y-2.7049
X3.053Y-2.8049
X3.053Y-2.9049
X3.053Y-3.0049
X3.053Y-3.1049
X3.053Y-4.5049
X3.053Y-4.6049
X3.1094Y-4.2437
X3.1496Y-4.2437
X3.153Y-2.4049
X3.153Y-2.5049
X3.153Y-2.6049
X3.153Y-2.7049
X3.153Y-2.8049
X3.153Y-2.9049
X3.153Y-3.0049
X3.153Y-3.3049
X3.153Y-3.4049
X3.153Y-3.5049
X3.153Y-3.6049
X3.153Y-3.7049
X3.153Y-3.8049
X3.153Y-4.6049
X3.1728Y-2.3346
X3.1878Y-4.2437
X3.2047Y-4.2083
X3.2051Y-3.8996
X3.2067Y-4.5209
X3.2283Y-4.2437
X3.2362Y-3.8996
X3.2362Y-4.2079
X3.2382Y-4.5244
X3.2413Y-3.5512
X3.253Y-2.6049
X3.253Y-2.7049
X3.253Y-2.8049
X3.253Y-2.9049
X3.253Y-3.0049
X3.253Y-3.6049
X3.253Y-3.7049
X3.2665Y-4.2437
X3.2677Y-2.4055
X3.2677Y-3.874
X3.278Y-4.5106
X3.2823Y-3.1929
X3.2827Y-3.1496
X3.2992Y-2.4055
X3.2992Y-4.0384
X3.306Y-4.2437
X3.3272Y-4.4114
X3.3307Y-2.4055
X3.3307Y-4.0374
X3.3354Y-3.7335
X3.3453Y-4.2437
X3.353Y-2.6049
X3.353Y-2.7049
X3.353Y-2.8049
X3.353Y-2.9049
X3.353Y-3.6049
X3.3622Y-2.4055
X3.3622Y-4.0374
X3.372Y-3.7971
X3.3858Y-4.2437
X3.3937Y-4.0384
X3.4051Y-3.4394
X3.4071Y-3.2362
X3.4098Y-3.2795
X3.4098Y-3.3228
X3.4098Y-3.4094
X3.4106Y-3.4965
X3.424Y-4.2437
X3.4252Y-4.0384
X3.435Y-3.1705
X3.439Y-3.8189
X3.453Y-2.6049
X3.453Y-2.7049
X3.453Y-2.8049
X3.453Y-2.9049
X3.453Y-3.0049
X3.4567Y-2.4055
X3.4567Y-4.0384
X3.4626Y-3.3547
X3.4736Y-4.3559
X3.4882Y-2.4055
X3.4882Y-4.0384
X3.4913Y-3.5618
X3.4921Y-3.6644
X3.4921Y-3.7411
X3.5197Y-2.4055
X3.5197Y-2.5705
X3.5197Y-4.0384
X3.5378Y-3.2165
X3.5512Y-2.4055
X3.5512Y-4.0626
X3.553Y-2.6049
X3.553Y-2.7049
X3.553Y-2.8049
X3.553Y-2.9049
X3.553Y-3.0049
X3.553Y-3.3049
X3.553Y-3.6049
X3.553Y-3.7049
X3.553Y-3.8049
X3.5622Y-4.44
X3.5622Y-4.5382
X3.5728Y-4.3465
X3.5827Y-2.4055
X3.5909Y-3.4972
X3.6024Y-3.6634
X3.6083Y-3.5622
X3.6142Y-2.4055
X3.6142Y-3.7421
X3.6142Y-3.874
X3.6142Y-4.5366
X3.6339Y-4.4252
X3.6457Y-2.4055
X3.6457Y-3.8543
X3.653Y-2.6049
X3.653Y-2.7049
X3.653Y-2.8049
X3.653Y-2.9049
X3.653Y-3.0049
X3.653Y-3.3049
X3.6575Y-4.3386
X3.6654Y-4.2441
X3.6772Y-2.4055
X3.7087Y-2.4055
X3.7382Y-4.2402
X3.753Y-2.4049
X3.753Y-2.6049
X3.753Y-2.7049
X3.753Y-2.8049
X3.753Y-2.9049
X3.753Y-3.0049
X3.753Y-3.5049
X3.7878Y-3.7161
X3.7878Y-3.7543
X3.7909Y-3.6768
X3.7917Y-3.7929
X3.7972Y-4.3138
X3.8031Y-2.4055
X3.8031Y-3.9016
X3.8346Y-2.4055
X3.8346Y-3.8907
X3.8384Y-4.3133
X3.8385Y-4.0761
X3.853Y-2.6049
X3.853Y-2.7049
X3.853Y-2.8049
X3.853Y-2.9049
X3.853Y-3.0049
X3.853Y-3.1049
X3.853Y-3.5049
X3.853Y-3.7049
X3.853Y-4.6049
X3.8623Y-4.0761
X3.8661Y-2.4055
X3.8761Y-4.3051
X3.887Y-3.6303
X3.888Y-3.5923
X3.8929Y-4.4571
X3.8976Y-2.4055
X3.8976Y-3.8907
X3.8976Y-4.0689
X3.9173Y-4.3091
X3.9331Y-3.7886
X3.953Y-2.4049
X3.953Y-2.6049
X3.953Y-2.7049
X3.953Y-2.8049
X3.953Y-2.9049
X3.953Y-3.0049
X3.953Y-3.1049
X3.953Y-3.2049
X3.953Y-3.3049
X3.953Y-4.5049
X3.953Y-4.6049
X3.9567Y-4.4587
X3.9606Y-3.8917
X3.9606Y-4.3071
X3.9921Y-2.4055
X3.9961Y-4.4591
X4.0039Y-4.3043
X4.0197Y-3.528
X4.0217Y-3.7628
X4.0236Y-2.4055
X4.0275Y-4.081
X4.0354Y-4.3071
X4.0394Y-3.7825
X4.0452Y-3.8987
X4.0512Y-4.081
X4.053Y-2.7049
X4.053Y-2.8049
X4.053Y-2.9049
X4.053Y-3.0049
X4.053Y-3.1049
X4.053Y-3.2049
X4.053Y-3.3049
X4.053Y-3.4049
X4.053Y-4.5049
X4.053Y-4.6049
X4.0551Y-2.4055
X4.0551Y-2.5709
X4.0551Y-4.4587
X4.0655Y-4.3046
X4.0764Y-3.9028
X4.0787Y-3.8346
X4.0866Y-2.4055
X4.0866Y-2.5709
X4.0945Y-4.3061
X4.1067Y-3.9043
X4.1126Y-3.7638
X4.1142Y-4.4587
X4.1181Y-2.5709
X4.122Y-4.0758
X4.1339Y-4.3041
X4.1457Y-4.0758
X4.1496Y-2.5709
X4.153Y-2.8049
X4.153Y-2.9049
X4.153Y-3.0049
X4.153Y-3.1049
X4.153Y-3.2049
X4.153Y-3.3049
X4.153Y-3.4049
X4.153Y-3.5049
X4.153Y-4.2049
X4.153Y-4.5049
X4.153Y-4.6049
X4.1616Y-4.3059
X4.1697Y-3.611
X4.1732Y-3.69
X4.1732Y-4.4587
X4.1811Y-2.4055
X4.1811Y-2.5709
X4.1811Y-4.0709
X4.1929Y-4.312
X4.2126Y-2.4055
X4.2126Y-2.5709
X4.2181Y-3.8898
X4.2441Y-2.4055
X4.2441Y-2.5709
X4.2445Y-3.8906
X4.2449Y-4.2394
X4.253Y-2.8049
X4.253Y-2.9049
X4.253Y-3.0049
X4.253Y-3.1049
X4.253Y-3.2049
X4.253Y-3.3049
X4.253Y-3.4049
X4.253Y-3.5049
X4.253Y-4.3049
X4.253Y-4.5049
X4.2748Y-3.8909
X4.2756Y-2.4055
X4.2756Y-2.5709
X4.276Y-4.072
X4.2776Y-3.5717
X4.2949Y-4.3169
X4.3059Y-3.8921
X4.3071Y-2.4051
X4.3071Y-2.5709
X4.337Y-3.8929
X4.3386Y-2.5709
X4.353Y-2.4049
X4.353Y-2.8049
X4.353Y-2.9049
X4.353Y-3.0049
X4.353Y-3.1049
X4.353Y-3.2049
X4.353Y-3.3049
X4.353Y-4.5049
X4.3659Y-3.893
X4.3701Y-2.5709
X4.3815Y-3.0559
X4.3888Y-3.4419
X4.3909Y-4.3492
X4.4016Y-2.4055
X4.4016Y-2.5709
X4.4016Y-3.9035
X4.4063Y-4.4984
X4.4138Y-3.6413
X4.4144Y-3.6732
X4.4319Y-4.5181
X4.4331Y-2.4055
X4.4331Y-2.5709
X4.4331Y-3.9028
X4.4465Y-3.3992
X4.453Y-2.8049
X4.453Y-2.9049
X4.453Y-3.1049
X4.453Y-3.2049
X4.453Y-3.3049
X4.453Y-4.6049
X4.4646Y-2.4055
X4.4646Y-2.5709
X4.4646Y-3.9028
X4.4961Y-2.4055
X4.4961Y-2.5709
X4.4961Y-3.9028
X4.5031Y-3.1232
X4.5031Y-3.2098
X4.5071Y-3.6177
X4.5091Y-2.8594
X4.5091Y-2.8969
X4.5169Y-3.6717
X4.5276Y-2.5722
X4.5276Y-3.9028
X4.5315Y-3.5983
X4.5315Y-3.6383
X4.5327Y-4.3134
X4.5394Y-4.6366
X4.553Y-2.4049
X4.553Y-3.3049
X4.5575Y-3.3728
X4.5581Y-4.6557
X4.5591Y-2.5709
X4.5591Y-3.9028
X4.5642Y-3.6752
X4.5742Y-4.6718
X4.5906Y-2.4055
X4.5906Y-2.5709
X4.5906Y-3.9028
X4.5961Y-3.3717
X4.6106Y-3.7236
X4.622Y-2.4055
X4.622Y-2.5709
X4.622Y-3.9028
X4.6283Y-3.7461
X4.6441Y-3.3075
X4.6501Y-3.4401
X4.6504Y-3.726
X4.6535Y-2.4055
X4.6535Y-2.5709
X4.6535Y-3.9055
X4.6535Y-4.087
X4.6604Y-3.5866
X4.6701Y-3.748
X4.685Y-2.4055
X4.685Y-2.5709
X4.685Y-3.9055
X4.685Y-4.087
X4.7016Y-4.6839
X4.7106Y-4.6386
X4.7165Y-2.5709
X4.7165Y-4.0862
X4.7167Y-2.9901
X4.7167Y-3.0138
X4.7169Y-2.8366
X4.7169Y-2.8603
X4.7169Y-3.9063
X4.7173Y-3.0669
X4.7173Y-3.0906
X4.7291Y-4.202
X4.7323Y-3.8819
X4.7476Y-4.0862
X4.748Y-3.9063
X4.7512Y-3.7681
X4.753Y-2.4049
X4.753Y-3.0049
X4.753Y-3.1049
X4.753Y-3.4049
X4.7894Y-2.3346
X4.798Y-3.5789
X4.8016Y-3.6756
X4.8016Y-4.2457
X4.811Y-3.648
X4.8142Y-3.739
X4.8295Y-3.5209
X4.853Y-2.3049
X4.853Y-3.0049
X4.853Y-3.3049
X4.853Y-3.4049
X4.8583Y-2.8622
X4.8583Y-2.8859
X4.8933Y-3.2996
X4.8984Y-3.55
X4.8984Y-3.6173
X4.939Y-3.174
X4.9406Y-3.5413
X4.953Y-2.3049
X4.953Y-3.6049
X4.953Y-3.7049
X4.969Y-4.5228
X4.9787Y-3.2835
X4.9917Y-4.5228
X5.013Y-3.1772
X5.0154Y-3.3685
X5.0185Y-4.5192
X5.028Y-2.9118
X5.0453Y-4.25
X5.053Y-2.1049
X5.053Y-3.3049
X5.053Y-4.6049
X5.0535Y-2.222
X5.0713Y-3.0508
X5.0736Y-3.1776
X5.0951Y-3.0128
X5.1176Y-3.3588
X5.1319Y-3.4197
X5.153Y-2.1049
X5.153Y-2.2049
X5.153Y-2.3049
X5.153Y-2.4049
X5.153Y-2.9049
X5.153Y-3.0049
X5.153Y-3.1049
X5.153Y-3.2049
X5.153Y-3.5049
X5.153Y-3.6049
X5.153Y-3.7049
X5.153Y-4.1049
X5.253Y-2.4049
X5.253Y-2.9049
X5.253Y-3.0049
X5.253Y-3.1049
X5.253Y-3.2049
X5.253Y-3.3049
X5.253Y-3.8049
X5.253Y-4.0049
X5.2762Y-2.3421
X5.322Y-2.8306
X5.353Y-2.1049
X5.353Y-2.2049
X5.353Y-3.8049
X5.3717Y-2.8626
X5.4067Y-2.152
X5.453Y-2.8049
X5.453Y-3.8049
X5.4543Y-4.0756
X5.5406Y-2.3472
X5.553Y-2.1049
X5.553Y-2.2049
X5.553Y-3.2049
X5.653Y-2.1049
X5.653Y-2.5049
X5.653Y-3.2049
X5.653Y-4.1049
X5.653Y-4.2049
X5.653Y-4.3049
X5.6913Y-3.7949
X5.7134Y-2.4398
X5.753Y-2.1049
X5.753Y-2.5049
X5.753Y-2.7049
X5.753Y-2.8049
X5.753Y-2.9049
X5.753Y-3.2049
X5.753Y-4.0049
X5.753Y-4.2049
X5.7622Y-2.2331
X5.7894Y-3.4417
X5.7894Y-3.515
X5.7957Y-3.6551
X5.853Y-2.2049
X5.853Y-2.7049
X5.853Y-2.8049
X5.853Y-2.9049
X5.853Y-3.2049
X5.853Y-3.4049
X5.853Y-3.5049
X5.853Y-3.6049
X5.853Y-4.0049
X5.853Y-4.4049
X5.8707Y-2.0941
X5.9179Y-2.2878
X5.953Y-2.3049
X5.953Y-4.4049
X6.053Y-2.1049
X6.053Y-2.2049
X6.053Y-2.3049
X6.053Y-2.4049
X6.053Y-4.4049
X6.053Y-4.6049
T4
X5.5906Y-2.7165
X5.5906Y-2.815
X5.5906Y-2.8937
X5.5906Y-2.9921
X5.5906Y-3.4449
X5.5906Y-3.5433
X5.5906Y-3.622
X5.5906Y-3.7205
X5.6937Y-2.7165
X5.6937Y-2.815
X5.6937Y-2.8937
X5.6937Y-2.9921
X5.6937Y-3.4449
X5.6937Y-3.5433
X5.6937Y-3.622
X5.6937Y-3.7205
T5
X5.4412Y-4.1557
X5.4412Y-4.2557
X5.4412Y-4.3557
X5.4412Y-4.4557
X5.4412Y-4.5557
X5.5412Y-4.1057
X5.5412Y-4.2057
X5.5412Y-4.3057
X5.5412Y-4.4057
X5.5412Y-4.5057
T6
X3.0276Y-2.0811
X3.0276Y-2.1811
X3.1276Y-2.0811
X3.1276Y-2.1811
X3.2276Y-2.0811
X3.2276Y-2.1811
X3.3276Y-2.0811
X3.3276Y-2.1811
X3.4276Y-2.0811
X3.4276Y-2.1811
X3.5276Y-2.0811
X3.5276Y-2.1811
X3.6276Y-2.0811
X3.6276Y-2.1811
X3.7276Y-2.0811
X3.7276Y-2.1811
X3.8276Y-2.0811
X3.8276Y-2.1811
X3.9276Y-2.0811
X3.9276Y-2.1811
X4.0276Y-2.0811
X4.0276Y-2.1811
X4.1276Y-2.0811
X4.1276Y-2.1811
X4.2276Y-2.0811
X4.2276Y-2.1811
X4.3276Y-2.0811
X4.3276Y-2.1811
X4.4276Y-2.0811
X4.4276Y-2.1811
X4.5276Y-2.0811
X4.5276Y-2.1811
X4.6276Y-2.0811
X4.6276Y-2.1811
X4.7276Y-2.0811
X4.7276Y-2.1811
X4.8276Y-2.0811
X4.8276Y-2.1811
X4.9276Y-2.0811
X4.9276Y-2.1811
T7
X5.9841Y-4.0699
X5.9841Y-4.1699
X5.9841Y-4.4915
X5.9841Y-4.5915
T8
X5.6711Y-4.0138
X5.6711Y-4.6476
T9
X2.9134Y-2.372
X2.9134Y-4.1043
X5.0394Y-2.372
X5.0394Y-4.1043
T10
X5.5768Y-2.5957
X5.5768Y-3.113
X5.5768Y-3.324
X5.5768Y-3.8413
X5.8004Y-2.5957
X5.8004Y-3.113
X5.8004Y-3.324
X5.8004Y-3.8413
T2
G00X3.0976Y-4.5126
M15
G01X3.0976Y-4.4693
M16
G05
G00X3.0976Y-4.6709
M15
G01X3.0976Y-4.6394
M16
G05
G00X3.4378Y-4.5126
M15
G01X3.4378Y-4.4693
M16
G05
G00X3.4378Y-4.6709
M15
G01X3.4378Y-4.6394
M16
G05
G00X4.8102Y-4.5126
M15
G01X4.8102Y-4.4693
M16
G05
G00X4.8102Y-4.6709
M15
G01X4.8102Y-4.6394
M16
G05
G00X5.1504Y-4.5126
M15
G01X5.1504Y-4.4693
M16
G05
G00X5.1504Y-4.6709
M15
G01X5.1504Y-4.6394
M16
G05
T3
G00X3.7303Y-4.374
M15
G01X3.7303Y-4.4449
M16
G05
G00X3.7303Y-4.6283
M15
G01X3.7303Y-4.6598
M16
G05
G00X4.3012Y-4.374
M15
G01X4.3012Y-4.4449
M16
G05
G00X4.3012Y-4.6283
M15
G01X4.3012Y-4.6598
M16
G05
T0
M30
