G04 #@! TF.GenerationSoftware,KiCad,Pcbnew,(6.0.7)*
G04 #@! TF.CreationDate,2022-12-09T22:25:58+08:00*
G04 #@! TF.ProjectId,ZYNQ7000_MINIMB,5a594e51-3730-4303-905f-4d494e494d42,rev?*
G04 #@! TF.SameCoordinates,Original*
G04 #@! TF.FileFunction,Paste,Top*
G04 #@! TF.FilePolarity,Positive*
%FSLAX46Y46*%
G04 Gerber Fmt 4.6, Leading zero omitted, Abs format (unit mm)*
G04 Created by KiCad (PCBNEW (6.0.7)) date 2022-12-09 22:25:58*
%MOMM*%
%LPD*%
G01*
G04 APERTURE LIST*
G04 Aperture macros list*
%AMRoundRect*
0 Rectangle with rounded corners*
0 $1 Rounding radius*
0 $2 $3 $4 $5 $6 $7 $8 $9 X,Y pos of 4 corners*
0 Add a 4 corners polygon primitive as box body*
4,1,4,$2,$3,$4,$5,$6,$7,$8,$9,$2,$3,0*
0 Add four circle primitives for the rounded corners*
1,1,$1+$1,$2,$3*
1,1,$1+$1,$4,$5*
1,1,$1+$1,$6,$7*
1,1,$1+$1,$8,$9*
0 Add four rect primitives between the rounded corners*
20,1,$1+$1,$2,$3,$4,$5,0*
20,1,$1+$1,$4,$5,$6,$7,0*
20,1,$1+$1,$6,$7,$8,$9,0*
20,1,$1+$1,$8,$9,$2,$3,0*%
G04 Aperture macros list end*
%ADD10RoundRect,0.135000X-0.185000X0.135000X-0.185000X-0.135000X0.185000X-0.135000X0.185000X0.135000X0*%
%ADD11RoundRect,0.135000X-0.135000X-0.185000X0.135000X-0.185000X0.135000X0.185000X-0.135000X0.185000X0*%
%ADD12RoundRect,0.135000X0.135000X0.185000X-0.135000X0.185000X-0.135000X-0.185000X0.135000X-0.185000X0*%
%ADD13RoundRect,0.140000X-0.170000X0.140000X-0.170000X-0.140000X0.170000X-0.140000X0.170000X0.140000X0*%
%ADD14RoundRect,0.140000X-0.140000X-0.170000X0.140000X-0.170000X0.140000X0.170000X-0.140000X0.170000X0*%
%ADD15RoundRect,0.218750X0.218750X0.256250X-0.218750X0.256250X-0.218750X-0.256250X0.218750X-0.256250X0*%
%ADD16R,1.160000X0.600000*%
%ADD17R,1.160000X0.300000*%
%ADD18RoundRect,0.225000X-0.250000X0.225000X-0.250000X-0.225000X0.250000X-0.225000X0.250000X0.225000X0*%
%ADD19RoundRect,0.135000X0.185000X-0.135000X0.185000X0.135000X-0.185000X0.135000X-0.185000X-0.135000X0*%
%ADD20R,1.600000X0.700000*%
%ADD21R,2.200000X1.200000*%
%ADD22R,1.500000X1.200000*%
%ADD23R,1.500000X1.600000*%
%ADD24R,2.000000X1.200000*%
%ADD25RoundRect,0.250000X-0.275000X-0.275000X0.275000X-0.275000X0.275000X0.275000X-0.275000X0.275000X0*%
%ADD26RoundRect,0.062500X-0.350000X-0.062500X0.350000X-0.062500X0.350000X0.062500X-0.350000X0.062500X0*%
%ADD27RoundRect,0.062500X-0.062500X-0.350000X0.062500X-0.350000X0.062500X0.350000X-0.062500X0.350000X0*%
%ADD28R,1.750000X0.450000*%
%ADD29RoundRect,0.225000X0.225000X0.225000X-0.225000X0.225000X-0.225000X-0.225000X0.225000X-0.225000X0*%
%ADD30RoundRect,0.062500X0.337500X0.062500X-0.337500X0.062500X-0.337500X-0.062500X0.337500X-0.062500X0*%
%ADD31RoundRect,0.062500X0.062500X0.337500X-0.062500X0.337500X-0.062500X-0.337500X0.062500X-0.337500X0*%
%ADD32RoundRect,0.225000X0.250000X-0.225000X0.250000X0.225000X-0.250000X0.225000X-0.250000X-0.225000X0*%
%ADD33RoundRect,0.150000X-0.825000X-0.150000X0.825000X-0.150000X0.825000X0.150000X-0.825000X0.150000X0*%
%ADD34R,1.800000X2.500000*%
%ADD35RoundRect,0.140000X0.140000X0.170000X-0.140000X0.170000X-0.140000X-0.170000X0.140000X-0.170000X0*%
%ADD36R,1.200000X1.400000*%
%ADD37RoundRect,0.225000X-0.225000X-0.250000X0.225000X-0.250000X0.225000X0.250000X-0.225000X0.250000X0*%
%ADD38RoundRect,0.225000X0.225000X0.250000X-0.225000X0.250000X-0.225000X-0.250000X0.225000X-0.250000X0*%
%ADD39R,0.500000X2.000000*%
%ADD40R,2.500000X1.800000*%
%ADD41R,1.300000X1.550000*%
%ADD42RoundRect,0.250000X-0.250000X-0.475000X0.250000X-0.475000X0.250000X0.475000X-0.250000X0.475000X0*%
%ADD43RoundRect,0.150000X0.150000X-0.512500X0.150000X0.512500X-0.150000X0.512500X-0.150000X-0.512500X0*%
%ADD44R,2.440000X1.120000*%
%ADD45RoundRect,0.207500X-0.207500X0.207500X-0.207500X-0.207500X0.207500X-0.207500X0.207500X0.207500X0*%
%ADD46RoundRect,0.062500X-0.062500X0.375000X-0.062500X-0.375000X0.062500X-0.375000X0.062500X0.375000X0*%
%ADD47RoundRect,0.062500X-0.375000X0.062500X-0.375000X-0.062500X0.375000X-0.062500X0.375000X0.062500X0*%
%ADD48R,0.600000X0.700000*%
%ADD49RoundRect,0.243750X-0.243750X-0.456250X0.243750X-0.456250X0.243750X0.456250X-0.243750X0.456250X0*%
%ADD50R,2.600000X0.300000*%
%ADD51RoundRect,0.140000X0.170000X-0.140000X0.170000X0.140000X-0.170000X0.140000X-0.170000X-0.140000X0*%
%ADD52RoundRect,0.100000X-0.637500X-0.100000X0.637500X-0.100000X0.637500X0.100000X-0.637500X0.100000X0*%
G04 APERTURE END LIST*
D10*
G04 #@! TO.C,R1*
X94200000Y-57690000D03*
X94200000Y-58710000D03*
G04 #@! TD*
D11*
G04 #@! TO.C,R38*
X136890000Y-82050000D03*
X137910000Y-82050000D03*
G04 #@! TD*
D12*
G04 #@! TO.C,R49*
X141610000Y-69000000D03*
X140590000Y-69000000D03*
G04 #@! TD*
D10*
G04 #@! TO.C,R7*
X90200000Y-57690000D03*
X90200000Y-58710000D03*
G04 #@! TD*
D12*
G04 #@! TO.C,R55*
X137950000Y-62150000D03*
X136930000Y-62150000D03*
G04 #@! TD*
D13*
G04 #@! TO.C,C15*
X131900000Y-114520000D03*
X131900000Y-115480000D03*
G04 #@! TD*
D14*
G04 #@! TO.C,C31*
X134970000Y-54150000D03*
X135930000Y-54150000D03*
G04 #@! TD*
D15*
G04 #@! TO.C,D1*
X80387500Y-47200000D03*
X78812500Y-47200000D03*
G04 #@! TD*
D11*
G04 #@! TO.C,R37*
X136890000Y-81075000D03*
X137910000Y-81075000D03*
G04 #@! TD*
D16*
G04 #@! TO.C,J5*
X143075000Y-115080000D03*
X143075000Y-114280000D03*
D17*
X143075000Y-113130000D03*
X143075000Y-112130000D03*
X143075000Y-111630000D03*
X143075000Y-110630000D03*
D16*
X143075000Y-109480000D03*
X143075000Y-108680000D03*
X143075000Y-108680000D03*
X143075000Y-109480000D03*
D17*
X143075000Y-110130000D03*
X143075000Y-111130000D03*
X143075000Y-112630000D03*
X143075000Y-113630000D03*
D16*
X143075000Y-114280000D03*
X143075000Y-115080000D03*
G04 #@! TD*
D10*
G04 #@! TO.C,R9*
X91200000Y-57690000D03*
X91200000Y-58710000D03*
G04 #@! TD*
D18*
G04 #@! TO.C,C23*
X89100000Y-79575000D03*
X89100000Y-81125000D03*
G04 #@! TD*
D12*
G04 #@! TO.C,R54*
X147685000Y-57100000D03*
X146665000Y-57100000D03*
G04 #@! TD*
D19*
G04 #@! TO.C,R3*
X82800000Y-58710000D03*
X82800000Y-57690000D03*
G04 #@! TD*
D20*
G04 #@! TO.C,U5*
X134995000Y-95000000D03*
X134995000Y-96100000D03*
X134995000Y-97200000D03*
X134995000Y-98300000D03*
X134995000Y-99400000D03*
X134995000Y-100500000D03*
X134995000Y-101600000D03*
X134995000Y-102700000D03*
X134995000Y-103800000D03*
D21*
X145395000Y-105200000D03*
D22*
X135795000Y-105200000D03*
D23*
X135795000Y-90400000D03*
D24*
X145395000Y-89400000D03*
G04 #@! TD*
D19*
G04 #@! TO.C,R5*
X85800000Y-58710000D03*
X85800000Y-57690000D03*
G04 #@! TD*
D11*
G04 #@! TO.C,R56*
X135030000Y-61200000D03*
X136050000Y-61200000D03*
G04 #@! TD*
D25*
G04 #@! TO.C,U4*
X125370000Y-94490000D03*
X125370000Y-95790000D03*
X126670000Y-95790000D03*
X126670000Y-94490000D03*
D26*
X124082500Y-93890000D03*
X124082500Y-94390000D03*
X124082500Y-94890000D03*
X124082500Y-95390000D03*
X124082500Y-95890000D03*
X124082500Y-96390000D03*
D27*
X124770000Y-97077500D03*
X125270000Y-97077500D03*
X125770000Y-97077500D03*
X126270000Y-97077500D03*
X126770000Y-97077500D03*
X127270000Y-97077500D03*
D26*
X127957500Y-96390000D03*
X127957500Y-95890000D03*
X127957500Y-95390000D03*
X127957500Y-94890000D03*
X127957500Y-94390000D03*
X127957500Y-93890000D03*
D27*
X127270000Y-93202500D03*
X126770000Y-93202500D03*
X126270000Y-93202500D03*
X125770000Y-93202500D03*
X125270000Y-93202500D03*
X124770000Y-93202500D03*
G04 #@! TD*
D10*
G04 #@! TO.C,R40*
X90300000Y-70890000D03*
X90300000Y-71910000D03*
G04 #@! TD*
D12*
G04 #@! TO.C,R10*
X116485000Y-55075000D03*
X115465000Y-55075000D03*
G04 #@! TD*
D28*
G04 #@! TO.C,U9*
X137875000Y-51950000D03*
X137875000Y-52600000D03*
X137875000Y-53250000D03*
X137875000Y-53900000D03*
X137875000Y-54550000D03*
X137875000Y-55200000D03*
X137875000Y-55850000D03*
X137875000Y-56500000D03*
X137875000Y-57150000D03*
X137875000Y-57800000D03*
X137875000Y-58450000D03*
X137875000Y-59100000D03*
X137875000Y-59750000D03*
X137875000Y-60400000D03*
X145075000Y-60400000D03*
X145075000Y-59750000D03*
X145075000Y-59100000D03*
X145075000Y-58450000D03*
X145075000Y-57800000D03*
X145075000Y-57150000D03*
X145075000Y-56500000D03*
X145075000Y-55850000D03*
X145075000Y-55200000D03*
X145075000Y-54550000D03*
X145075000Y-53900000D03*
X145075000Y-53250000D03*
X145075000Y-52600000D03*
X145075000Y-51950000D03*
G04 #@! TD*
D14*
G04 #@! TO.C,C3*
X138020000Y-106970000D03*
X138980000Y-106970000D03*
G04 #@! TD*
D19*
G04 #@! TO.C,R4*
X86800000Y-58710000D03*
X86800000Y-57690000D03*
G04 #@! TD*
D29*
G04 #@! TO.C,U2*
X136300000Y-111670000D03*
X136300000Y-109430000D03*
X137420000Y-109430000D03*
X137420000Y-110550000D03*
X136300000Y-110550000D03*
X135180000Y-111670000D03*
X135180000Y-109430000D03*
X137420000Y-111670000D03*
X135180000Y-110550000D03*
D30*
X138750000Y-112050000D03*
X138750000Y-111550000D03*
X138750000Y-111050000D03*
X138750000Y-110550000D03*
X138750000Y-110050000D03*
X138750000Y-109550000D03*
X138750000Y-109050000D03*
D31*
X137800000Y-108100000D03*
X137300000Y-108100000D03*
X136800000Y-108100000D03*
X136300000Y-108100000D03*
X135800000Y-108100000D03*
X135300000Y-108100000D03*
X134800000Y-108100000D03*
D30*
X133850000Y-109050000D03*
X133850000Y-109550000D03*
X133850000Y-110050000D03*
X133850000Y-110550000D03*
X133850000Y-111050000D03*
X133850000Y-111550000D03*
X133850000Y-112050000D03*
D31*
X134800000Y-113000000D03*
X135300000Y-113000000D03*
X135800000Y-113000000D03*
X136300000Y-113000000D03*
X136800000Y-113000000D03*
X137300000Y-113000000D03*
X137800000Y-113000000D03*
G04 #@! TD*
D32*
G04 #@! TO.C,C22*
X121925000Y-70900000D03*
X121925000Y-69350000D03*
G04 #@! TD*
D10*
G04 #@! TO.C,R12*
X84800000Y-57690000D03*
X84800000Y-58710000D03*
G04 #@! TD*
D33*
G04 #@! TO.C,U3*
X133935000Y-114465000D03*
X133935000Y-115735000D03*
X133935000Y-117005000D03*
X133935000Y-118275000D03*
X138885000Y-118275000D03*
X138885000Y-117005000D03*
X138885000Y-115735000D03*
X138885000Y-114465000D03*
G04 #@! TD*
D11*
G04 #@! TO.C,R34*
X136890000Y-78150000D03*
X137910000Y-78150000D03*
G04 #@! TD*
D34*
G04 #@! TO.C,D4*
X128000000Y-74000000D03*
X128000000Y-70000000D03*
G04 #@! TD*
D35*
G04 #@! TO.C,C28*
X135960000Y-56400000D03*
X135000000Y-56400000D03*
G04 #@! TD*
D11*
G04 #@! TO.C,R57*
X146665000Y-58075000D03*
X147685000Y-58075000D03*
G04 #@! TD*
D19*
G04 #@! TO.C,R47*
X90325000Y-80310000D03*
X90325000Y-79290000D03*
G04 #@! TD*
D11*
G04 #@! TO.C,R35*
X136890000Y-79125000D03*
X137910000Y-79125000D03*
G04 #@! TD*
D36*
G04 #@! TO.C,Y2*
X131980000Y-56000000D03*
X131980000Y-58200000D03*
X133680000Y-58200000D03*
X133680000Y-56000000D03*
G04 #@! TD*
D11*
G04 #@! TO.C,R30*
X136890000Y-84975000D03*
X137910000Y-84975000D03*
G04 #@! TD*
D10*
G04 #@! TO.C,R44*
X92250000Y-79290000D03*
X92250000Y-80310000D03*
G04 #@! TD*
D37*
G04 #@! TO.C,C30*
X146950000Y-60275000D03*
X148500000Y-60275000D03*
G04 #@! TD*
D12*
G04 #@! TO.C,R25*
X121720000Y-82995000D03*
X120700000Y-82995000D03*
G04 #@! TD*
D11*
G04 #@! TO.C,R28*
X136890000Y-83025000D03*
X137910000Y-83025000D03*
G04 #@! TD*
D12*
G04 #@! TO.C,R17*
X79510000Y-54200000D03*
X78490000Y-54200000D03*
G04 #@! TD*
D11*
G04 #@! TO.C,R36*
X136890000Y-80100000D03*
X137910000Y-80100000D03*
G04 #@! TD*
D35*
G04 #@! TO.C,C18*
X84930000Y-74950000D03*
X83970000Y-74950000D03*
G04 #@! TD*
D14*
G04 #@! TO.C,C26*
X93295000Y-77475000D03*
X94255000Y-77475000D03*
G04 #@! TD*
D38*
G04 #@! TO.C,C12*
X132370000Y-98277500D03*
X130820000Y-98277500D03*
G04 #@! TD*
D11*
G04 #@! TO.C,R32*
X136890000Y-76200000D03*
X137910000Y-76200000D03*
G04 #@! TD*
D35*
G04 #@! TO.C,C16*
X121660000Y-83960000D03*
X120700000Y-83960000D03*
G04 #@! TD*
D14*
G04 #@! TO.C,C14*
X140570000Y-114700000D03*
X141530000Y-114700000D03*
G04 #@! TD*
D39*
G04 #@! TO.C,J2*
X80400000Y-107200000D03*
X80400000Y-102800000D03*
X81200000Y-107200000D03*
X81200000Y-102800000D03*
X82000000Y-107200000D03*
X82000000Y-102800000D03*
X82800000Y-107200000D03*
X82800000Y-102800000D03*
X83600000Y-107200000D03*
X83600000Y-102800000D03*
X84400000Y-107200000D03*
X84400000Y-102800000D03*
X85200000Y-107200000D03*
X85200000Y-102800000D03*
X86000000Y-107200000D03*
X86000000Y-102800000D03*
X86800000Y-107200000D03*
X86800000Y-102800000D03*
X87600000Y-107200000D03*
X87600000Y-102800000D03*
X88400000Y-107200000D03*
X88400000Y-102800000D03*
X89200000Y-107200000D03*
X89200000Y-102800000D03*
X90000000Y-107200000D03*
X90000000Y-102800000D03*
X90800000Y-107200000D03*
X90800000Y-102800000D03*
X91600000Y-107200000D03*
X91600000Y-102800000D03*
X92400000Y-107200000D03*
X92400000Y-102800000D03*
X93200000Y-107200000D03*
X93200000Y-102800000D03*
X94000000Y-107200000D03*
X94000000Y-102800000D03*
X94800000Y-107200000D03*
X94800000Y-102800000D03*
X95600000Y-107200000D03*
X95600000Y-102800000D03*
X96400000Y-107200000D03*
X96400000Y-102800000D03*
X97200000Y-107200000D03*
X97200000Y-102800000D03*
X98000000Y-107200000D03*
X98000000Y-102800000D03*
X98800000Y-107200000D03*
X98800000Y-102800000D03*
X99600000Y-107200000D03*
X99600000Y-102800000D03*
X100400000Y-107200000D03*
X100400000Y-102800000D03*
X101200000Y-107200000D03*
X101200000Y-102800000D03*
X102000000Y-107200000D03*
X102000000Y-102800000D03*
X102800000Y-107200000D03*
X102800000Y-102800000D03*
X103600000Y-107200000D03*
X103600000Y-102800000D03*
X104400000Y-107200000D03*
X104400000Y-102800000D03*
X105200000Y-107200000D03*
X105200000Y-102800000D03*
X106000000Y-107200000D03*
X106000000Y-102800000D03*
X106800000Y-107200000D03*
X106800000Y-102800000D03*
X107600000Y-107200000D03*
X107600000Y-102800000D03*
X108400000Y-107200000D03*
X108400000Y-102800000D03*
X109200000Y-107200000D03*
X109200000Y-102800000D03*
X110000000Y-107200000D03*
X110000000Y-102800000D03*
X110800000Y-107200000D03*
X110800000Y-102800000D03*
X111600000Y-107200000D03*
X111600000Y-102800000D03*
X112400000Y-107200000D03*
X112400000Y-102800000D03*
X113200000Y-107200000D03*
X113200000Y-102800000D03*
X114000000Y-107200000D03*
X114000000Y-102800000D03*
X114800000Y-107200000D03*
X114800000Y-102800000D03*
X115600000Y-107200000D03*
X115600000Y-102800000D03*
X116400000Y-107200000D03*
X116400000Y-102800000D03*
X117200000Y-107200000D03*
X117200000Y-102800000D03*
X118000000Y-107200000D03*
X118000000Y-102800000D03*
X118800000Y-107200000D03*
X118800000Y-102800000D03*
X119600000Y-107200000D03*
X119600000Y-102800000D03*
G04 #@! TD*
D40*
G04 #@! TO.C,D3*
X136525000Y-87475000D03*
X132525000Y-87475000D03*
G04 #@! TD*
D16*
G04 #@! TO.C,J4*
X76785000Y-49800000D03*
X76785000Y-50600000D03*
D17*
X76785000Y-51750000D03*
X76785000Y-52750000D03*
X76785000Y-53250000D03*
X76785000Y-54250000D03*
D16*
X76785000Y-55400000D03*
X76785000Y-56200000D03*
X76785000Y-56200000D03*
X76785000Y-55400000D03*
D17*
X76785000Y-54750000D03*
X76785000Y-53750000D03*
X76785000Y-52250000D03*
X76785000Y-51250000D03*
D16*
X76785000Y-50600000D03*
X76785000Y-49800000D03*
G04 #@! TD*
D12*
G04 #@! TO.C,R16*
X79510000Y-51800000D03*
X78490000Y-51800000D03*
G04 #@! TD*
D36*
G04 #@! TO.C,Y1*
X95575000Y-75675000D03*
X95575000Y-77875000D03*
X97275000Y-77875000D03*
X97275000Y-75675000D03*
G04 #@! TD*
D14*
G04 #@! TO.C,C1*
X112520000Y-54000000D03*
X113480000Y-54000000D03*
G04 #@! TD*
G04 #@! TO.C,C29*
X135060000Y-62150000D03*
X136020000Y-62150000D03*
G04 #@! TD*
D10*
G04 #@! TO.C,R8*
X88200000Y-57690000D03*
X88200000Y-58710000D03*
G04 #@! TD*
D11*
G04 #@! TO.C,R29*
X136890000Y-84000000D03*
X137910000Y-84000000D03*
G04 #@! TD*
D39*
G04 #@! TO.C,J1*
X80400000Y-65700000D03*
X80400000Y-61300000D03*
X81200000Y-65700000D03*
X81200000Y-61300000D03*
X82000000Y-65700000D03*
X82000000Y-61300000D03*
X82800000Y-65700000D03*
X82800000Y-61300000D03*
X83600000Y-65700000D03*
X83600000Y-61300000D03*
X84400000Y-65700000D03*
X84400000Y-61300000D03*
X85200000Y-65700000D03*
X85200000Y-61300000D03*
X86000000Y-65700000D03*
X86000000Y-61300000D03*
X86800000Y-65700000D03*
X86800000Y-61300000D03*
X87600000Y-65700000D03*
X87600000Y-61300000D03*
X88400000Y-65700000D03*
X88400000Y-61300000D03*
X89200000Y-65700000D03*
X89200000Y-61300000D03*
X90000000Y-65700000D03*
X90000000Y-61300000D03*
X90800000Y-65700000D03*
X90800000Y-61300000D03*
X91600000Y-65700000D03*
X91600000Y-61300000D03*
X92400000Y-65700000D03*
X92400000Y-61300000D03*
X93200000Y-65700000D03*
X93200000Y-61300000D03*
X94000000Y-65700000D03*
X94000000Y-61300000D03*
X94800000Y-65700000D03*
X94800000Y-61300000D03*
X95600000Y-65700000D03*
X95600000Y-61300000D03*
X96400000Y-65700000D03*
X96400000Y-61300000D03*
X97200000Y-65700000D03*
X97200000Y-61300000D03*
X98000000Y-65700000D03*
X98000000Y-61300000D03*
X98800000Y-65700000D03*
X98800000Y-61300000D03*
X99600000Y-65700000D03*
X99600000Y-61300000D03*
X100400000Y-65700000D03*
X100400000Y-61300000D03*
X101200000Y-65700000D03*
X101200000Y-61300000D03*
X102000000Y-65700000D03*
X102000000Y-61300000D03*
X102800000Y-65700000D03*
X102800000Y-61300000D03*
X103600000Y-65700000D03*
X103600000Y-61300000D03*
X104400000Y-65700000D03*
X104400000Y-61300000D03*
X105200000Y-65700000D03*
X105200000Y-61300000D03*
X106000000Y-65700000D03*
X106000000Y-61300000D03*
X106800000Y-65700000D03*
X106800000Y-61300000D03*
X107600000Y-65700000D03*
X107600000Y-61300000D03*
X108400000Y-65700000D03*
X108400000Y-61300000D03*
X109200000Y-65700000D03*
X109200000Y-61300000D03*
X110000000Y-65700000D03*
X110000000Y-61300000D03*
X110800000Y-65700000D03*
X110800000Y-61300000D03*
X111600000Y-65700000D03*
X111600000Y-61300000D03*
X112400000Y-65700000D03*
X112400000Y-61300000D03*
X113200000Y-65700000D03*
X113200000Y-61300000D03*
X114000000Y-65700000D03*
X114000000Y-61300000D03*
X114800000Y-65700000D03*
X114800000Y-61300000D03*
X115600000Y-65700000D03*
X115600000Y-61300000D03*
X116400000Y-65700000D03*
X116400000Y-61300000D03*
X117200000Y-65700000D03*
X117200000Y-61300000D03*
X118000000Y-65700000D03*
X118000000Y-61300000D03*
X118800000Y-65700000D03*
X118800000Y-61300000D03*
X119600000Y-65700000D03*
X119600000Y-61300000D03*
G04 #@! TD*
D41*
G04 #@! TO.C,SW2*
X92550000Y-46320000D03*
X92550000Y-54280000D03*
X88050000Y-54280000D03*
X88050000Y-46320000D03*
G04 #@! TD*
D42*
G04 #@! TO.C,C7*
X82250000Y-53500000D03*
X84150000Y-53500000D03*
G04 #@! TD*
D43*
G04 #@! TO.C,U8*
X123450000Y-71637500D03*
X124400000Y-71637500D03*
X125350000Y-71637500D03*
X125350000Y-69362500D03*
X123450000Y-69362500D03*
G04 #@! TD*
D14*
G04 #@! TO.C,C17*
X126880000Y-81945000D03*
X127840000Y-81945000D03*
G04 #@! TD*
D11*
G04 #@! TO.C,R15*
X139990000Y-108470000D03*
X141010000Y-108470000D03*
G04 #@! TD*
D44*
G04 #@! TO.C,SW1*
X119170000Y-53605000D03*
X119170000Y-56145000D03*
X127780000Y-56145000D03*
X127780000Y-53605000D03*
G04 #@! TD*
D35*
G04 #@! TO.C,C24*
X84930000Y-76550000D03*
X83970000Y-76550000D03*
G04 #@! TD*
D12*
G04 #@! TO.C,R53*
X147685000Y-56125000D03*
X146665000Y-56125000D03*
G04 #@! TD*
D37*
G04 #@! TO.C,C2*
X112425000Y-52600000D03*
X113975000Y-52600000D03*
G04 #@! TD*
D14*
G04 #@! TO.C,C25*
X93295000Y-76550000D03*
X94255000Y-76550000D03*
G04 #@! TD*
D11*
G04 #@! TO.C,R39*
X131490000Y-85090000D03*
X132510000Y-85090000D03*
G04 #@! TD*
D35*
G04 #@! TO.C,C11*
X127330000Y-91760000D03*
X126370000Y-91760000D03*
G04 #@! TD*
D14*
G04 #@! TO.C,C4*
X140020000Y-109470000D03*
X140980000Y-109470000D03*
G04 #@! TD*
D12*
G04 #@! TO.C,R18*
X137145000Y-106970000D03*
X136125000Y-106970000D03*
G04 #@! TD*
D14*
G04 #@! TO.C,C10*
X121940000Y-95940000D03*
X122900000Y-95940000D03*
G04 #@! TD*
D10*
G04 #@! TO.C,R43*
X91290000Y-79290000D03*
X91290000Y-80310000D03*
G04 #@! TD*
D11*
G04 #@! TO.C,R51*
X134940000Y-53200000D03*
X135960000Y-53200000D03*
G04 #@! TD*
D45*
G04 #@! TO.C,U7*
X87670000Y-76530000D03*
X89730000Y-75500000D03*
X87670000Y-74470000D03*
X87670000Y-75500000D03*
X89730000Y-74470000D03*
X88700000Y-75500000D03*
X88700000Y-76530000D03*
X89730000Y-76530000D03*
X88700000Y-74470000D03*
D46*
X90450000Y-73062500D03*
X89950000Y-73062500D03*
X89450000Y-73062500D03*
X88950000Y-73062500D03*
X88450000Y-73062500D03*
X87950000Y-73062500D03*
X87450000Y-73062500D03*
X86950000Y-73062500D03*
D47*
X86262500Y-73750000D03*
X86262500Y-74250000D03*
X86262500Y-74750000D03*
X86262500Y-75250000D03*
X86262500Y-75750000D03*
X86262500Y-76250000D03*
X86262500Y-76750000D03*
X86262500Y-77250000D03*
D46*
X86950000Y-77937500D03*
X87450000Y-77937500D03*
X87950000Y-77937500D03*
X88450000Y-77937500D03*
X88950000Y-77937500D03*
X89450000Y-77937500D03*
X89950000Y-77937500D03*
X90450000Y-77937500D03*
D47*
X91137500Y-77250000D03*
X91137500Y-76750000D03*
X91137500Y-76250000D03*
X91137500Y-75750000D03*
X91137500Y-75250000D03*
X91137500Y-74750000D03*
X91137500Y-74250000D03*
X91137500Y-73750000D03*
G04 #@! TD*
D48*
G04 #@! TO.C,D2*
X134970000Y-85000000D03*
X133570000Y-85000000D03*
G04 #@! TD*
D11*
G04 #@! TO.C,R31*
X136890000Y-75225000D03*
X137910000Y-75225000D03*
G04 #@! TD*
G04 #@! TO.C,R24*
X131485000Y-96077500D03*
X132505000Y-96077500D03*
G04 #@! TD*
D19*
G04 #@! TO.C,R46*
X92375000Y-77560000D03*
X92375000Y-76540000D03*
G04 #@! TD*
D12*
G04 #@! TO.C,R50*
X141635000Y-65300000D03*
X140615000Y-65300000D03*
G04 #@! TD*
D49*
G04 #@! TO.C,F1*
X78662500Y-50200000D03*
X80537500Y-50200000D03*
G04 #@! TD*
D11*
G04 #@! TO.C,R21*
X131205000Y-102750000D03*
X132225000Y-102750000D03*
G04 #@! TD*
D35*
G04 #@! TO.C,C27*
X135960000Y-55450000D03*
X135000000Y-55450000D03*
G04 #@! TD*
D19*
G04 #@! TO.C,R23*
X125770000Y-99300000D03*
X125770000Y-98280000D03*
G04 #@! TD*
D11*
G04 #@! TO.C,R22*
X131205000Y-103750000D03*
X132225000Y-103750000D03*
G04 #@! TD*
D12*
G04 #@! TO.C,R52*
X147685000Y-59025000D03*
X146665000Y-59025000D03*
G04 #@! TD*
D19*
G04 #@! TO.C,R41*
X93200000Y-80310000D03*
X93200000Y-79290000D03*
G04 #@! TD*
D10*
G04 #@! TO.C,R13*
X83800000Y-57690000D03*
X83800000Y-58710000D03*
G04 #@! TD*
D11*
G04 #@! TO.C,R14*
X139990000Y-111670000D03*
X141010000Y-111670000D03*
G04 #@! TD*
D14*
G04 #@! TO.C,C19*
X93080000Y-73800000D03*
X94040000Y-73800000D03*
G04 #@! TD*
D50*
G04 #@! TO.C,J6*
X140265000Y-75975000D03*
X140265000Y-76475000D03*
X140265000Y-76975000D03*
X140265000Y-77475000D03*
X140265000Y-77975000D03*
X140265000Y-78475000D03*
X140265000Y-78975000D03*
X140265000Y-79475000D03*
X140265000Y-79975000D03*
X140265000Y-80475000D03*
X140265000Y-80975000D03*
X140265000Y-81475000D03*
X140265000Y-81975000D03*
X140265000Y-82475000D03*
X140265000Y-82975000D03*
X140265000Y-83475000D03*
X140265000Y-83975000D03*
X140265000Y-84475000D03*
X140265000Y-84975000D03*
G04 #@! TD*
D51*
G04 #@! TO.C,C21*
X87150000Y-71830000D03*
X87150000Y-70870000D03*
G04 #@! TD*
D11*
G04 #@! TO.C,R20*
X121910000Y-93140000D03*
X122930000Y-93140000D03*
G04 #@! TD*
D10*
G04 #@! TO.C,R2*
X93200000Y-57690000D03*
X93200000Y-58710000D03*
G04 #@! TD*
D42*
G04 #@! TO.C,C8*
X82250000Y-49500000D03*
X84150000Y-49500000D03*
G04 #@! TD*
D10*
G04 #@! TO.C,R45*
X125400000Y-66990000D03*
X125400000Y-68010000D03*
G04 #@! TD*
D12*
G04 #@! TO.C,R27*
X121700000Y-85930000D03*
X120680000Y-85930000D03*
G04 #@! TD*
D16*
G04 #@! TO.C,J9*
X143140000Y-70200000D03*
X143140000Y-69400000D03*
D17*
X143140000Y-68250000D03*
X143140000Y-67250000D03*
X143140000Y-66750000D03*
X143140000Y-65750000D03*
D16*
X143140000Y-64600000D03*
X143140000Y-63800000D03*
X143140000Y-63800000D03*
X143140000Y-64600000D03*
D17*
X143140000Y-65250000D03*
X143140000Y-66250000D03*
X143140000Y-67750000D03*
X143140000Y-68750000D03*
D16*
X143140000Y-69400000D03*
X143140000Y-70200000D03*
G04 #@! TD*
D10*
G04 #@! TO.C,R48*
X125400000Y-73090000D03*
X125400000Y-74110000D03*
G04 #@! TD*
D12*
G04 #@! TO.C,R11*
X116485000Y-56075000D03*
X115465000Y-56075000D03*
G04 #@! TD*
D14*
G04 #@! TO.C,C9*
X140570000Y-115650000D03*
X141530000Y-115650000D03*
G04 #@! TD*
D10*
G04 #@! TO.C,R6*
X89200000Y-57690000D03*
X89200000Y-58710000D03*
G04 #@! TD*
D18*
G04 #@! TO.C,C20*
X87625000Y-79575000D03*
X87625000Y-81125000D03*
G04 #@! TD*
D11*
G04 #@! TO.C,R42*
X93050000Y-74900000D03*
X94070000Y-74900000D03*
G04 #@! TD*
D52*
G04 #@! TO.C,U6*
X123147500Y-82995000D03*
X123147500Y-83645000D03*
X123147500Y-84295000D03*
X123147500Y-84945000D03*
X123147500Y-85595000D03*
X123147500Y-86245000D03*
X123147500Y-86895000D03*
X123147500Y-87545000D03*
X123147500Y-88195000D03*
X123147500Y-88845000D03*
X128872500Y-88845000D03*
X128872500Y-88195000D03*
X128872500Y-87545000D03*
X128872500Y-86895000D03*
X128872500Y-86245000D03*
X128872500Y-85595000D03*
X128872500Y-84945000D03*
X128872500Y-84295000D03*
X128872500Y-83645000D03*
X128872500Y-82995000D03*
G04 #@! TD*
D11*
G04 #@! TO.C,R19*
X78490000Y-48600000D03*
X79510000Y-48600000D03*
G04 #@! TD*
D12*
G04 #@! TO.C,R26*
X121700000Y-84940000D03*
X120680000Y-84940000D03*
G04 #@! TD*
D42*
G04 #@! TO.C,C6*
X82250000Y-51500000D03*
X84150000Y-51500000D03*
G04 #@! TD*
D11*
G04 #@! TO.C,R33*
X136890000Y-77175000D03*
X137910000Y-77175000D03*
G04 #@! TD*
D42*
G04 #@! TO.C,C5*
X82250000Y-47500000D03*
X84150000Y-47500000D03*
G04 #@! TD*
D35*
G04 #@! TO.C,C13*
X132475000Y-97077500D03*
X131515000Y-97077500D03*
G04 #@! TD*
M02*
