G04 #@! TF.GenerationSoftware,KiCad,Pcbnew,(6.0.7)*
G04 #@! TF.CreationDate,2022-12-09T22:25:58+08:00*
G04 #@! TF.ProjectId,ZYNQ7000_MINIMB,5a594e51-3730-4303-905f-4d494e494d42,rev?*
G04 #@! TF.SameCoordinates,Original*
G04 #@! TF.FileFunction,Soldermask,Bot*
G04 #@! TF.FilePolarity,Negative*
%FSLAX46Y46*%
G04 Gerber Fmt 4.6, Leading zero omitted, Abs format (unit mm)*
G04 Created by KiCad (PCBNEW (6.0.7)) date 2022-12-09 22:25:58*
%MOMM*%
%LPD*%
G01*
G04 APERTURE LIST*
G04 Aperture macros list*
%AMRoundRect*
0 Rectangle with rounded corners*
0 $1 Rounding radius*
0 $2 $3 $4 $5 $6 $7 $8 $9 X,Y pos of 4 corners*
0 Add a 4 corners polygon primitive as box body*
4,1,4,$2,$3,$4,$5,$6,$7,$8,$9,$2,$3,0*
0 Add four circle primitives for the rounded corners*
1,1,$1+$1,$2,$3*
1,1,$1+$1,$4,$5*
1,1,$1+$1,$6,$7*
1,1,$1+$1,$8,$9*
0 Add four rect primitives between the rounded corners*
20,1,$1+$1,$2,$3,$4,$5,0*
20,1,$1+$1,$4,$5,$6,$7,0*
20,1,$1+$1,$6,$7,$8,$9,0*
20,1,$1+$1,$8,$9,$2,$3,0*%
G04 Aperture macros list end*
%ADD10C,3.800000*%
%ADD11C,0.600000*%
%ADD12O,2.000000X0.900000*%
%ADD13O,1.700000X0.900000*%
%ADD14C,1.524000*%
%ADD15RoundRect,0.250000X-0.600000X0.600000X-0.600000X-0.600000X0.600000X-0.600000X0.600000X0.600000X0*%
%ADD16C,1.700000*%
%ADD17R,1.600000X1.600000*%
%ADD18C,1.600000*%
%ADD19C,2.150000*%
%ADD20C,0.800000*%
%ADD21C,1.200000*%
%ADD22R,1.700000X1.700000*%
%ADD23O,1.700000X1.700000*%
%ADD24C,3.250000*%
%ADD25C,1.540000*%
%ADD26C,1.530000*%
%ADD27C,2.445000*%
%ADD28RoundRect,0.250000X0.600000X-0.600000X0.600000X0.600000X-0.600000X0.600000X-0.600000X-0.600000X0*%
%ADD29O,2.300000X1.500000*%
%ADD30O,3.300000X1.500000*%
G04 APERTURE END LIST*
D10*
G04 #@! TO.C,H3*
X73000000Y-62250000D03*
G04 #@! TD*
D11*
G04 #@! TO.C,J5*
X144135000Y-108990000D03*
X144135000Y-114770000D03*
D12*
X143655000Y-116200000D03*
D13*
X147825000Y-116200000D03*
D12*
X143655000Y-107560000D03*
D13*
X147825000Y-107560000D03*
G04 #@! TD*
D14*
G04 #@! TO.C,U5*
X145995000Y-94200000D03*
X145995000Y-102200000D03*
G04 #@! TD*
D15*
G04 #@! TO.C,J10*
X124130000Y-114247500D03*
D16*
X124130000Y-116787500D03*
X121590000Y-114247500D03*
X121590000Y-116787500D03*
X119050000Y-114247500D03*
X119050000Y-116787500D03*
X116510000Y-114247500D03*
X116510000Y-116787500D03*
X113970000Y-114247500D03*
X113970000Y-116787500D03*
X111430000Y-114247500D03*
X111430000Y-116787500D03*
X108890000Y-114247500D03*
X108890000Y-116787500D03*
X106350000Y-114247500D03*
X106350000Y-116787500D03*
X103810000Y-114247500D03*
X103810000Y-116787500D03*
X101270000Y-114247500D03*
X101270000Y-116787500D03*
X98730000Y-114247500D03*
X98730000Y-116787500D03*
X96190000Y-114247500D03*
X96190000Y-116787500D03*
X93650000Y-114247500D03*
X93650000Y-116787500D03*
X91110000Y-114247500D03*
X91110000Y-116787500D03*
X88570000Y-114247500D03*
X88570000Y-116787500D03*
X86030000Y-114247500D03*
X86030000Y-116787500D03*
X83490000Y-114247500D03*
X83490000Y-116787500D03*
X80950000Y-114247500D03*
X80950000Y-116787500D03*
X78410000Y-114247500D03*
X78410000Y-116787500D03*
X75870000Y-114247500D03*
X75870000Y-116787500D03*
G04 #@! TD*
D10*
G04 #@! TO.C,H2*
X127000000Y-106250000D03*
G04 #@! TD*
D17*
G04 #@! TO.C,J13*
X118900000Y-41490000D03*
D18*
X118900000Y-43490000D03*
X118900000Y-45490000D03*
X118900000Y-47490000D03*
D19*
X121620000Y-47760000D03*
X116180000Y-47760000D03*
X121620000Y-40760000D03*
X116180000Y-40760000D03*
G04 #@! TD*
D10*
G04 #@! TO.C,H4*
X127000000Y-62250000D03*
G04 #@! TD*
D20*
G04 #@! TO.C,J2*
X122100000Y-105000000D03*
D21*
X77900000Y-105000000D03*
G04 #@! TD*
D11*
G04 #@! TO.C,J4*
X75725000Y-50110000D03*
X75725000Y-55890000D03*
D12*
X76205000Y-48680000D03*
X76205000Y-57320000D03*
D13*
X72035000Y-48680000D03*
X72035000Y-57320000D03*
G04 #@! TD*
D22*
G04 #@! TO.C,J7*
X138250000Y-69715000D03*
D23*
X135710000Y-69715000D03*
X138250000Y-67175000D03*
X135710000Y-67175000D03*
X138250000Y-64635000D03*
X135710000Y-64635000D03*
G04 #@! TD*
D20*
G04 #@! TO.C,J1*
X122100000Y-63500000D03*
D21*
X77900000Y-63500000D03*
G04 #@! TD*
D17*
G04 #@! TO.C,J12*
X127550000Y-41490000D03*
D18*
X127550000Y-43490000D03*
X127550000Y-45490000D03*
X127550000Y-47490000D03*
D19*
X130270000Y-47760000D03*
X130270000Y-40760000D03*
X124830000Y-40760000D03*
X124830000Y-47760000D03*
G04 #@! TD*
D24*
G04 #@! TO.C,U1*
X111515000Y-40904000D03*
X100085000Y-40904000D03*
D25*
X111515000Y-49794000D03*
X110245000Y-47254000D03*
X108975000Y-49794000D03*
X107705000Y-47254000D03*
X106435000Y-49794000D03*
X105165000Y-47254000D03*
X103895000Y-49794000D03*
X102625000Y-47254000D03*
X101355000Y-49794000D03*
X100085000Y-47254000D03*
D26*
X99175000Y-36004000D03*
X101715000Y-36004000D03*
X109885000Y-36004000D03*
X112425000Y-36004000D03*
D27*
X97750000Y-43954000D03*
X113850000Y-43954000D03*
G04 #@! TD*
D28*
G04 #@! TO.C,J3*
X76380000Y-43697500D03*
D16*
X76380000Y-41157500D03*
X78920000Y-43697500D03*
X78920000Y-41157500D03*
X81460000Y-43697500D03*
X81460000Y-41157500D03*
X84000000Y-43697500D03*
X84000000Y-41157500D03*
X86540000Y-43697500D03*
X86540000Y-41157500D03*
X89080000Y-43697500D03*
X89080000Y-41157500D03*
X91620000Y-43697500D03*
X91620000Y-41157500D03*
G04 #@! TD*
D29*
G04 #@! TO.C,J6*
X146985000Y-73225000D03*
X146985000Y-87725000D03*
D30*
X141025000Y-87725000D03*
X141025000Y-73225000D03*
G04 #@! TD*
D17*
G04 #@! TO.C,J8*
X144800000Y-41490000D03*
D18*
X144800000Y-43490000D03*
X144800000Y-45490000D03*
X144800000Y-47490000D03*
D19*
X147520000Y-40760000D03*
X147520000Y-47760000D03*
X142080000Y-40760000D03*
X142080000Y-47760000D03*
G04 #@! TD*
D11*
G04 #@! TO.C,J9*
X144200000Y-69890000D03*
X144200000Y-64110000D03*
D13*
X147890000Y-71320000D03*
D12*
X143720000Y-71320000D03*
X143720000Y-62680000D03*
D13*
X147890000Y-62680000D03*
G04 #@! TD*
D17*
G04 #@! TO.C,J11*
X136200000Y-41490000D03*
D18*
X136200000Y-43490000D03*
X136200000Y-45490000D03*
X136200000Y-47490000D03*
D19*
X138920000Y-40760000D03*
X138920000Y-47760000D03*
X133480000Y-47760000D03*
X133480000Y-40760000D03*
G04 #@! TD*
D10*
G04 #@! TO.C,H1*
X73000000Y-106250000D03*
G04 #@! TD*
M02*
