G04 #@! TF.GenerationSoftware,KiCad,Pcbnew,7.0.6*
G04 #@! TF.CreationDate,2023-07-29T11:45:36+08:00*
G04 #@! TF.ProjectId,ZYNQ7000_MINIMB,5a594e51-3730-4303-905f-4d494e494d42,rev?*
G04 #@! TF.SameCoordinates,Original*
G04 #@! TF.FileFunction,Paste,Top*
G04 #@! TF.FilePolarity,Positive*
%FSLAX46Y46*%
G04 Gerber Fmt 4.6, Leading zero omitted, Abs format (unit mm)*
G04 Created by KiCad (PCBNEW 7.0.6) date 2023-07-29 11:45:36*
%MOMM*%
%LPD*%
G01*
G04 APERTURE LIST*
G04 Aperture macros list*
%AMRoundRect*
0 Rectangle with rounded corners*
0 $1 Rounding radius*
0 $2 $3 $4 $5 $6 $7 $8 $9 X,Y pos of 4 corners*
0 Add a 4 corners polygon primitive as box body*
4,1,4,$2,$3,$4,$5,$6,$7,$8,$9,$2,$3,0*
0 Add four circle primitives for the rounded corners*
1,1,$1+$1,$2,$3*
1,1,$1+$1,$4,$5*
1,1,$1+$1,$6,$7*
1,1,$1+$1,$8,$9*
0 Add four rect primitives between the rounded corners*
20,1,$1+$1,$2,$3,$4,$5,0*
20,1,$1+$1,$4,$5,$6,$7,0*
20,1,$1+$1,$6,$7,$8,$9,0*
20,1,$1+$1,$8,$9,$2,$3,0*%
G04 Aperture macros list end*
%ADD10RoundRect,0.135000X0.185000X-0.135000X0.185000X0.135000X-0.185000X0.135000X-0.185000X-0.135000X0*%
%ADD11RoundRect,0.135000X-0.185000X0.135000X-0.185000X-0.135000X0.185000X-0.135000X0.185000X0.135000X0*%
%ADD12RoundRect,0.135000X0.135000X0.185000X-0.135000X0.185000X-0.135000X-0.185000X0.135000X-0.185000X0*%
%ADD13RoundRect,0.140000X-0.140000X-0.170000X0.140000X-0.170000X0.140000X0.170000X-0.140000X0.170000X0*%
%ADD14R,1.100000X1.100000*%
%ADD15R,0.600000X1.160000*%
%ADD16R,0.300000X1.160000*%
%ADD17RoundRect,0.225000X0.250000X-0.225000X0.250000X0.225000X-0.250000X0.225000X-0.250000X-0.225000X0*%
%ADD18RoundRect,0.135000X-0.135000X-0.185000X0.135000X-0.185000X0.135000X0.185000X-0.135000X0.185000X0*%
%ADD19RoundRect,0.250000X0.275000X-0.275000X0.275000X0.275000X-0.275000X0.275000X-0.275000X-0.275000X0*%
%ADD20RoundRect,0.062500X0.062500X-0.350000X0.062500X0.350000X-0.062500X0.350000X-0.062500X-0.350000X0*%
%ADD21RoundRect,0.062500X0.350000X-0.062500X0.350000X0.062500X-0.350000X0.062500X-0.350000X-0.062500X0*%
%ADD22R,1.750000X0.450000*%
%ADD23RoundRect,0.140000X-0.170000X0.140000X-0.170000X-0.140000X0.170000X-0.140000X0.170000X0.140000X0*%
%ADD24RoundRect,0.225000X0.225000X-0.225000X0.225000X0.225000X-0.225000X0.225000X-0.225000X-0.225000X0*%
%ADD25RoundRect,0.062500X0.062500X-0.337500X0.062500X0.337500X-0.062500X0.337500X-0.062500X-0.337500X0*%
%ADD26RoundRect,0.062500X0.337500X-0.062500X0.337500X0.062500X-0.337500X0.062500X-0.337500X-0.062500X0*%
%ADD27RoundRect,0.225000X-0.250000X0.225000X-0.250000X-0.225000X0.250000X-0.225000X0.250000X0.225000X0*%
%ADD28RoundRect,0.140000X0.140000X0.170000X-0.140000X0.170000X-0.140000X-0.170000X0.140000X-0.170000X0*%
%ADD29R,1.200000X1.400000*%
%ADD30RoundRect,0.225000X-0.225000X-0.250000X0.225000X-0.250000X0.225000X0.250000X-0.225000X0.250000X0*%
%ADD31R,0.500000X2.000000*%
%ADD32RoundRect,0.140000X0.170000X-0.140000X0.170000X0.140000X-0.170000X0.140000X-0.170000X-0.140000X0*%
%ADD33R,0.900000X1.700000*%
%ADD34RoundRect,0.250000X-0.475000X0.250000X-0.475000X-0.250000X0.475000X-0.250000X0.475000X0.250000X0*%
%ADD35RoundRect,0.150000X-0.150000X0.512500X-0.150000X-0.512500X0.150000X-0.512500X0.150000X0.512500X0*%
%ADD36R,0.760000X1.600000*%
%ADD37RoundRect,0.207500X0.207500X-0.207500X0.207500X0.207500X-0.207500X0.207500X-0.207500X-0.207500X0*%
%ADD38RoundRect,0.062500X0.062500X-0.375000X0.062500X0.375000X-0.062500X0.375000X-0.062500X-0.375000X0*%
%ADD39RoundRect,0.062500X0.375000X-0.062500X0.375000X0.062500X-0.375000X0.062500X-0.375000X-0.062500X0*%
%ADD40R,0.700000X0.600000*%
%ADD41RoundRect,0.243750X0.456250X-0.243750X0.456250X0.243750X-0.456250X0.243750X-0.456250X-0.243750X0*%
%ADD42R,1.000000X2.510000*%
%ADD43R,0.300000X2.600000*%
%ADD44RoundRect,0.218750X-0.218750X-0.256250X0.218750X-0.256250X0.218750X0.256250X-0.218750X0.256250X0*%
%ADD45RoundRect,0.100000X0.637500X0.100000X-0.637500X0.100000X-0.637500X-0.100000X0.637500X-0.100000X0*%
G04 APERTURE END LIST*
D10*
G04 #@! TO.C,R1*
X109110000Y-109010000D03*
X109110000Y-107990000D03*
G04 #@! TD*
D11*
G04 #@! TO.C,R38*
X100100000Y-107690000D03*
X100100000Y-108710000D03*
G04 #@! TD*
D10*
G04 #@! TO.C,R49*
X90480000Y-114530000D03*
X90480000Y-113510000D03*
G04 #@! TD*
G04 #@! TO.C,R7*
X112125000Y-109010000D03*
X112125000Y-107990000D03*
G04 #@! TD*
D12*
G04 #@! TO.C,R55*
X116290000Y-80430000D03*
X115270000Y-80430000D03*
G04 #@! TD*
D13*
G04 #@! TO.C,C31*
X115345000Y-73575000D03*
X116305000Y-73575000D03*
G04 #@! TD*
D14*
G04 #@! TO.C,D1*
X128150000Y-109050000D03*
X125350000Y-109050000D03*
G04 #@! TD*
D11*
G04 #@! TO.C,R37*
X101075000Y-107690000D03*
X101075000Y-108710000D03*
G04 #@! TD*
D15*
G04 #@! TO.C,J5*
X123300000Y-113490000D03*
X124100000Y-113490000D03*
D16*
X125250000Y-113490000D03*
X126250000Y-113490000D03*
X126750000Y-113490000D03*
X127750000Y-113490000D03*
D15*
X128900000Y-113490000D03*
X129700000Y-113490000D03*
X129700000Y-113490000D03*
X128900000Y-113490000D03*
D16*
X128250000Y-113490000D03*
X127250000Y-113490000D03*
X125750000Y-113490000D03*
X124750000Y-113490000D03*
D15*
X124100000Y-113490000D03*
X123300000Y-113490000D03*
G04 #@! TD*
D10*
G04 #@! TO.C,R9*
X111125000Y-109010000D03*
X111125000Y-107990000D03*
G04 #@! TD*
D17*
G04 #@! TO.C,C23*
X117960000Y-86615000D03*
X117960000Y-85065000D03*
G04 #@! TD*
D12*
G04 #@! TO.C,R54*
X128060000Y-76525000D03*
X127040000Y-76525000D03*
G04 #@! TD*
D11*
G04 #@! TO.C,R3*
X119125000Y-107985000D03*
X119125000Y-109005000D03*
G04 #@! TD*
G04 #@! TO.C,R5*
X116125000Y-107985000D03*
X116125000Y-109005000D03*
G04 #@! TD*
D18*
G04 #@! TO.C,R56*
X115270000Y-79330000D03*
X116290000Y-79330000D03*
G04 #@! TD*
D19*
G04 #@! TO.C,U4*
X102200000Y-93125000D03*
X103500000Y-93125000D03*
X102200000Y-91825000D03*
X103500000Y-91825000D03*
D20*
X101600000Y-94412500D03*
X102100000Y-94412500D03*
X102600000Y-94412500D03*
X103100000Y-94412500D03*
X103600000Y-94412500D03*
X104100000Y-94412500D03*
D21*
X104787500Y-93725000D03*
X104787500Y-93225000D03*
X104787500Y-92725000D03*
X104787500Y-92225000D03*
X104787500Y-91725000D03*
X104787500Y-91225000D03*
D20*
X104100000Y-90537500D03*
X103600000Y-90537500D03*
X103100000Y-90537500D03*
X102600000Y-90537500D03*
X102100000Y-90537500D03*
X101600000Y-90537500D03*
D21*
X100912500Y-91225000D03*
X100912500Y-91725000D03*
X100912500Y-92225000D03*
X100912500Y-92725000D03*
X100912500Y-93225000D03*
X100912500Y-93725000D03*
G04 #@! TD*
D18*
G04 #@! TO.C,R40*
X114900000Y-94970000D03*
X115920000Y-94970000D03*
G04 #@! TD*
D10*
G04 #@! TO.C,R10*
X139240000Y-61610000D03*
X139240000Y-60590000D03*
G04 #@! TD*
D22*
G04 #@! TO.C,U9*
X118250000Y-71375000D03*
X118250000Y-72025000D03*
X118250000Y-72675000D03*
X118250000Y-73325000D03*
X118250000Y-73975000D03*
X118250000Y-74625000D03*
X118250000Y-75275000D03*
X118250000Y-75925000D03*
X118250000Y-76575000D03*
X118250000Y-77225000D03*
X118250000Y-77875000D03*
X118250000Y-78525000D03*
X118250000Y-79175000D03*
X118250000Y-79825000D03*
X125450000Y-79825000D03*
X125450000Y-79175000D03*
X125450000Y-78525000D03*
X125450000Y-77875000D03*
X125450000Y-77225000D03*
X125450000Y-76575000D03*
X125450000Y-75925000D03*
X125450000Y-75275000D03*
X125450000Y-74625000D03*
X125450000Y-73975000D03*
X125450000Y-73325000D03*
X125450000Y-72675000D03*
X125450000Y-72025000D03*
X125450000Y-71375000D03*
G04 #@! TD*
D23*
G04 #@! TO.C,C3*
X119660000Y-115980000D03*
X119660000Y-116940000D03*
G04 #@! TD*
D11*
G04 #@! TO.C,R4*
X115125000Y-107985000D03*
X115125000Y-109005000D03*
G04 #@! TD*
D24*
G04 #@! TO.C,U2*
X114960000Y-115380000D03*
X116080000Y-115380000D03*
X117200000Y-115380000D03*
X114960000Y-114260000D03*
X116080000Y-114260000D03*
X117200000Y-114260000D03*
X114960000Y-113140000D03*
X116080000Y-113140000D03*
X117200000Y-113140000D03*
D25*
X114580000Y-116710000D03*
X115080000Y-116710000D03*
X115580000Y-116710000D03*
X116080000Y-116710000D03*
X116580000Y-116710000D03*
X117080000Y-116710000D03*
X117580000Y-116710000D03*
D26*
X118530000Y-115760000D03*
X118530000Y-115260000D03*
X118530000Y-114760000D03*
X118530000Y-114260000D03*
X118530000Y-113760000D03*
X118530000Y-113260000D03*
X118530000Y-112760000D03*
D25*
X117580000Y-111810000D03*
X117080000Y-111810000D03*
X116580000Y-111810000D03*
X116080000Y-111810000D03*
X115580000Y-111810000D03*
X115080000Y-111810000D03*
X114580000Y-111810000D03*
D26*
X113630000Y-112760000D03*
X113630000Y-113260000D03*
X113630000Y-113760000D03*
X113630000Y-114260000D03*
X113630000Y-114760000D03*
X113630000Y-115260000D03*
X113630000Y-115760000D03*
G04 #@! TD*
D27*
G04 #@! TO.C,C22*
X128925000Y-85312500D03*
X128925000Y-86862500D03*
G04 #@! TD*
D10*
G04 #@! TO.C,R12*
X117125000Y-109005000D03*
X117125000Y-107985000D03*
G04 #@! TD*
D11*
G04 #@! TO.C,R34*
X104000000Y-107690000D03*
X104000000Y-108710000D03*
G04 #@! TD*
D28*
G04 #@! TO.C,C28*
X116335000Y-75825000D03*
X115375000Y-75825000D03*
G04 #@! TD*
D18*
G04 #@! TO.C,R57*
X127040000Y-77500000D03*
X128060000Y-77500000D03*
G04 #@! TD*
D11*
G04 #@! TO.C,R47*
X116737500Y-86340000D03*
X116737500Y-87360000D03*
G04 #@! TD*
G04 #@! TO.C,R35*
X103025000Y-107690000D03*
X103025000Y-108710000D03*
G04 #@! TD*
D29*
G04 #@! TO.C,Y2*
X112355000Y-75425000D03*
X112355000Y-77625000D03*
X114055000Y-77625000D03*
X114055000Y-75425000D03*
G04 #@! TD*
D11*
G04 #@! TO.C,R30*
X97175000Y-107690000D03*
X97175000Y-108710000D03*
G04 #@! TD*
D10*
G04 #@! TO.C,R44*
X114812500Y-87360000D03*
X114812500Y-86340000D03*
G04 #@! TD*
D30*
G04 #@! TO.C,C30*
X127325000Y-79700000D03*
X128875000Y-79700000D03*
G04 #@! TD*
D18*
G04 #@! TO.C,R25*
X94490000Y-96325000D03*
X95510000Y-96325000D03*
G04 #@! TD*
D11*
G04 #@! TO.C,R28*
X99125000Y-107690000D03*
X99125000Y-108710000D03*
G04 #@! TD*
G04 #@! TO.C,R36*
X102050000Y-107690000D03*
X102050000Y-108710000D03*
G04 #@! TD*
D13*
G04 #@! TO.C,C18*
X122650000Y-91880000D03*
X123610000Y-91880000D03*
G04 #@! TD*
D28*
G04 #@! TO.C,C26*
X113760000Y-88930000D03*
X112800000Y-88930000D03*
G04 #@! TD*
D30*
G04 #@! TO.C,C12*
X87710000Y-83300000D03*
X89260000Y-83300000D03*
G04 #@! TD*
D11*
G04 #@! TO.C,R32*
X105950000Y-107690000D03*
X105950000Y-108710000D03*
G04 #@! TD*
D13*
G04 #@! TO.C,C16*
X94550000Y-95360000D03*
X95510000Y-95360000D03*
G04 #@! TD*
D31*
G04 #@! TO.C,J2*
X120600000Y-59300000D03*
X120600000Y-63700000D03*
X119800000Y-59300000D03*
X119800000Y-63700000D03*
X119000000Y-59300000D03*
X119000000Y-63700000D03*
X118200000Y-59300000D03*
X118200000Y-63700000D03*
X117400000Y-59300000D03*
X117400000Y-63700000D03*
X116600000Y-59300000D03*
X116600000Y-63700000D03*
X115800000Y-59300000D03*
X115800000Y-63700000D03*
X115000000Y-59300000D03*
X115000000Y-63700000D03*
X114200000Y-59300000D03*
X114200000Y-63700000D03*
X113400000Y-59300000D03*
X113400000Y-63700000D03*
X112600000Y-59300000D03*
X112600000Y-63700000D03*
X111800000Y-59300000D03*
X111800000Y-63700000D03*
X111000000Y-59300000D03*
X111000000Y-63700000D03*
X110200000Y-59300000D03*
X110200000Y-63700000D03*
X109400000Y-59300000D03*
X109400000Y-63700000D03*
X108600000Y-59300000D03*
X108600000Y-63700000D03*
X107800000Y-59300000D03*
X107800000Y-63700000D03*
X107000000Y-59300000D03*
X107000000Y-63700000D03*
X106200000Y-59300000D03*
X106200000Y-63700000D03*
X105400000Y-59300000D03*
X105400000Y-63700000D03*
X104600000Y-59300000D03*
X104600000Y-63700000D03*
X103800000Y-59300000D03*
X103800000Y-63700000D03*
X103000000Y-59300000D03*
X103000000Y-63700000D03*
X102200000Y-59300000D03*
X102200000Y-63700000D03*
X101400000Y-59300000D03*
X101400000Y-63700000D03*
X100600000Y-59300000D03*
X100600000Y-63700000D03*
X99800000Y-59300000D03*
X99800000Y-63700000D03*
X99000000Y-59300000D03*
X99000000Y-63700000D03*
X98200000Y-59300000D03*
X98200000Y-63700000D03*
X97400000Y-59300000D03*
X97400000Y-63700000D03*
X96600000Y-59300000D03*
X96600000Y-63700000D03*
X95800000Y-59300000D03*
X95800000Y-63700000D03*
X95000000Y-59300000D03*
X95000000Y-63700000D03*
X94200000Y-59300000D03*
X94200000Y-63700000D03*
X93400000Y-59300000D03*
X93400000Y-63700000D03*
X92600000Y-59300000D03*
X92600000Y-63700000D03*
X91800000Y-59300000D03*
X91800000Y-63700000D03*
X91000000Y-59300000D03*
X91000000Y-63700000D03*
X90200000Y-59300000D03*
X90200000Y-63700000D03*
X89400000Y-59300000D03*
X89400000Y-63700000D03*
X88600000Y-59300000D03*
X88600000Y-63700000D03*
X87800000Y-59300000D03*
X87800000Y-63700000D03*
X87000000Y-59300000D03*
X87000000Y-63700000D03*
X86200000Y-59300000D03*
X86200000Y-63700000D03*
X85400000Y-59300000D03*
X85400000Y-63700000D03*
X84600000Y-59300000D03*
X84600000Y-63700000D03*
X83800000Y-59300000D03*
X83800000Y-63700000D03*
X83000000Y-59300000D03*
X83000000Y-63700000D03*
X82200000Y-59300000D03*
X82200000Y-63700000D03*
X81400000Y-59300000D03*
X81400000Y-63700000D03*
G04 #@! TD*
D14*
G04 #@! TO.C,D3*
X90750000Y-111550000D03*
X90750000Y-108750000D03*
G04 #@! TD*
D12*
G04 #@! TO.C,R16*
X75332500Y-115060000D03*
X74312500Y-115060000D03*
G04 #@! TD*
D29*
G04 #@! TO.C,Y1*
X111480000Y-90730000D03*
X111480000Y-88530000D03*
X109780000Y-88530000D03*
X109780000Y-90730000D03*
G04 #@! TD*
D32*
G04 #@! TO.C,C1*
X133740000Y-112610000D03*
X133740000Y-111650000D03*
G04 #@! TD*
D13*
G04 #@! TO.C,C29*
X115300000Y-81530000D03*
X116260000Y-81530000D03*
G04 #@! TD*
D10*
G04 #@! TO.C,R8*
X114125000Y-109010000D03*
X114125000Y-107990000D03*
G04 #@! TD*
D11*
G04 #@! TO.C,R29*
X98150000Y-107690000D03*
X98150000Y-108710000D03*
G04 #@! TD*
D31*
G04 #@! TO.C,J1*
X120600000Y-100800000D03*
X120600000Y-105200000D03*
X119800000Y-100800000D03*
X119800000Y-105200000D03*
X119000000Y-100800000D03*
X119000000Y-105200000D03*
X118200000Y-100800000D03*
X118200000Y-105200000D03*
X117400000Y-100800000D03*
X117400000Y-105200000D03*
X116600000Y-100800000D03*
X116600000Y-105200000D03*
X115800000Y-100800000D03*
X115800000Y-105200000D03*
X115000000Y-100800000D03*
X115000000Y-105200000D03*
X114200000Y-100800000D03*
X114200000Y-105200000D03*
X113400000Y-100800000D03*
X113400000Y-105200000D03*
X112600000Y-100800000D03*
X112600000Y-105200000D03*
X111800000Y-100800000D03*
X111800000Y-105200000D03*
X111000000Y-100800000D03*
X111000000Y-105200000D03*
X110200000Y-100800000D03*
X110200000Y-105200000D03*
X109400000Y-100800000D03*
X109400000Y-105200000D03*
X108600000Y-100800000D03*
X108600000Y-105200000D03*
X107800000Y-100800000D03*
X107800000Y-105200000D03*
X107000000Y-100800000D03*
X107000000Y-105200000D03*
X106200000Y-100800000D03*
X106200000Y-105200000D03*
X105400000Y-100800000D03*
X105400000Y-105200000D03*
X104600000Y-100800000D03*
X104600000Y-105200000D03*
X103800000Y-100800000D03*
X103800000Y-105200000D03*
X103000000Y-100800000D03*
X103000000Y-105200000D03*
X102200000Y-100800000D03*
X102200000Y-105200000D03*
X101400000Y-100800000D03*
X101400000Y-105200000D03*
X100600000Y-100800000D03*
X100600000Y-105200000D03*
X99800000Y-100800000D03*
X99800000Y-105200000D03*
X99000000Y-100800000D03*
X99000000Y-105200000D03*
X98200000Y-100800000D03*
X98200000Y-105200000D03*
X97400000Y-100800000D03*
X97400000Y-105200000D03*
X96600000Y-100800000D03*
X96600000Y-105200000D03*
X95800000Y-100800000D03*
X95800000Y-105200000D03*
X95000000Y-100800000D03*
X95000000Y-105200000D03*
X94200000Y-100800000D03*
X94200000Y-105200000D03*
X93400000Y-100800000D03*
X93400000Y-105200000D03*
X92600000Y-100800000D03*
X92600000Y-105200000D03*
X91800000Y-100800000D03*
X91800000Y-105200000D03*
X91000000Y-100800000D03*
X91000000Y-105200000D03*
X90200000Y-100800000D03*
X90200000Y-105200000D03*
X89400000Y-100800000D03*
X89400000Y-105200000D03*
X88600000Y-100800000D03*
X88600000Y-105200000D03*
X87800000Y-100800000D03*
X87800000Y-105200000D03*
X87000000Y-100800000D03*
X87000000Y-105200000D03*
X86200000Y-100800000D03*
X86200000Y-105200000D03*
X85400000Y-100800000D03*
X85400000Y-105200000D03*
X84600000Y-100800000D03*
X84600000Y-105200000D03*
X83800000Y-100800000D03*
X83800000Y-105200000D03*
X83000000Y-100800000D03*
X83000000Y-105200000D03*
X82200000Y-100800000D03*
X82200000Y-105200000D03*
X81400000Y-100800000D03*
X81400000Y-105200000D03*
G04 #@! TD*
D33*
G04 #@! TO.C,SW2*
X146430000Y-61530000D03*
X143030000Y-61530000D03*
G04 #@! TD*
D34*
G04 #@! TO.C,C7*
X78980000Y-108730000D03*
X78980000Y-110630000D03*
G04 #@! TD*
D35*
G04 #@! TO.C,U8*
X127400000Y-84575000D03*
X126450000Y-84575000D03*
X125500000Y-84575000D03*
X125500000Y-86850000D03*
X127400000Y-86850000D03*
G04 #@! TD*
D28*
G04 #@! TO.C,C17*
X85680000Y-95680000D03*
X84720000Y-95680000D03*
G04 #@! TD*
D11*
G04 #@! TO.C,R15*
X128250000Y-110790000D03*
X128250000Y-111810000D03*
G04 #@! TD*
D36*
G04 #@! TO.C,SW1*
X135165000Y-67110000D03*
X136435000Y-67110000D03*
X136435000Y-59490000D03*
X135165000Y-59490000D03*
G04 #@! TD*
D13*
G04 #@! TO.C,C24*
X122660000Y-90170000D03*
X123620000Y-90170000D03*
G04 #@! TD*
D12*
G04 #@! TO.C,R53*
X128060000Y-75550000D03*
X127040000Y-75550000D03*
G04 #@! TD*
D17*
G04 #@! TO.C,C2*
X135340000Y-112905000D03*
X135340000Y-111355000D03*
G04 #@! TD*
D28*
G04 #@! TO.C,C25*
X113760000Y-89855000D03*
X112800000Y-89855000D03*
G04 #@! TD*
D11*
G04 #@! TO.C,R39*
X95600000Y-107690000D03*
X95600000Y-108710000D03*
G04 #@! TD*
D23*
G04 #@! TO.C,C11*
X99470000Y-91245000D03*
X99470000Y-92205000D03*
G04 #@! TD*
G04 #@! TO.C,C4*
X117240000Y-118010000D03*
X117240000Y-118970000D03*
G04 #@! TD*
D10*
G04 #@! TO.C,R18*
X119660000Y-115105000D03*
X119660000Y-114085000D03*
G04 #@! TD*
D32*
G04 #@! TO.C,C10*
X103600000Y-96555000D03*
X103600000Y-95595000D03*
G04 #@! TD*
D18*
G04 #@! TO.C,R43*
X72100000Y-111055000D03*
X73120000Y-111055000D03*
G04 #@! TD*
G04 #@! TO.C,R51*
X115315000Y-72625000D03*
X116335000Y-72625000D03*
G04 #@! TD*
D37*
G04 #@! TO.C,U7*
X117332500Y-92180000D03*
X118362500Y-92180000D03*
X119392500Y-92180000D03*
X117332500Y-91150000D03*
X118362500Y-91150000D03*
X119392500Y-91150000D03*
X117332500Y-90120000D03*
X118362500Y-90120000D03*
X119392500Y-90120000D03*
D38*
X116612500Y-93587500D03*
X117112500Y-93587500D03*
X117612500Y-93587500D03*
X118112500Y-93587500D03*
X118612500Y-93587500D03*
X119112500Y-93587500D03*
X119612500Y-93587500D03*
X120112500Y-93587500D03*
D39*
X120800000Y-92900000D03*
X120800000Y-92400000D03*
X120800000Y-91900000D03*
X120800000Y-91400000D03*
X120800000Y-90900000D03*
X120800000Y-90400000D03*
X120800000Y-89900000D03*
X120800000Y-89400000D03*
D38*
X120112500Y-88712500D03*
X119612500Y-88712500D03*
X119112500Y-88712500D03*
X118612500Y-88712500D03*
X118112500Y-88712500D03*
X117612500Y-88712500D03*
X117112500Y-88712500D03*
X116612500Y-88712500D03*
D39*
X115925000Y-89400000D03*
X115925000Y-89900000D03*
X115925000Y-90400000D03*
X115925000Y-90900000D03*
X115925000Y-91400000D03*
X115925000Y-91900000D03*
X115925000Y-92400000D03*
X115925000Y-92900000D03*
G04 #@! TD*
D40*
G04 #@! TO.C,D2*
X93950000Y-107800000D03*
X93950000Y-109200000D03*
G04 #@! TD*
D11*
G04 #@! TO.C,R31*
X106925000Y-107690000D03*
X106925000Y-108710000D03*
G04 #@! TD*
D18*
G04 #@! TO.C,R24*
X87910000Y-80527500D03*
X88930000Y-80527500D03*
G04 #@! TD*
D11*
G04 #@! TO.C,R46*
X114680000Y-88845000D03*
X114680000Y-89865000D03*
G04 #@! TD*
D10*
G04 #@! TO.C,R50*
X91800000Y-114510000D03*
X91800000Y-113490000D03*
G04 #@! TD*
D41*
G04 #@! TO.C,F1*
X86980000Y-110637500D03*
X86980000Y-108762500D03*
G04 #@! TD*
D18*
G04 #@! TO.C,R21*
X87910000Y-81700000D03*
X88930000Y-81700000D03*
G04 #@! TD*
D28*
G04 #@! TO.C,C27*
X116335000Y-74875000D03*
X115375000Y-74875000D03*
G04 #@! TD*
D42*
G04 #@! TO.C,J3*
X137340000Y-56500000D03*
X139880000Y-53190000D03*
X142420000Y-56500000D03*
X144960000Y-53190000D03*
X147500000Y-56500000D03*
X150040000Y-53190000D03*
G04 #@! TD*
D12*
G04 #@! TO.C,R23*
X107010000Y-92725000D03*
X105990000Y-92725000D03*
G04 #@! TD*
G04 #@! TO.C,R22*
X88350000Y-88810000D03*
X87330000Y-88810000D03*
G04 #@! TD*
G04 #@! TO.C,R52*
X128060000Y-78450000D03*
X127040000Y-78450000D03*
G04 #@! TD*
D11*
G04 #@! TO.C,R41*
X113862500Y-86340000D03*
X113862500Y-87360000D03*
G04 #@! TD*
D12*
G04 #@! TO.C,R58*
X73120000Y-108600000D03*
X72100000Y-108600000D03*
G04 #@! TD*
D10*
G04 #@! TO.C,R13*
X118125000Y-109005000D03*
X118125000Y-107985000D03*
G04 #@! TD*
D11*
G04 #@! TO.C,R14*
X125250000Y-110790000D03*
X125250000Y-111810000D03*
G04 #@! TD*
D28*
G04 #@! TO.C,C19*
X113850000Y-93590000D03*
X112890000Y-93590000D03*
G04 #@! TD*
D43*
G04 #@! TO.C,J6*
X106500000Y-111240000D03*
X106000000Y-111240000D03*
X105500000Y-111240000D03*
X105000000Y-111240000D03*
X104500000Y-111240000D03*
X104000000Y-111240000D03*
X103500000Y-111240000D03*
X103000000Y-111240000D03*
X102500000Y-111240000D03*
X102000000Y-111240000D03*
X101500000Y-111240000D03*
X101000000Y-111240000D03*
X100500000Y-111240000D03*
X100000000Y-111240000D03*
X99500000Y-111240000D03*
X99000000Y-111240000D03*
X98500000Y-111240000D03*
X98000000Y-111240000D03*
X97500000Y-111240000D03*
G04 #@! TD*
D12*
G04 #@! TO.C,R59*
X73120000Y-113510000D03*
X72100000Y-113510000D03*
G04 #@! TD*
D13*
G04 #@! TO.C,C21*
X120680000Y-94970000D03*
X121640000Y-94970000D03*
G04 #@! TD*
D10*
G04 #@! TO.C,R20*
X100850000Y-96585000D03*
X100850000Y-95565000D03*
G04 #@! TD*
G04 #@! TO.C,R2*
X110110000Y-109010000D03*
X110110000Y-107990000D03*
G04 #@! TD*
D34*
G04 #@! TO.C,C8*
X82980000Y-108730000D03*
X82980000Y-110630000D03*
G04 #@! TD*
D10*
G04 #@! TO.C,R45*
X125500000Y-89220000D03*
X125500000Y-88200000D03*
G04 #@! TD*
D12*
G04 #@! TO.C,R17*
X73120000Y-109827500D03*
X72100000Y-109827500D03*
G04 #@! TD*
D18*
G04 #@! TO.C,R27*
X94510000Y-93390000D03*
X95530000Y-93390000D03*
G04 #@! TD*
D15*
G04 #@! TO.C,J9*
X79800000Y-113490000D03*
X80600000Y-113490000D03*
D16*
X81750000Y-113490000D03*
X82750000Y-113490000D03*
X83250000Y-113490000D03*
X84250000Y-113490000D03*
D15*
X85400000Y-113490000D03*
X86200000Y-113490000D03*
X86200000Y-113490000D03*
X85400000Y-113490000D03*
D16*
X84750000Y-113490000D03*
X83750000Y-113490000D03*
X82250000Y-113490000D03*
X81250000Y-113490000D03*
D15*
X80600000Y-113490000D03*
X79800000Y-113490000D03*
G04 #@! TD*
D12*
G04 #@! TO.C,R48*
X125310000Y-83050000D03*
X124290000Y-83050000D03*
G04 #@! TD*
D44*
G04 #@! TO.C,D4*
X73912500Y-116500000D03*
X75487500Y-116500000D03*
G04 #@! TD*
D10*
G04 #@! TO.C,R11*
X140270000Y-61610000D03*
X140270000Y-60590000D03*
G04 #@! TD*
D23*
G04 #@! TO.C,C9*
X118440000Y-118010000D03*
X118440000Y-118970000D03*
G04 #@! TD*
D10*
G04 #@! TO.C,R6*
X113125000Y-109010000D03*
X113125000Y-107990000D03*
G04 #@! TD*
D17*
G04 #@! TO.C,C20*
X119435000Y-86615000D03*
X119435000Y-85065000D03*
G04 #@! TD*
D12*
G04 #@! TO.C,R42*
X113860000Y-92490000D03*
X112840000Y-92490000D03*
G04 #@! TD*
D45*
G04 #@! TO.C,U6*
X93062500Y-96325000D03*
X93062500Y-95675000D03*
X93062500Y-95025000D03*
X93062500Y-94375000D03*
X93062500Y-93725000D03*
X93062500Y-93075000D03*
X93062500Y-92425000D03*
X93062500Y-91775000D03*
X93062500Y-91125000D03*
X93062500Y-90475000D03*
X87337500Y-90475000D03*
X87337500Y-91125000D03*
X87337500Y-91775000D03*
X87337500Y-92425000D03*
X87337500Y-93075000D03*
X87337500Y-93725000D03*
X87337500Y-94375000D03*
X87337500Y-95025000D03*
X87337500Y-95675000D03*
X87337500Y-96325000D03*
G04 #@! TD*
D18*
G04 #@! TO.C,R26*
X94510000Y-94380000D03*
X95530000Y-94380000D03*
G04 #@! TD*
D34*
G04 #@! TO.C,C6*
X80980000Y-108730000D03*
X80980000Y-110630000D03*
G04 #@! TD*
D11*
G04 #@! TO.C,R33*
X104975000Y-107690000D03*
X104975000Y-108710000D03*
G04 #@! TD*
D34*
G04 #@! TO.C,C5*
X84980000Y-108730000D03*
X84980000Y-110630000D03*
G04 #@! TD*
D12*
G04 #@! TO.C,R19*
X72100000Y-112282500D03*
X73120000Y-112282500D03*
G04 #@! TD*
D13*
G04 #@! TO.C,C13*
X87955000Y-84500000D03*
X88915000Y-84500000D03*
G04 #@! TD*
M02*
