G04 #@! TF.GenerationSoftware,KiCad,Pcbnew,7.0.6*
G04 #@! TF.CreationDate,2023-07-29T11:45:36+08:00*
G04 #@! TF.ProjectId,ZYNQ7000_MINIMB,5a594e51-3730-4303-905f-4d494e494d42,rev?*
G04 #@! TF.SameCoordinates,Original*
G04 #@! TF.FileFunction,Paste,Bot*
G04 #@! TF.FilePolarity,Positive*
%FSLAX46Y46*%
G04 Gerber Fmt 4.6, Leading zero omitted, Abs format (unit mm)*
G04 Created by KiCad (PCBNEW 7.0.6) date 2023-07-29 11:45:36*
%MOMM*%
%LPD*%
G01*
G04 APERTURE LIST*
%ADD10R,1.600000X0.700000*%
%ADD11R,2.200000X1.200000*%
%ADD12R,1.500000X1.200000*%
%ADD13R,1.500000X1.600000*%
%ADD14R,2.000000X1.200000*%
%ADD15R,0.400000X0.900000*%
%ADD16R,0.300000X1.300000*%
%ADD17R,1.800000X2.200000*%
G04 APERTURE END LIST*
D10*
G04 #@! TO.C,U5*
X85010000Y-80000000D03*
X85010000Y-81100000D03*
X85010000Y-82200000D03*
X85010000Y-83300000D03*
X85010000Y-84400000D03*
X85010000Y-85500000D03*
X85010000Y-86600000D03*
X85010000Y-87700000D03*
X85010000Y-88800000D03*
D11*
X74610000Y-90200000D03*
D12*
X84210000Y-90200000D03*
D13*
X84210000Y-75400000D03*
D14*
X74610000Y-74400000D03*
G04 #@! TD*
D15*
G04 #@! TO.C,RN6*
X91800000Y-58050000D03*
X92600000Y-58050000D03*
X93400000Y-58050000D03*
X94200000Y-58050000D03*
X94200000Y-59750000D03*
X93400000Y-59750000D03*
X92600000Y-59750000D03*
X91800000Y-59750000D03*
G04 #@! TD*
D16*
G04 #@! TO.C,J12*
X134980000Y-58110000D03*
X135480000Y-58110000D03*
X135980000Y-58110000D03*
X136480000Y-58110000D03*
X136980000Y-58110000D03*
X137480000Y-58110000D03*
X137980000Y-58110000D03*
X138480000Y-58110000D03*
X138980000Y-58110000D03*
X139480000Y-58110000D03*
X139980000Y-58110000D03*
X140480000Y-58110000D03*
X140980000Y-58110000D03*
X141480000Y-58110000D03*
X141980000Y-58110000D03*
X142480000Y-58110000D03*
X142980000Y-58110000D03*
X143480000Y-58110000D03*
X143980000Y-58110000D03*
X144480000Y-58110000D03*
X144980000Y-58110000D03*
X145480000Y-58110000D03*
X145980000Y-58110000D03*
X146480000Y-58110000D03*
X146980000Y-58110000D03*
X147480000Y-58110000D03*
X147980000Y-58110000D03*
X148480000Y-58110000D03*
X148980000Y-58110000D03*
X149480000Y-58110000D03*
D17*
X133080000Y-54860000D03*
X151380000Y-54860000D03*
G04 #@! TD*
D15*
G04 #@! TO.C,RN8*
X87800000Y-58050000D03*
X88600000Y-58050000D03*
X89400000Y-58050000D03*
X90200000Y-58050000D03*
X90200000Y-59750000D03*
X89400000Y-59750000D03*
X88600000Y-59750000D03*
X87800000Y-59750000D03*
G04 #@! TD*
G04 #@! TO.C,RN7*
X83000000Y-58050000D03*
X83800000Y-58050000D03*
X84600000Y-58050000D03*
X85400000Y-58050000D03*
X85400000Y-59750000D03*
X84600000Y-59750000D03*
X83800000Y-59750000D03*
X83000000Y-59750000D03*
G04 #@! TD*
G04 #@! TO.C,RN1*
X116600000Y-58050000D03*
X117400000Y-58050000D03*
X118200000Y-58050000D03*
X119000000Y-58050000D03*
X119000000Y-59750000D03*
X118200000Y-59750000D03*
X117400000Y-59750000D03*
X116600000Y-59750000D03*
G04 #@! TD*
G04 #@! TO.C,RN2*
X111800000Y-58050000D03*
X112600000Y-58050000D03*
X113400000Y-58050000D03*
X114200000Y-58050000D03*
X114200000Y-59750000D03*
X113400000Y-59750000D03*
X112600000Y-59750000D03*
X111800000Y-59750000D03*
G04 #@! TD*
G04 #@! TO.C,RN5*
X96600000Y-58050000D03*
X97400000Y-58050000D03*
X98200000Y-58050000D03*
X99000000Y-58050000D03*
X99000000Y-59750000D03*
X98200000Y-59750000D03*
X97400000Y-59750000D03*
X96600000Y-59750000D03*
G04 #@! TD*
G04 #@! TO.C,RN4*
X106200000Y-58050000D03*
X107000000Y-58050000D03*
X107800000Y-58050000D03*
X108600000Y-58050000D03*
X108600000Y-59750000D03*
X107800000Y-59750000D03*
X107000000Y-59750000D03*
X106200000Y-59750000D03*
G04 #@! TD*
G04 #@! TO.C,RN3*
X101400000Y-58050000D03*
X102200000Y-58050000D03*
X103000000Y-58050000D03*
X103800000Y-58050000D03*
X103800000Y-59750000D03*
X103000000Y-59750000D03*
X102200000Y-59750000D03*
X101400000Y-59750000D03*
G04 #@! TD*
M02*
