G04 #@! TF.GenerationSoftware,KiCad,Pcbnew,(6.0.7)*
G04 #@! TF.CreationDate,2022-12-09T22:25:58+08:00*
G04 #@! TF.ProjectId,ZYNQ7000_MINIMB,5a594e51-3730-4303-905f-4d494e494d42,rev?*
G04 #@! TF.SameCoordinates,Original*
G04 #@! TF.FileFunction,Legend,Bot*
G04 #@! TF.FilePolarity,Positive*
%FSLAX46Y46*%
G04 Gerber Fmt 4.6, Leading zero omitted, Abs format (unit mm)*
G04 Created by KiCad (PCBNEW (6.0.7)) date 2022-12-09 22:25:58*
%MOMM*%
%LPD*%
G01*
G04 APERTURE LIST*
%ADD10C,0.300000*%
%ADD11C,0.150000*%
%ADD12C,0.800000*%
%ADD13C,0.500000*%
%ADD14C,0.010000*%
G04 APERTURE END LIST*
D10*
X106914285Y-33400000D02*
X107057142Y-33328571D01*
X107271428Y-33328571D01*
X107485714Y-33400000D01*
X107628571Y-33542857D01*
X107700000Y-33685714D01*
X107771428Y-33971428D01*
X107771428Y-34185714D01*
X107700000Y-34471428D01*
X107628571Y-34614285D01*
X107485714Y-34757142D01*
X107271428Y-34828571D01*
X107128571Y-34828571D01*
X106914285Y-34757142D01*
X106842857Y-34685714D01*
X106842857Y-34185714D01*
X107128571Y-34185714D01*
X106200000Y-34828571D02*
X106200000Y-33328571D01*
X106200000Y-33900000D02*
X106057142Y-33828571D01*
X105771428Y-33828571D01*
X105628571Y-33900000D01*
X105557142Y-33971428D01*
X105485714Y-34114285D01*
X105485714Y-34542857D01*
X105557142Y-34685714D01*
X105628571Y-34757142D01*
X105771428Y-34828571D01*
X106057142Y-34828571D01*
X106200000Y-34757142D01*
X104842857Y-34042857D02*
X104342857Y-34042857D01*
X104128571Y-34828571D02*
X104842857Y-34828571D01*
X104842857Y-33328571D01*
X104128571Y-33328571D01*
D11*
X113783862Y-102116666D02*
X113856434Y-102273809D01*
X113929005Y-102326190D01*
X114074148Y-102378571D01*
X114291862Y-102378571D01*
X114437005Y-102326190D01*
X114509577Y-102273809D01*
X114582148Y-102169047D01*
X114582148Y-101750000D01*
X113058148Y-101750000D01*
X113058148Y-102116666D01*
X113130720Y-102221428D01*
X113203291Y-102273809D01*
X113348434Y-102326190D01*
X113493577Y-102326190D01*
X113638720Y-102273809D01*
X113711291Y-102221428D01*
X113783862Y-102116666D01*
X113783862Y-101750000D01*
X113058148Y-102745238D02*
X113058148Y-103426190D01*
X113638720Y-103059523D01*
X113638720Y-103216666D01*
X113711291Y-103321428D01*
X113783862Y-103373809D01*
X113929005Y-103426190D01*
X114291862Y-103426190D01*
X114437005Y-103373809D01*
X114509577Y-103321428D01*
X114582148Y-103216666D01*
X114582148Y-102902380D01*
X114509577Y-102797619D01*
X114437005Y-102745238D01*
X113058148Y-104421428D02*
X113058148Y-103897619D01*
X113783862Y-103845238D01*
X113711291Y-103897619D01*
X113638720Y-104002380D01*
X113638720Y-104264285D01*
X113711291Y-104369047D01*
X113783862Y-104421428D01*
X113929005Y-104473809D01*
X114291862Y-104473809D01*
X114437005Y-104421428D01*
X114509577Y-104369047D01*
X114582148Y-104264285D01*
X114582148Y-104002380D01*
X114509577Y-103897619D01*
X114437005Y-103845238D01*
X114727291Y-104683333D02*
X114727291Y-105521428D01*
X114582148Y-106307142D02*
X114582148Y-105783333D01*
X113058148Y-105783333D01*
X113058148Y-106883333D02*
X113058148Y-106988095D01*
X113130720Y-107092857D01*
X113203291Y-107145238D01*
X113348434Y-107197619D01*
X113638720Y-107250000D01*
X114001577Y-107250000D01*
X114291862Y-107197619D01*
X114437005Y-107145238D01*
X114509577Y-107092857D01*
X114582148Y-106988095D01*
X114582148Y-106883333D01*
X114509577Y-106778571D01*
X114437005Y-106726190D01*
X114291862Y-106673809D01*
X114001577Y-106621428D01*
X113638720Y-106621428D01*
X113348434Y-106673809D01*
X113203291Y-106726190D01*
X113130720Y-106778571D01*
X113058148Y-106883333D01*
X113058148Y-107616666D02*
X113058148Y-108350000D01*
X114582148Y-107878571D01*
X114582148Y-108769047D02*
X113058148Y-108769047D01*
X113058148Y-109188095D01*
X113130720Y-109292857D01*
X113203291Y-109345238D01*
X113348434Y-109397619D01*
X113566148Y-109397619D01*
X113711291Y-109345238D01*
X113783862Y-109292857D01*
X113856434Y-109188095D01*
X113856434Y-108769047D01*
X112985577Y-110654761D02*
X114945005Y-109711904D01*
X114582148Y-111021428D02*
X113058148Y-111021428D01*
X114582148Y-111650000D01*
X113058148Y-111650000D01*
X116237502Y-102116666D02*
X116310074Y-102273809D01*
X116382645Y-102326190D01*
X116527788Y-102378571D01*
X116745502Y-102378571D01*
X116890645Y-102326190D01*
X116963217Y-102273809D01*
X117035788Y-102169047D01*
X117035788Y-101750000D01*
X115511788Y-101750000D01*
X115511788Y-102116666D01*
X115584360Y-102221428D01*
X115656931Y-102273809D01*
X115802074Y-102326190D01*
X115947217Y-102326190D01*
X116092360Y-102273809D01*
X116164931Y-102221428D01*
X116237502Y-102116666D01*
X116237502Y-101750000D01*
X115511788Y-102745238D02*
X115511788Y-103426190D01*
X116092360Y-103059523D01*
X116092360Y-103216666D01*
X116164931Y-103321428D01*
X116237502Y-103373809D01*
X116382645Y-103426190D01*
X116745502Y-103426190D01*
X116890645Y-103373809D01*
X116963217Y-103321428D01*
X117035788Y-103216666D01*
X117035788Y-102902380D01*
X116963217Y-102797619D01*
X116890645Y-102745238D01*
X115511788Y-104421428D02*
X115511788Y-103897619D01*
X116237502Y-103845238D01*
X116164931Y-103897619D01*
X116092360Y-104002380D01*
X116092360Y-104264285D01*
X116164931Y-104369047D01*
X116237502Y-104421428D01*
X116382645Y-104473809D01*
X116745502Y-104473809D01*
X116890645Y-104421428D01*
X116963217Y-104369047D01*
X117035788Y-104264285D01*
X117035788Y-104002380D01*
X116963217Y-103897619D01*
X116890645Y-103845238D01*
X117180931Y-104683333D02*
X117180931Y-105521428D01*
X117035788Y-106307142D02*
X117035788Y-105783333D01*
X115511788Y-105783333D01*
X115511788Y-106883333D02*
X115511788Y-106988095D01*
X115584360Y-107092857D01*
X115656931Y-107145238D01*
X115802074Y-107197619D01*
X116092360Y-107250000D01*
X116455217Y-107250000D01*
X116745502Y-107197619D01*
X116890645Y-107145238D01*
X116963217Y-107092857D01*
X117035788Y-106988095D01*
X117035788Y-106883333D01*
X116963217Y-106778571D01*
X116890645Y-106726190D01*
X116745502Y-106673809D01*
X116455217Y-106621428D01*
X116092360Y-106621428D01*
X115802074Y-106673809D01*
X115656931Y-106726190D01*
X115584360Y-106778571D01*
X115511788Y-106883333D01*
X117035788Y-107773809D02*
X117035788Y-107983333D01*
X116963217Y-108088095D01*
X116890645Y-108140476D01*
X116672931Y-108245238D01*
X116382645Y-108297619D01*
X115802074Y-108297619D01*
X115656931Y-108245238D01*
X115584360Y-108192857D01*
X115511788Y-108088095D01*
X115511788Y-107878571D01*
X115584360Y-107773809D01*
X115656931Y-107721428D01*
X115802074Y-107669047D01*
X116164931Y-107669047D01*
X116310074Y-107721428D01*
X116382645Y-107773809D01*
X116455217Y-107878571D01*
X116455217Y-108088095D01*
X116382645Y-108192857D01*
X116310074Y-108245238D01*
X116164931Y-108297619D01*
X117035788Y-108769047D02*
X115511788Y-108769047D01*
X115511788Y-109188095D01*
X115584360Y-109292857D01*
X115656931Y-109345238D01*
X115802074Y-109397619D01*
X116019788Y-109397619D01*
X116164931Y-109345238D01*
X116237502Y-109292857D01*
X116310074Y-109188095D01*
X116310074Y-108769047D01*
X115439217Y-110654761D02*
X117398645Y-109711904D01*
X117035788Y-111021428D02*
X115511788Y-111021428D01*
X117035788Y-111650000D01*
X115511788Y-111650000D01*
X118691142Y-102116666D02*
X118763714Y-102273809D01*
X118836285Y-102326190D01*
X118981428Y-102378571D01*
X119199142Y-102378571D01*
X119344285Y-102326190D01*
X119416857Y-102273809D01*
X119489428Y-102169047D01*
X119489428Y-101750000D01*
X117965428Y-101750000D01*
X117965428Y-102116666D01*
X118038000Y-102221428D01*
X118110571Y-102273809D01*
X118255714Y-102326190D01*
X118400857Y-102326190D01*
X118546000Y-102273809D01*
X118618571Y-102221428D01*
X118691142Y-102116666D01*
X118691142Y-101750000D01*
X117965428Y-102745238D02*
X117965428Y-103426190D01*
X118546000Y-103059523D01*
X118546000Y-103216666D01*
X118618571Y-103321428D01*
X118691142Y-103373809D01*
X118836285Y-103426190D01*
X119199142Y-103426190D01*
X119344285Y-103373809D01*
X119416857Y-103321428D01*
X119489428Y-103216666D01*
X119489428Y-102902380D01*
X119416857Y-102797619D01*
X119344285Y-102745238D01*
X117965428Y-104421428D02*
X117965428Y-103897619D01*
X118691142Y-103845238D01*
X118618571Y-103897619D01*
X118546000Y-104002380D01*
X118546000Y-104264285D01*
X118618571Y-104369047D01*
X118691142Y-104421428D01*
X118836285Y-104473809D01*
X119199142Y-104473809D01*
X119344285Y-104421428D01*
X119416857Y-104369047D01*
X119489428Y-104264285D01*
X119489428Y-104002380D01*
X119416857Y-103897619D01*
X119344285Y-103845238D01*
X119634571Y-104683333D02*
X119634571Y-105521428D01*
X119489428Y-106307142D02*
X119489428Y-105783333D01*
X117965428Y-105783333D01*
X118110571Y-106621428D02*
X118038000Y-106673809D01*
X117965428Y-106778571D01*
X117965428Y-107040476D01*
X118038000Y-107145238D01*
X118110571Y-107197619D01*
X118255714Y-107250000D01*
X118400857Y-107250000D01*
X118618571Y-107197619D01*
X119489428Y-106569047D01*
X119489428Y-107250000D01*
X119489428Y-108297619D02*
X119489428Y-107669047D01*
X119489428Y-107983333D02*
X117965428Y-107983333D01*
X118183142Y-107878571D01*
X118328285Y-107773809D01*
X118400857Y-107669047D01*
X119489428Y-108769047D02*
X117965428Y-108769047D01*
X117965428Y-109188095D01*
X118038000Y-109292857D01*
X118110571Y-109345238D01*
X118255714Y-109397619D01*
X118473428Y-109397619D01*
X118618571Y-109345238D01*
X118691142Y-109292857D01*
X118763714Y-109188095D01*
X118763714Y-108769047D01*
X117892857Y-110654761D02*
X119852285Y-109711904D01*
X119489428Y-111021428D02*
X117965428Y-111021428D01*
X119489428Y-111650000D01*
X117965428Y-111650000D01*
X121144782Y-102116666D02*
X121217354Y-102273809D01*
X121289925Y-102326190D01*
X121435068Y-102378571D01*
X121652782Y-102378571D01*
X121797925Y-102326190D01*
X121870497Y-102273809D01*
X121943068Y-102169047D01*
X121943068Y-101750000D01*
X120419068Y-101750000D01*
X120419068Y-102116666D01*
X120491640Y-102221428D01*
X120564211Y-102273809D01*
X120709354Y-102326190D01*
X120854497Y-102326190D01*
X120999640Y-102273809D01*
X121072211Y-102221428D01*
X121144782Y-102116666D01*
X121144782Y-101750000D01*
X120419068Y-102745238D02*
X120419068Y-103426190D01*
X120999640Y-103059523D01*
X120999640Y-103216666D01*
X121072211Y-103321428D01*
X121144782Y-103373809D01*
X121289925Y-103426190D01*
X121652782Y-103426190D01*
X121797925Y-103373809D01*
X121870497Y-103321428D01*
X121943068Y-103216666D01*
X121943068Y-102902380D01*
X121870497Y-102797619D01*
X121797925Y-102745238D01*
X120419068Y-104421428D02*
X120419068Y-103897619D01*
X121144782Y-103845238D01*
X121072211Y-103897619D01*
X120999640Y-104002380D01*
X120999640Y-104264285D01*
X121072211Y-104369047D01*
X121144782Y-104421428D01*
X121289925Y-104473809D01*
X121652782Y-104473809D01*
X121797925Y-104421428D01*
X121870497Y-104369047D01*
X121943068Y-104264285D01*
X121943068Y-104002380D01*
X121870497Y-103897619D01*
X121797925Y-103845238D01*
X122088211Y-104683333D02*
X122088211Y-105521428D01*
X121943068Y-106307142D02*
X121943068Y-105783333D01*
X120419068Y-105783333D01*
X121943068Y-107250000D02*
X121943068Y-106621428D01*
X121943068Y-106935714D02*
X120419068Y-106935714D01*
X120636782Y-106830952D01*
X120781925Y-106726190D01*
X120854497Y-106621428D01*
X121943068Y-108297619D02*
X121943068Y-107669047D01*
X121943068Y-107983333D02*
X120419068Y-107983333D01*
X120636782Y-107878571D01*
X120781925Y-107773809D01*
X120854497Y-107669047D01*
X121943068Y-108769047D02*
X120419068Y-108769047D01*
X120419068Y-109188095D01*
X120491640Y-109292857D01*
X120564211Y-109345238D01*
X120709354Y-109397619D01*
X120927068Y-109397619D01*
X121072211Y-109345238D01*
X121144782Y-109292857D01*
X121217354Y-109188095D01*
X121217354Y-108769047D01*
X120346497Y-110654761D02*
X122305925Y-109711904D01*
X121943068Y-111021428D02*
X120419068Y-111021428D01*
X121943068Y-111650000D01*
X120419068Y-111650000D01*
X122945280Y-103766666D02*
X122872708Y-103661904D01*
X122872708Y-103504761D01*
X122945280Y-103347619D01*
X123090422Y-103242857D01*
X123235565Y-103190476D01*
X123525851Y-103138095D01*
X123743565Y-103138095D01*
X124033851Y-103190476D01*
X124178994Y-103242857D01*
X124324137Y-103347619D01*
X124396708Y-103504761D01*
X124396708Y-103609523D01*
X124324137Y-103766666D01*
X124251565Y-103819047D01*
X123743565Y-103819047D01*
X123743565Y-103609523D01*
X124396708Y-104290476D02*
X122872708Y-104290476D01*
X124396708Y-104919047D01*
X122872708Y-104919047D01*
X124396708Y-105442857D02*
X122872708Y-105442857D01*
X122872708Y-105704761D01*
X122945280Y-105861904D01*
X123090422Y-105966666D01*
X123235565Y-106019047D01*
X123525851Y-106071428D01*
X123743565Y-106071428D01*
X124033851Y-106019047D01*
X124178994Y-105966666D01*
X124324137Y-105861904D01*
X124396708Y-105704761D01*
X124396708Y-105442857D01*
X122945280Y-107957142D02*
X122872708Y-107852380D01*
X122872708Y-107695238D01*
X122945280Y-107538095D01*
X123090422Y-107433333D01*
X123235565Y-107380952D01*
X123525851Y-107328571D01*
X123743565Y-107328571D01*
X124033851Y-107380952D01*
X124178994Y-107433333D01*
X124324137Y-107538095D01*
X124396708Y-107695238D01*
X124396708Y-107800000D01*
X124324137Y-107957142D01*
X124251565Y-108009523D01*
X123743565Y-108009523D01*
X123743565Y-107800000D01*
X124396708Y-108480952D02*
X122872708Y-108480952D01*
X124396708Y-109109523D01*
X122872708Y-109109523D01*
X124396708Y-109633333D02*
X122872708Y-109633333D01*
X122872708Y-109895238D01*
X122945280Y-110052380D01*
X123090422Y-110157142D01*
X123235565Y-110209523D01*
X123525851Y-110261904D01*
X123743565Y-110261904D01*
X124033851Y-110209523D01*
X124178994Y-110157142D01*
X124324137Y-110052380D01*
X124396708Y-109895238D01*
X124396708Y-109633333D01*
D10*
X120692857Y-33278571D02*
X120692857Y-34492857D01*
X120621428Y-34635714D01*
X120550000Y-34707142D01*
X120407142Y-34778571D01*
X120121428Y-34778571D01*
X119978571Y-34707142D01*
X119907142Y-34635714D01*
X119835714Y-34492857D01*
X119835714Y-33278571D01*
X119192857Y-34707142D02*
X118978571Y-34778571D01*
X118621428Y-34778571D01*
X118478571Y-34707142D01*
X118407142Y-34635714D01*
X118335714Y-34492857D01*
X118335714Y-34350000D01*
X118407142Y-34207142D01*
X118478571Y-34135714D01*
X118621428Y-34064285D01*
X118907142Y-33992857D01*
X119050000Y-33921428D01*
X119121428Y-33850000D01*
X119192857Y-33707142D01*
X119192857Y-33564285D01*
X119121428Y-33421428D01*
X119050000Y-33350000D01*
X118907142Y-33278571D01*
X118550000Y-33278571D01*
X118335714Y-33350000D01*
X117192857Y-33992857D02*
X116978571Y-34064285D01*
X116907142Y-34135714D01*
X116835714Y-34278571D01*
X116835714Y-34492857D01*
X116907142Y-34635714D01*
X116978571Y-34707142D01*
X117121428Y-34778571D01*
X117692857Y-34778571D01*
X117692857Y-33278571D01*
X117192857Y-33278571D01*
X117050000Y-33350000D01*
X116978571Y-33421428D01*
X116907142Y-33564285D01*
X116907142Y-33707142D01*
X116978571Y-33850000D01*
X117050000Y-33921428D01*
X117192857Y-33992857D01*
X117692857Y-33992857D01*
D11*
X124363550Y-84988095D02*
X124201050Y-83688095D01*
X123892122Y-84988095D02*
X123807002Y-84307142D01*
X123843907Y-84183333D01*
X123940931Y-84121428D01*
X124098074Y-84121428D01*
X124210574Y-84183333D01*
X124270693Y-84245238D01*
X123417122Y-84121428D02*
X122998074Y-84121428D01*
X123205812Y-83688095D02*
X123345098Y-84802380D01*
X123308193Y-84926190D01*
X123211169Y-84988095D01*
X123106407Y-84988095D01*
X122788550Y-84121428D02*
X122369502Y-84121428D01*
X122577241Y-83688095D02*
X122716526Y-84802380D01*
X122679622Y-84926190D01*
X122582598Y-84988095D01*
X122477836Y-84988095D01*
X122002836Y-84121428D02*
X122165336Y-85421428D01*
X122010574Y-84183333D02*
X121898074Y-84121428D01*
X121688550Y-84121428D01*
X121591526Y-84183333D01*
X121546883Y-84245238D01*
X121509979Y-84369047D01*
X121556407Y-84740476D01*
X121624264Y-84864285D01*
X121684383Y-84926190D01*
X121796883Y-84988095D01*
X122006407Y-84988095D01*
X122103431Y-84926190D01*
X121160574Y-84926190D02*
X121063550Y-84988095D01*
X120854026Y-84988095D01*
X120741526Y-84926190D01*
X120673669Y-84802380D01*
X120665931Y-84740476D01*
X120702836Y-84616666D01*
X120799860Y-84554761D01*
X120957002Y-84554761D01*
X121054026Y-84492857D01*
X121090931Y-84369047D01*
X121083193Y-84307142D01*
X121015336Y-84183333D01*
X120902836Y-84121428D01*
X120745693Y-84121428D01*
X120648669Y-84183333D01*
X120209979Y-84864285D02*
X120165336Y-84926190D01*
X120225455Y-84988095D01*
X120270098Y-84926190D01*
X120209979Y-84864285D01*
X120225455Y-84988095D01*
X120124860Y-84183333D02*
X120080217Y-84245238D01*
X120140336Y-84307142D01*
X120184979Y-84245238D01*
X120124860Y-84183333D01*
X120140336Y-84307142D01*
X118745693Y-83626190D02*
X119897479Y-85297619D01*
X117593312Y-83626190D02*
X118745098Y-85297619D01*
X116817122Y-84121428D02*
X116948669Y-85173809D01*
X117016526Y-85297619D01*
X117076645Y-85359523D01*
X117189145Y-85421428D01*
X117346288Y-85421428D01*
X117443312Y-85359523D01*
X116917717Y-84926190D02*
X117030217Y-84988095D01*
X117239741Y-84988095D01*
X117336764Y-84926190D01*
X117381407Y-84864285D01*
X117418312Y-84740476D01*
X117371883Y-84369047D01*
X117304026Y-84245238D01*
X117243907Y-84183333D01*
X117131407Y-84121428D01*
X116921883Y-84121428D01*
X116824860Y-84183333D01*
X116401645Y-84988095D02*
X116293312Y-84121428D01*
X116239145Y-83688095D02*
X116299264Y-83750000D01*
X116254622Y-83811904D01*
X116194502Y-83750000D01*
X116239145Y-83688095D01*
X116254622Y-83811904D01*
X115926645Y-84121428D02*
X115507598Y-84121428D01*
X115715336Y-83688095D02*
X115854622Y-84802380D01*
X115817717Y-84926190D01*
X115720693Y-84988095D01*
X115615931Y-84988095D01*
X115249264Y-84988095D02*
X115086764Y-83688095D01*
X114777836Y-84988095D02*
X114692717Y-84307142D01*
X114729622Y-84183333D01*
X114826645Y-84121428D01*
X114983788Y-84121428D01*
X115096288Y-84183333D01*
X115156407Y-84245238D01*
X113674264Y-84121428D02*
X113782598Y-84988095D01*
X114145693Y-84121428D02*
X114230812Y-84802380D01*
X114193907Y-84926190D01*
X114096883Y-84988095D01*
X113939741Y-84988095D01*
X113827241Y-84926190D01*
X113767122Y-84864285D01*
X113258788Y-84988095D02*
X113096288Y-83688095D01*
X113158193Y-84183333D02*
X113045693Y-84121428D01*
X112836169Y-84121428D01*
X112739145Y-84183333D01*
X112694502Y-84245238D01*
X112657598Y-84369047D01*
X112704026Y-84740476D01*
X112771883Y-84864285D01*
X112832002Y-84926190D01*
X112944502Y-84988095D01*
X113154026Y-84988095D01*
X113251050Y-84926190D01*
X112248074Y-84864285D02*
X112203431Y-84926190D01*
X112263550Y-84988095D01*
X112308193Y-84926190D01*
X112248074Y-84864285D01*
X112263550Y-84988095D01*
X111260574Y-84926190D02*
X111373074Y-84988095D01*
X111582598Y-84988095D01*
X111679622Y-84926190D01*
X111724264Y-84864285D01*
X111761169Y-84740476D01*
X111714741Y-84369047D01*
X111646883Y-84245238D01*
X111586764Y-84183333D01*
X111474264Y-84121428D01*
X111264741Y-84121428D01*
X111167717Y-84183333D01*
X110639741Y-84988095D02*
X110736764Y-84926190D01*
X110781407Y-84864285D01*
X110818312Y-84740476D01*
X110771883Y-84369047D01*
X110704026Y-84245238D01*
X110643907Y-84183333D01*
X110531407Y-84121428D01*
X110374264Y-84121428D01*
X110277241Y-84183333D01*
X110232598Y-84245238D01*
X110195693Y-84369047D01*
X110242122Y-84740476D01*
X110309979Y-84864285D01*
X110370098Y-84926190D01*
X110482598Y-84988095D01*
X110639741Y-84988095D01*
X109801645Y-84988095D02*
X109693312Y-84121428D01*
X109708788Y-84245238D02*
X109648669Y-84183333D01*
X109536169Y-84121428D01*
X109379026Y-84121428D01*
X109282002Y-84183333D01*
X109245098Y-84307142D01*
X109330217Y-84988095D01*
X109245098Y-84307142D02*
X109177241Y-84183333D01*
X109064741Y-84121428D01*
X108907598Y-84121428D01*
X108810574Y-84183333D01*
X108773669Y-84307142D01*
X108858788Y-84988095D01*
X107379026Y-83626190D02*
X108530812Y-85297619D01*
X107227241Y-84926190D02*
X107077836Y-84988095D01*
X106815931Y-84988095D01*
X106703431Y-84926190D01*
X106643312Y-84864285D01*
X106575455Y-84740476D01*
X106559979Y-84616666D01*
X106596883Y-84492857D01*
X106641526Y-84430952D01*
X106738550Y-84369047D01*
X106940336Y-84307142D01*
X107037360Y-84245238D01*
X107082002Y-84183333D01*
X107118907Y-84059523D01*
X107103431Y-83935714D01*
X107035574Y-83811904D01*
X106975455Y-83750000D01*
X106862955Y-83688095D01*
X106601050Y-83688095D01*
X106451645Y-83750000D01*
X106026645Y-84121428D02*
X106189145Y-85421428D01*
X106034383Y-84183333D02*
X105921883Y-84121428D01*
X105712360Y-84121428D01*
X105615336Y-84183333D01*
X105570693Y-84245238D01*
X105533788Y-84369047D01*
X105580217Y-84740476D01*
X105648074Y-84864285D01*
X105708193Y-84926190D01*
X105820693Y-84988095D01*
X106030217Y-84988095D01*
X106127241Y-84926190D01*
X105139741Y-84988095D02*
X105031407Y-84121428D01*
X105062360Y-84369047D02*
X104994502Y-84245238D01*
X104934383Y-84183333D01*
X104821883Y-84121428D01*
X104717122Y-84121428D01*
X103987360Y-84988095D02*
X103902241Y-84307142D01*
X103939145Y-84183333D01*
X104036169Y-84121428D01*
X104245693Y-84121428D01*
X104358193Y-84183333D01*
X103979622Y-84926190D02*
X104092122Y-84988095D01*
X104354026Y-84988095D01*
X104451050Y-84926190D01*
X104487955Y-84802380D01*
X104472479Y-84678571D01*
X104404622Y-84554761D01*
X104292122Y-84492857D01*
X104030217Y-84492857D01*
X103917717Y-84430952D01*
X103459979Y-84121428D02*
X103306407Y-84988095D01*
X102936169Y-84121428D02*
X103306407Y-84988095D01*
X103449860Y-85297619D01*
X103509979Y-85359523D01*
X103622479Y-85421428D01*
X102253431Y-83688095D02*
X102148669Y-83688095D01*
X102051645Y-83750000D01*
X102007002Y-83811904D01*
X101970098Y-83935714D01*
X101948669Y-84183333D01*
X101987360Y-84492857D01*
X102070693Y-84740476D01*
X102138550Y-84864285D01*
X102198669Y-84926190D01*
X102311169Y-84988095D01*
X102415931Y-84988095D01*
X102512955Y-84926190D01*
X102557598Y-84864285D01*
X102594502Y-84740476D01*
X102615931Y-84492857D01*
X102577241Y-84183333D01*
X102493907Y-83935714D01*
X102426050Y-83811904D01*
X102365931Y-83750000D01*
X102253431Y-83688095D01*
X100621883Y-83626190D02*
X101773669Y-85297619D01*
X100470098Y-84926190D02*
X100320693Y-84988095D01*
X100058788Y-84988095D01*
X99946288Y-84926190D01*
X99886169Y-84864285D01*
X99818312Y-84740476D01*
X99802836Y-84616666D01*
X99839741Y-84492857D01*
X99884383Y-84430952D01*
X99981407Y-84369047D01*
X100183193Y-84307142D01*
X100280217Y-84245238D01*
X100324860Y-84183333D01*
X100361764Y-84059523D01*
X100346288Y-83935714D01*
X100278431Y-83811904D01*
X100218312Y-83750000D01*
X100105812Y-83688095D01*
X99843907Y-83688095D01*
X99694502Y-83750000D01*
X99377836Y-84988095D02*
X99215336Y-83688095D01*
X98796288Y-83688095D01*
X98699264Y-83750000D01*
X98654622Y-83811904D01*
X98617717Y-83935714D01*
X98640931Y-84121428D01*
X98708788Y-84245238D01*
X98768907Y-84307142D01*
X98881407Y-84369047D01*
X99300455Y-84369047D01*
X98555217Y-85111904D02*
X97717122Y-85111904D01*
X97439741Y-84988095D02*
X97277241Y-83688095D01*
X97015336Y-83688095D01*
X96865931Y-83750000D01*
X96776645Y-83873809D01*
X96739741Y-83997619D01*
X96718312Y-84245238D01*
X96741526Y-84430952D01*
X96824860Y-84678571D01*
X96892717Y-84802380D01*
X97012955Y-84926190D01*
X97177836Y-84988095D01*
X97439741Y-84988095D01*
X96254622Y-84307142D02*
X95887955Y-84307142D01*
X95815931Y-84988095D02*
X96339741Y-84988095D01*
X96177241Y-83688095D01*
X95653431Y-83688095D01*
X95339145Y-83688095D02*
X95134979Y-84988095D01*
X94605812Y-83688095D01*
X94401645Y-84988095D02*
X94239145Y-83688095D01*
X93773074Y-84988095D02*
X94151645Y-84245238D01*
X93610574Y-83688095D02*
X94332002Y-84430952D01*
X93301645Y-84988095D02*
X93139145Y-83688095D01*
X92772479Y-83688095D02*
X92143907Y-83688095D01*
X92620693Y-84988095D02*
X92458193Y-83688095D01*
X92217122Y-85111904D02*
X91379026Y-85111904D01*
X91043907Y-83688095D02*
X90310574Y-83688095D01*
X91206407Y-84988095D01*
X90473074Y-84988095D01*
X89767122Y-84369047D02*
X89844502Y-84988095D01*
X90048669Y-83688095D02*
X89767122Y-84369047D01*
X89315336Y-83688095D01*
X89111169Y-84988095D02*
X88948669Y-83688095D01*
X88482598Y-84988095D01*
X88320098Y-83688095D01*
X87240931Y-85111904D02*
X87337955Y-85050000D01*
X87427241Y-84926190D01*
X87561169Y-84740476D01*
X87658193Y-84678571D01*
X87762955Y-84678571D01*
X87749264Y-84988095D02*
X87846288Y-84926190D01*
X87935574Y-84802380D01*
X87957002Y-84554761D01*
X87902836Y-84121428D01*
X87819502Y-83873809D01*
X87699264Y-83750000D01*
X87586764Y-83688095D01*
X87377241Y-83688095D01*
X87280217Y-83750000D01*
X87190931Y-83873809D01*
X87169502Y-84121428D01*
X87223669Y-84554761D01*
X87307002Y-84802380D01*
X87427241Y-84926190D01*
X87539741Y-84988095D01*
X87749264Y-84988095D01*
X86748669Y-83688095D02*
X86015336Y-83688095D01*
X86649264Y-84988095D01*
X85386764Y-83688095D02*
X85282002Y-83688095D01*
X85184979Y-83750000D01*
X85140336Y-83811904D01*
X85103431Y-83935714D01*
X85082002Y-84183333D01*
X85120693Y-84492857D01*
X85204026Y-84740476D01*
X85271883Y-84864285D01*
X85332002Y-84926190D01*
X85444502Y-84988095D01*
X85549264Y-84988095D01*
X85646288Y-84926190D01*
X85690931Y-84864285D01*
X85727836Y-84740476D01*
X85749264Y-84492857D01*
X85710574Y-84183333D01*
X85627241Y-83935714D01*
X85559383Y-83811904D01*
X85499264Y-83750000D01*
X85386764Y-83688095D01*
X84134979Y-84988095D02*
X84763550Y-84988095D01*
X84449264Y-84988095D02*
X84286764Y-83688095D01*
X84414741Y-83873809D01*
X84534979Y-83997619D01*
X84647479Y-84059523D01*
X83291526Y-83688095D02*
X83186764Y-83688095D01*
X83089741Y-83750000D01*
X83045098Y-83811904D01*
X83008193Y-83935714D01*
X82986764Y-84183333D01*
X83025455Y-84492857D01*
X83108788Y-84740476D01*
X83176645Y-84864285D01*
X83236764Y-84926190D01*
X83349264Y-84988095D01*
X83454026Y-84988095D01*
X83551050Y-84926190D01*
X83595693Y-84864285D01*
X83632598Y-84740476D01*
X83654026Y-84492857D01*
X83615336Y-84183333D01*
X83532002Y-83935714D01*
X83464145Y-83811904D01*
X83404026Y-83750000D01*
X83291526Y-83688095D01*
X82554026Y-84492857D02*
X81715931Y-84492857D01*
X81159383Y-83811904D02*
X81099264Y-83750000D01*
X80986764Y-83688095D01*
X80724860Y-83688095D01*
X80627836Y-83750000D01*
X80583193Y-83811904D01*
X80546288Y-83935714D01*
X80561764Y-84059523D01*
X80637360Y-84245238D01*
X81358788Y-84988095D01*
X80677836Y-84988095D01*
X79834383Y-83688095D02*
X79729622Y-83688095D01*
X79632598Y-83750000D01*
X79587955Y-83811904D01*
X79551050Y-83935714D01*
X79529622Y-84183333D01*
X79568312Y-84492857D01*
X79651645Y-84740476D01*
X79719502Y-84864285D01*
X79779622Y-84926190D01*
X79892122Y-84988095D01*
X79996883Y-84988095D01*
X80093907Y-84926190D01*
X80138550Y-84864285D01*
X80175455Y-84740476D01*
X80196883Y-84492857D01*
X80158193Y-84183333D01*
X80074860Y-83935714D01*
X80007002Y-83811904D01*
X79946883Y-83750000D01*
X79834383Y-83688095D01*
D12*
X103745238Y-73023809D02*
X103030952Y-73261904D01*
X101840476Y-73261904D01*
X101364285Y-73023809D01*
X101126190Y-72785714D01*
X100888095Y-72309523D01*
X100888095Y-71833333D01*
X101126190Y-71357142D01*
X101364285Y-71119047D01*
X101840476Y-70880952D01*
X102792857Y-70642857D01*
X103269047Y-70404761D01*
X103507142Y-70166666D01*
X103745238Y-69690476D01*
X103745238Y-69214285D01*
X103507142Y-68738095D01*
X103269047Y-68500000D01*
X102792857Y-68261904D01*
X101602380Y-68261904D01*
X100888095Y-68500000D01*
X98745238Y-73261904D02*
X98745238Y-68261904D01*
X96840476Y-68261904D01*
X96364285Y-68500000D01*
X96126190Y-68738095D01*
X95888095Y-69214285D01*
X95888095Y-69928571D01*
X96126190Y-70404761D01*
X96364285Y-70642857D01*
X96840476Y-70880952D01*
X98745238Y-70880952D01*
X90888095Y-73261904D02*
X92554761Y-70880952D01*
X93745238Y-73261904D02*
X93745238Y-68261904D01*
X91840476Y-68261904D01*
X91364285Y-68500000D01*
X91126190Y-68738095D01*
X90888095Y-69214285D01*
X90888095Y-69928571D01*
X91126190Y-70404761D01*
X91364285Y-70642857D01*
X91840476Y-70880952D01*
X93745238Y-70880952D01*
X88983333Y-71833333D02*
X86602380Y-71833333D01*
X89459523Y-73261904D02*
X87792857Y-68261904D01*
X86126190Y-73261904D01*
X83507142Y-70880952D02*
X83507142Y-73261904D01*
X85173809Y-68261904D02*
X83507142Y-70880952D01*
X81840476Y-68261904D01*
X79221428Y-68261904D02*
X78745238Y-68261904D01*
X78269047Y-68500000D01*
X78030952Y-68738095D01*
X77792857Y-69214285D01*
X77554761Y-70166666D01*
X77554761Y-71357142D01*
X77792857Y-72309523D01*
X78030952Y-72785714D01*
X78269047Y-73023809D01*
X78745238Y-73261904D01*
X79221428Y-73261904D01*
X79697619Y-73023809D01*
X79935714Y-72785714D01*
X80173809Y-72309523D01*
X80411904Y-71357142D01*
X80411904Y-70166666D01*
X80173809Y-69214285D01*
X79935714Y-68738095D01*
X79697619Y-68500000D01*
X79221428Y-68261904D01*
D10*
X144913154Y-54254761D02*
X143579821Y-54254761D01*
X145163154Y-56254761D01*
X143829821Y-56254761D01*
X142567916Y-55302380D02*
X142686964Y-56254761D01*
X143103630Y-54254761D02*
X142567916Y-55302380D01*
X141770297Y-54254761D01*
X141353630Y-56254761D02*
X141103630Y-54254761D01*
X140210773Y-56254761D01*
X139960773Y-54254761D01*
X137948869Y-56445238D02*
X138127440Y-56350000D01*
X138294107Y-56159523D01*
X138544107Y-55873809D01*
X138722678Y-55778571D01*
X138913154Y-55778571D01*
X138877440Y-56254761D02*
X139056011Y-56159523D01*
X139222678Y-55969047D01*
X139270297Y-55588095D01*
X139186964Y-54921428D01*
X139044107Y-54540476D01*
X138829821Y-54350000D01*
X138627440Y-54254761D01*
X138246488Y-54254761D01*
X138067916Y-54350000D01*
X137901250Y-54540476D01*
X137853630Y-54921428D01*
X137936964Y-55588095D01*
X138079821Y-55969047D01*
X138294107Y-56159523D01*
X138496488Y-56254761D01*
X138877440Y-56254761D01*
X137663154Y-56445238D02*
X136139345Y-56445238D01*
X135639345Y-56254761D02*
X135389345Y-54254761D01*
X134901250Y-55683333D01*
X134056011Y-54254761D01*
X134306011Y-56254761D01*
X133353630Y-56254761D02*
X133103630Y-54254761D01*
X132401250Y-56254761D02*
X132151250Y-54254761D01*
X131258392Y-56254761D01*
X131008392Y-54254761D01*
X130306011Y-56254761D02*
X130056011Y-54254761D01*
X128556011Y-55207142D02*
X128282202Y-55302380D01*
X128198869Y-55397619D01*
X128127440Y-55588095D01*
X128163154Y-55873809D01*
X128282202Y-56064285D01*
X128389345Y-56159523D01*
X128591726Y-56254761D01*
X129353630Y-56254761D01*
X129103630Y-54254761D01*
X128436964Y-54254761D01*
X128258392Y-54350000D01*
X128175059Y-54445238D01*
X128103630Y-54635714D01*
X128127440Y-54826190D01*
X128246488Y-55016666D01*
X128353630Y-55111904D01*
X128556011Y-55207142D01*
X129222678Y-55207142D01*
X126210773Y-56254761D02*
X126758392Y-55302380D01*
X127353630Y-56254761D02*
X127103630Y-54254761D01*
X126341726Y-54254761D01*
X126163154Y-54350000D01*
X126079821Y-54445238D01*
X126008392Y-54635714D01*
X126044107Y-54921428D01*
X126163154Y-55111904D01*
X126270297Y-55207142D01*
X126472678Y-55302380D01*
X127234583Y-55302380D01*
X125353630Y-56254761D02*
X125103630Y-54254761D01*
X124627440Y-54254761D01*
X124353630Y-54350000D01*
X124186964Y-54540476D01*
X124115535Y-54730952D01*
X124067916Y-55111904D01*
X124103630Y-55397619D01*
X124246488Y-55778571D01*
X124365535Y-55969047D01*
X124579821Y-56159523D01*
X124877440Y-56254761D01*
X125353630Y-56254761D01*
X121865535Y-54254761D02*
X121448869Y-56254761D01*
X120532202Y-54254761D01*
X119067916Y-56254761D02*
X120210773Y-56254761D01*
X119639345Y-56254761D02*
X119389345Y-54254761D01*
X119615535Y-54540476D01*
X119829821Y-54730952D01*
X120032202Y-54826190D01*
X118186964Y-56064285D02*
X118103630Y-56159523D01*
X118210773Y-56254761D01*
X118294107Y-56159523D01*
X118186964Y-56064285D01*
X118210773Y-56254761D01*
X117127440Y-54445238D02*
X117020297Y-54350000D01*
X116817916Y-54254761D01*
X116341726Y-54254761D01*
X116163154Y-54350000D01*
X116079821Y-54445238D01*
X116008392Y-54635714D01*
X116032202Y-54826190D01*
X116163154Y-55111904D01*
X117448869Y-56254761D01*
X116210773Y-56254761D01*
X147171428Y-114342857D02*
X145957142Y-114342857D01*
X145814285Y-114271428D01*
X145742857Y-114200000D01*
X145671428Y-114057142D01*
X145671428Y-113771428D01*
X145742857Y-113628571D01*
X145814285Y-113557142D01*
X145957142Y-113485714D01*
X147171428Y-113485714D01*
X146100000Y-112842857D02*
X146100000Y-112128571D01*
X145671428Y-112985714D02*
X147171428Y-112485714D01*
X145671428Y-111985714D01*
X145671428Y-110628571D02*
X146385714Y-111128571D01*
X145671428Y-111485714D02*
X147171428Y-111485714D01*
X147171428Y-110914285D01*
X147100000Y-110771428D01*
X147028571Y-110700000D01*
X146885714Y-110628571D01*
X146671428Y-110628571D01*
X146528571Y-110700000D01*
X146457142Y-110771428D01*
X146385714Y-110914285D01*
X146385714Y-111485714D01*
X147171428Y-110200000D02*
X147171428Y-109342857D01*
X145671428Y-109771428D02*
X147171428Y-109771428D01*
X138192857Y-33428571D02*
X138192857Y-34642857D01*
X138121428Y-34785714D01*
X138050000Y-34857142D01*
X137907142Y-34928571D01*
X137621428Y-34928571D01*
X137478571Y-34857142D01*
X137407142Y-34785714D01*
X137335714Y-34642857D01*
X137335714Y-33428571D01*
X136692857Y-34857142D02*
X136478571Y-34928571D01*
X136121428Y-34928571D01*
X135978571Y-34857142D01*
X135907142Y-34785714D01*
X135835714Y-34642857D01*
X135835714Y-34500000D01*
X135907142Y-34357142D01*
X135978571Y-34285714D01*
X136121428Y-34214285D01*
X136407142Y-34142857D01*
X136550000Y-34071428D01*
X136621428Y-34000000D01*
X136692857Y-33857142D01*
X136692857Y-33714285D01*
X136621428Y-33571428D01*
X136550000Y-33500000D01*
X136407142Y-33428571D01*
X136050000Y-33428571D01*
X135835714Y-33500000D01*
X134692857Y-34142857D02*
X134478571Y-34214285D01*
X134407142Y-34285714D01*
X134335714Y-34428571D01*
X134335714Y-34642857D01*
X134407142Y-34785714D01*
X134478571Y-34857142D01*
X134621428Y-34928571D01*
X135192857Y-34928571D01*
X135192857Y-33428571D01*
X134692857Y-33428571D01*
X134550000Y-33500000D01*
X134478571Y-33571428D01*
X134407142Y-33714285D01*
X134407142Y-33857142D01*
X134478571Y-34000000D01*
X134550000Y-34071428D01*
X134692857Y-34142857D01*
X135192857Y-34142857D01*
D11*
X96330222Y-102116666D02*
X96402794Y-102273809D01*
X96475365Y-102326190D01*
X96620508Y-102378571D01*
X96838222Y-102378571D01*
X96983365Y-102326190D01*
X97055937Y-102273809D01*
X97128508Y-102169047D01*
X97128508Y-101750000D01*
X95604508Y-101750000D01*
X95604508Y-102116666D01*
X95677080Y-102221428D01*
X95749651Y-102273809D01*
X95894794Y-102326190D01*
X96039937Y-102326190D01*
X96185080Y-102273809D01*
X96257651Y-102221428D01*
X96330222Y-102116666D01*
X96330222Y-101750000D01*
X95604508Y-102745238D02*
X95604508Y-103426190D01*
X96185080Y-103059523D01*
X96185080Y-103216666D01*
X96257651Y-103321428D01*
X96330222Y-103373809D01*
X96475365Y-103426190D01*
X96838222Y-103426190D01*
X96983365Y-103373809D01*
X97055937Y-103321428D01*
X97128508Y-103216666D01*
X97128508Y-102902380D01*
X97055937Y-102797619D01*
X96983365Y-102745238D01*
X96112508Y-104369047D02*
X97128508Y-104369047D01*
X95531937Y-104107142D02*
X96620508Y-103845238D01*
X96620508Y-104526190D01*
X97273651Y-104683333D02*
X97273651Y-105521428D01*
X97128508Y-106307142D02*
X97128508Y-105783333D01*
X95604508Y-105783333D01*
X95604508Y-106883333D02*
X95604508Y-106988095D01*
X95677080Y-107092857D01*
X95749651Y-107145238D01*
X95894794Y-107197619D01*
X96185080Y-107250000D01*
X96547937Y-107250000D01*
X96838222Y-107197619D01*
X96983365Y-107145238D01*
X97055937Y-107092857D01*
X97128508Y-106988095D01*
X97128508Y-106883333D01*
X97055937Y-106778571D01*
X96983365Y-106726190D01*
X96838222Y-106673809D01*
X96547937Y-106621428D01*
X96185080Y-106621428D01*
X95894794Y-106673809D01*
X95749651Y-106726190D01*
X95677080Y-106778571D01*
X95604508Y-106883333D01*
X97128508Y-108297619D02*
X97128508Y-107669047D01*
X97128508Y-107983333D02*
X95604508Y-107983333D01*
X95822222Y-107878571D01*
X95967365Y-107773809D01*
X96039937Y-107669047D01*
X97128508Y-108769047D02*
X95604508Y-108769047D01*
X95604508Y-109188095D01*
X95677080Y-109292857D01*
X95749651Y-109345238D01*
X95894794Y-109397619D01*
X96112508Y-109397619D01*
X96257651Y-109345238D01*
X96330222Y-109292857D01*
X96402794Y-109188095D01*
X96402794Y-108769047D01*
X95531937Y-110654761D02*
X97491365Y-109711904D01*
X97128508Y-111021428D02*
X95604508Y-111021428D01*
X97128508Y-111650000D01*
X95604508Y-111650000D01*
X98783862Y-102116666D02*
X98856434Y-102273809D01*
X98929005Y-102326190D01*
X99074148Y-102378571D01*
X99291862Y-102378571D01*
X99437005Y-102326190D01*
X99509577Y-102273809D01*
X99582148Y-102169047D01*
X99582148Y-101750000D01*
X98058148Y-101750000D01*
X98058148Y-102116666D01*
X98130720Y-102221428D01*
X98203291Y-102273809D01*
X98348434Y-102326190D01*
X98493577Y-102326190D01*
X98638720Y-102273809D01*
X98711291Y-102221428D01*
X98783862Y-102116666D01*
X98783862Y-101750000D01*
X98058148Y-102745238D02*
X98058148Y-103426190D01*
X98638720Y-103059523D01*
X98638720Y-103216666D01*
X98711291Y-103321428D01*
X98783862Y-103373809D01*
X98929005Y-103426190D01*
X99291862Y-103426190D01*
X99437005Y-103373809D01*
X99509577Y-103321428D01*
X99582148Y-103216666D01*
X99582148Y-102902380D01*
X99509577Y-102797619D01*
X99437005Y-102745238D01*
X98566148Y-104369047D02*
X99582148Y-104369047D01*
X97985577Y-104107142D02*
X99074148Y-103845238D01*
X99074148Y-104526190D01*
X99727291Y-104683333D02*
X99727291Y-105521428D01*
X99582148Y-106307142D02*
X99582148Y-105783333D01*
X98058148Y-105783333D01*
X98058148Y-106883333D02*
X98058148Y-106988095D01*
X98130720Y-107092857D01*
X98203291Y-107145238D01*
X98348434Y-107197619D01*
X98638720Y-107250000D01*
X99001577Y-107250000D01*
X99291862Y-107197619D01*
X99437005Y-107145238D01*
X99509577Y-107092857D01*
X99582148Y-106988095D01*
X99582148Y-106883333D01*
X99509577Y-106778571D01*
X99437005Y-106726190D01*
X99291862Y-106673809D01*
X99001577Y-106621428D01*
X98638720Y-106621428D01*
X98348434Y-106673809D01*
X98203291Y-106726190D01*
X98130720Y-106778571D01*
X98058148Y-106883333D01*
X98203291Y-107669047D02*
X98130720Y-107721428D01*
X98058148Y-107826190D01*
X98058148Y-108088095D01*
X98130720Y-108192857D01*
X98203291Y-108245238D01*
X98348434Y-108297619D01*
X98493577Y-108297619D01*
X98711291Y-108245238D01*
X99582148Y-107616666D01*
X99582148Y-108297619D01*
X99582148Y-108769047D02*
X98058148Y-108769047D01*
X98058148Y-109188095D01*
X98130720Y-109292857D01*
X98203291Y-109345238D01*
X98348434Y-109397619D01*
X98566148Y-109397619D01*
X98711291Y-109345238D01*
X98783862Y-109292857D01*
X98856434Y-109188095D01*
X98856434Y-108769047D01*
X97985577Y-110654761D02*
X99945005Y-109711904D01*
X99582148Y-111021428D02*
X98058148Y-111021428D01*
X99582148Y-111650000D01*
X98058148Y-111650000D01*
X101237502Y-102116666D02*
X101310074Y-102273809D01*
X101382645Y-102326190D01*
X101527788Y-102378571D01*
X101745502Y-102378571D01*
X101890645Y-102326190D01*
X101963217Y-102273809D01*
X102035788Y-102169047D01*
X102035788Y-101750000D01*
X100511788Y-101750000D01*
X100511788Y-102116666D01*
X100584360Y-102221428D01*
X100656931Y-102273809D01*
X100802074Y-102326190D01*
X100947217Y-102326190D01*
X101092360Y-102273809D01*
X101164931Y-102221428D01*
X101237502Y-102116666D01*
X101237502Y-101750000D01*
X100511788Y-102745238D02*
X100511788Y-103426190D01*
X101092360Y-103059523D01*
X101092360Y-103216666D01*
X101164931Y-103321428D01*
X101237502Y-103373809D01*
X101382645Y-103426190D01*
X101745502Y-103426190D01*
X101890645Y-103373809D01*
X101963217Y-103321428D01*
X102035788Y-103216666D01*
X102035788Y-102902380D01*
X101963217Y-102797619D01*
X101890645Y-102745238D01*
X101019788Y-104369047D02*
X102035788Y-104369047D01*
X100439217Y-104107142D02*
X101527788Y-103845238D01*
X101527788Y-104526190D01*
X102180931Y-104683333D02*
X102180931Y-105521428D01*
X102035788Y-106307142D02*
X102035788Y-105783333D01*
X100511788Y-105783333D01*
X100511788Y-106883333D02*
X100511788Y-106988095D01*
X100584360Y-107092857D01*
X100656931Y-107145238D01*
X100802074Y-107197619D01*
X101092360Y-107250000D01*
X101455217Y-107250000D01*
X101745502Y-107197619D01*
X101890645Y-107145238D01*
X101963217Y-107092857D01*
X102035788Y-106988095D01*
X102035788Y-106883333D01*
X101963217Y-106778571D01*
X101890645Y-106726190D01*
X101745502Y-106673809D01*
X101455217Y-106621428D01*
X101092360Y-106621428D01*
X100802074Y-106673809D01*
X100656931Y-106726190D01*
X100584360Y-106778571D01*
X100511788Y-106883333D01*
X102035788Y-107773809D02*
X102035788Y-107983333D01*
X101963217Y-108088095D01*
X101890645Y-108140476D01*
X101672931Y-108245238D01*
X101382645Y-108297619D01*
X100802074Y-108297619D01*
X100656931Y-108245238D01*
X100584360Y-108192857D01*
X100511788Y-108088095D01*
X100511788Y-107878571D01*
X100584360Y-107773809D01*
X100656931Y-107721428D01*
X100802074Y-107669047D01*
X101164931Y-107669047D01*
X101310074Y-107721428D01*
X101382645Y-107773809D01*
X101455217Y-107878571D01*
X101455217Y-108088095D01*
X101382645Y-108192857D01*
X101310074Y-108245238D01*
X101164931Y-108297619D01*
X102035788Y-108769047D02*
X100511788Y-108769047D01*
X100511788Y-109188095D01*
X100584360Y-109292857D01*
X100656931Y-109345238D01*
X100802074Y-109397619D01*
X101019788Y-109397619D01*
X101164931Y-109345238D01*
X101237502Y-109292857D01*
X101310074Y-109188095D01*
X101310074Y-108769047D01*
X100439217Y-110654761D02*
X102398645Y-109711904D01*
X102035788Y-111021428D02*
X100511788Y-111021428D01*
X102035788Y-111650000D01*
X100511788Y-111650000D01*
X103691142Y-102116666D02*
X103763714Y-102273809D01*
X103836285Y-102326190D01*
X103981428Y-102378571D01*
X104199142Y-102378571D01*
X104344285Y-102326190D01*
X104416857Y-102273809D01*
X104489428Y-102169047D01*
X104489428Y-101750000D01*
X102965428Y-101750000D01*
X102965428Y-102116666D01*
X103038000Y-102221428D01*
X103110571Y-102273809D01*
X103255714Y-102326190D01*
X103400857Y-102326190D01*
X103546000Y-102273809D01*
X103618571Y-102221428D01*
X103691142Y-102116666D01*
X103691142Y-101750000D01*
X102965428Y-102745238D02*
X102965428Y-103426190D01*
X103546000Y-103059523D01*
X103546000Y-103216666D01*
X103618571Y-103321428D01*
X103691142Y-103373809D01*
X103836285Y-103426190D01*
X104199142Y-103426190D01*
X104344285Y-103373809D01*
X104416857Y-103321428D01*
X104489428Y-103216666D01*
X104489428Y-102902380D01*
X104416857Y-102797619D01*
X104344285Y-102745238D01*
X103473428Y-104369047D02*
X104489428Y-104369047D01*
X102892857Y-104107142D02*
X103981428Y-103845238D01*
X103981428Y-104526190D01*
X104634571Y-104683333D02*
X104634571Y-105521428D01*
X104489428Y-106307142D02*
X104489428Y-105783333D01*
X102965428Y-105783333D01*
X102965428Y-106883333D02*
X102965428Y-106988095D01*
X103038000Y-107092857D01*
X103110571Y-107145238D01*
X103255714Y-107197619D01*
X103546000Y-107250000D01*
X103908857Y-107250000D01*
X104199142Y-107197619D01*
X104344285Y-107145238D01*
X104416857Y-107092857D01*
X104489428Y-106988095D01*
X104489428Y-106883333D01*
X104416857Y-106778571D01*
X104344285Y-106726190D01*
X104199142Y-106673809D01*
X103908857Y-106621428D01*
X103546000Y-106621428D01*
X103255714Y-106673809D01*
X103110571Y-106726190D01*
X103038000Y-106778571D01*
X102965428Y-106883333D01*
X103618571Y-107878571D02*
X103546000Y-107773809D01*
X103473428Y-107721428D01*
X103328285Y-107669047D01*
X103255714Y-107669047D01*
X103110571Y-107721428D01*
X103038000Y-107773809D01*
X102965428Y-107878571D01*
X102965428Y-108088095D01*
X103038000Y-108192857D01*
X103110571Y-108245238D01*
X103255714Y-108297619D01*
X103328285Y-108297619D01*
X103473428Y-108245238D01*
X103546000Y-108192857D01*
X103618571Y-108088095D01*
X103618571Y-107878571D01*
X103691142Y-107773809D01*
X103763714Y-107721428D01*
X103908857Y-107669047D01*
X104199142Y-107669047D01*
X104344285Y-107721428D01*
X104416857Y-107773809D01*
X104489428Y-107878571D01*
X104489428Y-108088095D01*
X104416857Y-108192857D01*
X104344285Y-108245238D01*
X104199142Y-108297619D01*
X103908857Y-108297619D01*
X103763714Y-108245238D01*
X103691142Y-108192857D01*
X103618571Y-108088095D01*
X104489428Y-108769047D02*
X102965428Y-108769047D01*
X102965428Y-109188095D01*
X103038000Y-109292857D01*
X103110571Y-109345238D01*
X103255714Y-109397619D01*
X103473428Y-109397619D01*
X103618571Y-109345238D01*
X103691142Y-109292857D01*
X103763714Y-109188095D01*
X103763714Y-108769047D01*
X102892857Y-110654761D02*
X104852285Y-109711904D01*
X104489428Y-111021428D02*
X102965428Y-111021428D01*
X104489428Y-111650000D01*
X102965428Y-111650000D01*
X106144782Y-102116666D02*
X106217354Y-102273809D01*
X106289925Y-102326190D01*
X106435068Y-102378571D01*
X106652782Y-102378571D01*
X106797925Y-102326190D01*
X106870497Y-102273809D01*
X106943068Y-102169047D01*
X106943068Y-101750000D01*
X105419068Y-101750000D01*
X105419068Y-102116666D01*
X105491640Y-102221428D01*
X105564211Y-102273809D01*
X105709354Y-102326190D01*
X105854497Y-102326190D01*
X105999640Y-102273809D01*
X106072211Y-102221428D01*
X106144782Y-102116666D01*
X106144782Y-101750000D01*
X105419068Y-102745238D02*
X105419068Y-103426190D01*
X105999640Y-103059523D01*
X105999640Y-103216666D01*
X106072211Y-103321428D01*
X106144782Y-103373809D01*
X106289925Y-103426190D01*
X106652782Y-103426190D01*
X106797925Y-103373809D01*
X106870497Y-103321428D01*
X106943068Y-103216666D01*
X106943068Y-102902380D01*
X106870497Y-102797619D01*
X106797925Y-102745238D01*
X105927068Y-104369047D02*
X106943068Y-104369047D01*
X105346497Y-104107142D02*
X106435068Y-103845238D01*
X106435068Y-104526190D01*
X107088211Y-104683333D02*
X107088211Y-105521428D01*
X106943068Y-106307142D02*
X106943068Y-105783333D01*
X105419068Y-105783333D01*
X106943068Y-107250000D02*
X106943068Y-106621428D01*
X106943068Y-106935714D02*
X105419068Y-106935714D01*
X105636782Y-106830952D01*
X105781925Y-106726190D01*
X105854497Y-106621428D01*
X105419068Y-107930952D02*
X105419068Y-108035714D01*
X105491640Y-108140476D01*
X105564211Y-108192857D01*
X105709354Y-108245238D01*
X105999640Y-108297619D01*
X106362497Y-108297619D01*
X106652782Y-108245238D01*
X106797925Y-108192857D01*
X106870497Y-108140476D01*
X106943068Y-108035714D01*
X106943068Y-107930952D01*
X106870497Y-107826190D01*
X106797925Y-107773809D01*
X106652782Y-107721428D01*
X106362497Y-107669047D01*
X105999640Y-107669047D01*
X105709354Y-107721428D01*
X105564211Y-107773809D01*
X105491640Y-107826190D01*
X105419068Y-107930952D01*
X106943068Y-108769047D02*
X105419068Y-108769047D01*
X105419068Y-109188095D01*
X105491640Y-109292857D01*
X105564211Y-109345238D01*
X105709354Y-109397619D01*
X105927068Y-109397619D01*
X106072211Y-109345238D01*
X106144782Y-109292857D01*
X106217354Y-109188095D01*
X106217354Y-108769047D01*
X105346497Y-110654761D02*
X107305925Y-109711904D01*
X106943068Y-111021428D02*
X105419068Y-111021428D01*
X106943068Y-111650000D01*
X105419068Y-111650000D01*
X108598422Y-102116666D02*
X108670994Y-102273809D01*
X108743565Y-102326190D01*
X108888708Y-102378571D01*
X109106422Y-102378571D01*
X109251565Y-102326190D01*
X109324137Y-102273809D01*
X109396708Y-102169047D01*
X109396708Y-101750000D01*
X107872708Y-101750000D01*
X107872708Y-102116666D01*
X107945280Y-102221428D01*
X108017851Y-102273809D01*
X108162994Y-102326190D01*
X108308137Y-102326190D01*
X108453280Y-102273809D01*
X108525851Y-102221428D01*
X108598422Y-102116666D01*
X108598422Y-101750000D01*
X107872708Y-102745238D02*
X107872708Y-103426190D01*
X108453280Y-103059523D01*
X108453280Y-103216666D01*
X108525851Y-103321428D01*
X108598422Y-103373809D01*
X108743565Y-103426190D01*
X109106422Y-103426190D01*
X109251565Y-103373809D01*
X109324137Y-103321428D01*
X109396708Y-103216666D01*
X109396708Y-102902380D01*
X109324137Y-102797619D01*
X109251565Y-102745238D01*
X108380708Y-104369047D02*
X109396708Y-104369047D01*
X107800137Y-104107142D02*
X108888708Y-103845238D01*
X108888708Y-104526190D01*
X109541851Y-104683333D02*
X109541851Y-105521428D01*
X109396708Y-106307142D02*
X109396708Y-105783333D01*
X107872708Y-105783333D01*
X107872708Y-106883333D02*
X107872708Y-106988095D01*
X107945280Y-107092857D01*
X108017851Y-107145238D01*
X108162994Y-107197619D01*
X108453280Y-107250000D01*
X108816137Y-107250000D01*
X109106422Y-107197619D01*
X109251565Y-107145238D01*
X109324137Y-107092857D01*
X109396708Y-106988095D01*
X109396708Y-106883333D01*
X109324137Y-106778571D01*
X109251565Y-106726190D01*
X109106422Y-106673809D01*
X108816137Y-106621428D01*
X108453280Y-106621428D01*
X108162994Y-106673809D01*
X108017851Y-106726190D01*
X107945280Y-106778571D01*
X107872708Y-106883333D01*
X107872708Y-107616666D02*
X107872708Y-108350000D01*
X109396708Y-107878571D01*
X109396708Y-108769047D02*
X107872708Y-108769047D01*
X107872708Y-109188095D01*
X107945280Y-109292857D01*
X108017851Y-109345238D01*
X108162994Y-109397619D01*
X108380708Y-109397619D01*
X108525851Y-109345238D01*
X108598422Y-109292857D01*
X108670994Y-109188095D01*
X108670994Y-108769047D01*
X107800137Y-110654761D02*
X109759565Y-109711904D01*
X109396708Y-111021428D02*
X107872708Y-111021428D01*
X109396708Y-111650000D01*
X107872708Y-111650000D01*
X110398920Y-103347619D02*
X110326348Y-103242857D01*
X110326348Y-103085714D01*
X110398920Y-102928571D01*
X110544062Y-102823809D01*
X110689205Y-102771428D01*
X110979491Y-102719047D01*
X111197205Y-102719047D01*
X111487491Y-102771428D01*
X111632634Y-102823809D01*
X111777777Y-102928571D01*
X111850348Y-103085714D01*
X111850348Y-103190476D01*
X111777777Y-103347619D01*
X111705205Y-103400000D01*
X111197205Y-103400000D01*
X111197205Y-103190476D01*
X111850348Y-103871428D02*
X110326348Y-103871428D01*
X111850348Y-104500000D01*
X110326348Y-104500000D01*
X111850348Y-105023809D02*
X110326348Y-105023809D01*
X110326348Y-105285714D01*
X110398920Y-105442857D01*
X110544062Y-105547619D01*
X110689205Y-105600000D01*
X110979491Y-105652380D01*
X111197205Y-105652380D01*
X111487491Y-105600000D01*
X111632634Y-105547619D01*
X111777777Y-105442857D01*
X111850348Y-105285714D01*
X111850348Y-105023809D01*
X110398920Y-108376190D02*
X110326348Y-108271428D01*
X110326348Y-108114285D01*
X110398920Y-107957142D01*
X110544062Y-107852380D01*
X110689205Y-107800000D01*
X110979491Y-107747619D01*
X111197205Y-107747619D01*
X111487491Y-107800000D01*
X111632634Y-107852380D01*
X111777777Y-107957142D01*
X111850348Y-108114285D01*
X111850348Y-108219047D01*
X111777777Y-108376190D01*
X111705205Y-108428571D01*
X111197205Y-108428571D01*
X111197205Y-108219047D01*
X111850348Y-108900000D02*
X110326348Y-108900000D01*
X111850348Y-109528571D01*
X110326348Y-109528571D01*
X111850348Y-110052380D02*
X110326348Y-110052380D01*
X110326348Y-110314285D01*
X110398920Y-110471428D01*
X110544062Y-110576190D01*
X110689205Y-110628571D01*
X110979491Y-110680952D01*
X111197205Y-110680952D01*
X111487491Y-110628571D01*
X111632634Y-110576190D01*
X111777777Y-110471428D01*
X111850348Y-110314285D01*
X111850348Y-110052380D01*
D10*
X146921428Y-68642857D02*
X145707142Y-68642857D01*
X145564285Y-68571428D01*
X145492857Y-68500000D01*
X145421428Y-68357142D01*
X145421428Y-68071428D01*
X145492857Y-67928571D01*
X145564285Y-67857142D01*
X145707142Y-67785714D01*
X146921428Y-67785714D01*
X145492857Y-67142857D02*
X145421428Y-66928571D01*
X145421428Y-66571428D01*
X145492857Y-66428571D01*
X145564285Y-66357142D01*
X145707142Y-66285714D01*
X145850000Y-66285714D01*
X145992857Y-66357142D01*
X146064285Y-66428571D01*
X146135714Y-66571428D01*
X146207142Y-66857142D01*
X146278571Y-67000000D01*
X146350000Y-67071428D01*
X146492857Y-67142857D01*
X146635714Y-67142857D01*
X146778571Y-67071428D01*
X146850000Y-67000000D01*
X146921428Y-66857142D01*
X146921428Y-66500000D01*
X146850000Y-66285714D01*
X146207142Y-65142857D02*
X146135714Y-64928571D01*
X146064285Y-64857142D01*
X145921428Y-64785714D01*
X145707142Y-64785714D01*
X145564285Y-64857142D01*
X145492857Y-64928571D01*
X145421428Y-65071428D01*
X145421428Y-65642857D01*
X146921428Y-65642857D01*
X146921428Y-65142857D01*
X146850000Y-65000000D01*
X146778571Y-64928571D01*
X146635714Y-64857142D01*
X146492857Y-64857142D01*
X146350000Y-64928571D01*
X146278571Y-65000000D01*
X146207142Y-65142857D01*
X146207142Y-65642857D01*
X85600000Y-33028571D02*
X85600000Y-34100000D01*
X85671428Y-34314285D01*
X85814285Y-34457142D01*
X86028571Y-34528571D01*
X86171428Y-34528571D01*
X85100000Y-33028571D02*
X84242857Y-33028571D01*
X84671428Y-34528571D02*
X84671428Y-33028571D01*
X83814285Y-34100000D02*
X83100000Y-34100000D01*
X83957142Y-34528571D02*
X83457142Y-33028571D01*
X82957142Y-34528571D01*
X81671428Y-33100000D02*
X81814285Y-33028571D01*
X82028571Y-33028571D01*
X82242857Y-33100000D01*
X82385714Y-33242857D01*
X82457142Y-33385714D01*
X82528571Y-33671428D01*
X82528571Y-33885714D01*
X82457142Y-34171428D01*
X82385714Y-34314285D01*
X82242857Y-34457142D01*
X82028571Y-34528571D01*
X81885714Y-34528571D01*
X81671428Y-34457142D01*
X81600000Y-34385714D01*
X81600000Y-33885714D01*
X81885714Y-33885714D01*
X145592857Y-99028571D02*
X145521428Y-98814285D01*
X145521428Y-98457142D01*
X145592857Y-98314285D01*
X145664285Y-98242857D01*
X145807142Y-98171428D01*
X145950000Y-98171428D01*
X146092857Y-98242857D01*
X146164285Y-98314285D01*
X146235714Y-98457142D01*
X146307142Y-98742857D01*
X146378571Y-98885714D01*
X146450000Y-98957142D01*
X146592857Y-99028571D01*
X146735714Y-99028571D01*
X146878571Y-98957142D01*
X146950000Y-98885714D01*
X147021428Y-98742857D01*
X147021428Y-98385714D01*
X146950000Y-98171428D01*
X145521428Y-97528571D02*
X147021428Y-97528571D01*
X147021428Y-97171428D01*
X146950000Y-96957142D01*
X146807142Y-96814285D01*
X146664285Y-96742857D01*
X146378571Y-96671428D01*
X146164285Y-96671428D01*
X145878571Y-96742857D01*
X145735714Y-96814285D01*
X145592857Y-96957142D01*
X145521428Y-97171428D01*
X145521428Y-97528571D01*
D11*
X75677688Y-103557142D02*
X75677688Y-103033333D01*
X76403402Y-102980952D01*
X76330831Y-103033333D01*
X76258260Y-103138095D01*
X76258260Y-103400000D01*
X76330831Y-103504761D01*
X76403402Y-103557142D01*
X76548545Y-103609523D01*
X76911402Y-103609523D01*
X77056545Y-103557142D01*
X77129117Y-103504761D01*
X77201688Y-103400000D01*
X77201688Y-103138095D01*
X77129117Y-103033333D01*
X77056545Y-102980952D01*
X75677688Y-103923809D02*
X77201688Y-104290476D01*
X75677688Y-104657142D01*
X77201688Y-105023809D02*
X75677688Y-105023809D01*
X75677688Y-105285714D01*
X75750260Y-105442857D01*
X75895402Y-105547619D01*
X76040545Y-105600000D01*
X76330831Y-105652380D01*
X76548545Y-105652380D01*
X76838831Y-105600000D01*
X76983974Y-105547619D01*
X77129117Y-105442857D01*
X77201688Y-105285714D01*
X77201688Y-105023809D01*
X75677688Y-108323809D02*
X75677688Y-107800000D01*
X76403402Y-107747619D01*
X76330831Y-107800000D01*
X76258260Y-107904761D01*
X76258260Y-108166666D01*
X76330831Y-108271428D01*
X76403402Y-108323809D01*
X76548545Y-108376190D01*
X76911402Y-108376190D01*
X77056545Y-108323809D01*
X77129117Y-108271428D01*
X77201688Y-108166666D01*
X77201688Y-107904761D01*
X77129117Y-107800000D01*
X77056545Y-107747619D01*
X75677688Y-108690476D02*
X77201688Y-109057142D01*
X75677688Y-109423809D01*
X77201688Y-109790476D02*
X75677688Y-109790476D01*
X75677688Y-110052380D01*
X75750260Y-110209523D01*
X75895402Y-110314285D01*
X76040545Y-110366666D01*
X76330831Y-110419047D01*
X76548545Y-110419047D01*
X76838831Y-110366666D01*
X76983974Y-110314285D01*
X77129117Y-110209523D01*
X77201688Y-110052380D01*
X77201688Y-109790476D01*
X78857042Y-102116666D02*
X78929614Y-102273809D01*
X79002185Y-102326190D01*
X79147328Y-102378571D01*
X79365042Y-102378571D01*
X79510185Y-102326190D01*
X79582757Y-102273809D01*
X79655328Y-102169047D01*
X79655328Y-101750000D01*
X78131328Y-101750000D01*
X78131328Y-102116666D01*
X78203900Y-102221428D01*
X78276471Y-102273809D01*
X78421614Y-102326190D01*
X78566757Y-102326190D01*
X78711900Y-102273809D01*
X78784471Y-102221428D01*
X78857042Y-102116666D01*
X78857042Y-101750000D01*
X79655328Y-103426190D02*
X79655328Y-102797619D01*
X79655328Y-103111904D02*
X78131328Y-103111904D01*
X78349042Y-103007142D01*
X78494185Y-102902380D01*
X78566757Y-102797619D01*
X78131328Y-103792857D02*
X78131328Y-104473809D01*
X78711900Y-104107142D01*
X78711900Y-104264285D01*
X78784471Y-104369047D01*
X78857042Y-104421428D01*
X79002185Y-104473809D01*
X79365042Y-104473809D01*
X79510185Y-104421428D01*
X79582757Y-104369047D01*
X79655328Y-104264285D01*
X79655328Y-103950000D01*
X79582757Y-103845238D01*
X79510185Y-103792857D01*
X79800471Y-104683333D02*
X79800471Y-105521428D01*
X79655328Y-106307142D02*
X79655328Y-105783333D01*
X78131328Y-105783333D01*
X79655328Y-107250000D02*
X79655328Y-106621428D01*
X79655328Y-106935714D02*
X78131328Y-106935714D01*
X78349042Y-106830952D01*
X78494185Y-106726190D01*
X78566757Y-106621428D01*
X78131328Y-107616666D02*
X78131328Y-108297619D01*
X78711900Y-107930952D01*
X78711900Y-108088095D01*
X78784471Y-108192857D01*
X78857042Y-108245238D01*
X79002185Y-108297619D01*
X79365042Y-108297619D01*
X79510185Y-108245238D01*
X79582757Y-108192857D01*
X79655328Y-108088095D01*
X79655328Y-107773809D01*
X79582757Y-107669047D01*
X79510185Y-107616666D01*
X79655328Y-108769047D02*
X78131328Y-108769047D01*
X78131328Y-109188095D01*
X78203900Y-109292857D01*
X78276471Y-109345238D01*
X78421614Y-109397619D01*
X78639328Y-109397619D01*
X78784471Y-109345238D01*
X78857042Y-109292857D01*
X78929614Y-109188095D01*
X78929614Y-108769047D01*
X78058757Y-110654761D02*
X80018185Y-109711904D01*
X79655328Y-111021428D02*
X78131328Y-111021428D01*
X79655328Y-111650000D01*
X78131328Y-111650000D01*
X81310682Y-102116666D02*
X81383254Y-102273809D01*
X81455825Y-102326190D01*
X81600968Y-102378571D01*
X81818682Y-102378571D01*
X81963825Y-102326190D01*
X82036397Y-102273809D01*
X82108968Y-102169047D01*
X82108968Y-101750000D01*
X80584968Y-101750000D01*
X80584968Y-102116666D01*
X80657540Y-102221428D01*
X80730111Y-102273809D01*
X80875254Y-102326190D01*
X81020397Y-102326190D01*
X81165540Y-102273809D01*
X81238111Y-102221428D01*
X81310682Y-102116666D01*
X81310682Y-101750000D01*
X82108968Y-103426190D02*
X82108968Y-102797619D01*
X82108968Y-103111904D02*
X80584968Y-103111904D01*
X80802682Y-103007142D01*
X80947825Y-102902380D01*
X81020397Y-102797619D01*
X80584968Y-103792857D02*
X80584968Y-104473809D01*
X81165540Y-104107142D01*
X81165540Y-104264285D01*
X81238111Y-104369047D01*
X81310682Y-104421428D01*
X81455825Y-104473809D01*
X81818682Y-104473809D01*
X81963825Y-104421428D01*
X82036397Y-104369047D01*
X82108968Y-104264285D01*
X82108968Y-103950000D01*
X82036397Y-103845238D01*
X81963825Y-103792857D01*
X82254111Y-104683333D02*
X82254111Y-105521428D01*
X82108968Y-106307142D02*
X82108968Y-105783333D01*
X80584968Y-105783333D01*
X82108968Y-107250000D02*
X82108968Y-106621428D01*
X82108968Y-106935714D02*
X80584968Y-106935714D01*
X80802682Y-106830952D01*
X80947825Y-106726190D01*
X81020397Y-106621428D01*
X81092968Y-108192857D02*
X82108968Y-108192857D01*
X80512397Y-107930952D02*
X81600968Y-107669047D01*
X81600968Y-108350000D01*
X82108968Y-108769047D02*
X80584968Y-108769047D01*
X80584968Y-109188095D01*
X80657540Y-109292857D01*
X80730111Y-109345238D01*
X80875254Y-109397619D01*
X81092968Y-109397619D01*
X81238111Y-109345238D01*
X81310682Y-109292857D01*
X81383254Y-109188095D01*
X81383254Y-108769047D01*
X80512397Y-110654761D02*
X82471825Y-109711904D01*
X82108968Y-111021428D02*
X80584968Y-111021428D01*
X82108968Y-111650000D01*
X80584968Y-111650000D01*
X83764322Y-102116666D02*
X83836894Y-102273809D01*
X83909465Y-102326190D01*
X84054608Y-102378571D01*
X84272322Y-102378571D01*
X84417465Y-102326190D01*
X84490037Y-102273809D01*
X84562608Y-102169047D01*
X84562608Y-101750000D01*
X83038608Y-101750000D01*
X83038608Y-102116666D01*
X83111180Y-102221428D01*
X83183751Y-102273809D01*
X83328894Y-102326190D01*
X83474037Y-102326190D01*
X83619180Y-102273809D01*
X83691751Y-102221428D01*
X83764322Y-102116666D01*
X83764322Y-101750000D01*
X84562608Y-103426190D02*
X84562608Y-102797619D01*
X84562608Y-103111904D02*
X83038608Y-103111904D01*
X83256322Y-103007142D01*
X83401465Y-102902380D01*
X83474037Y-102797619D01*
X83038608Y-103792857D02*
X83038608Y-104473809D01*
X83619180Y-104107142D01*
X83619180Y-104264285D01*
X83691751Y-104369047D01*
X83764322Y-104421428D01*
X83909465Y-104473809D01*
X84272322Y-104473809D01*
X84417465Y-104421428D01*
X84490037Y-104369047D01*
X84562608Y-104264285D01*
X84562608Y-103950000D01*
X84490037Y-103845238D01*
X84417465Y-103792857D01*
X84707751Y-104683333D02*
X84707751Y-105521428D01*
X84562608Y-106307142D02*
X84562608Y-105783333D01*
X83038608Y-105783333D01*
X84562608Y-107250000D02*
X84562608Y-106621428D01*
X84562608Y-106935714D02*
X83038608Y-106935714D01*
X83256322Y-106830952D01*
X83401465Y-106726190D01*
X83474037Y-106621428D01*
X83038608Y-108192857D02*
X83038608Y-107983333D01*
X83111180Y-107878571D01*
X83183751Y-107826190D01*
X83401465Y-107721428D01*
X83691751Y-107669047D01*
X84272322Y-107669047D01*
X84417465Y-107721428D01*
X84490037Y-107773809D01*
X84562608Y-107878571D01*
X84562608Y-108088095D01*
X84490037Y-108192857D01*
X84417465Y-108245238D01*
X84272322Y-108297619D01*
X83909465Y-108297619D01*
X83764322Y-108245238D01*
X83691751Y-108192857D01*
X83619180Y-108088095D01*
X83619180Y-107878571D01*
X83691751Y-107773809D01*
X83764322Y-107721428D01*
X83909465Y-107669047D01*
X84562608Y-108769047D02*
X83038608Y-108769047D01*
X83038608Y-109188095D01*
X83111180Y-109292857D01*
X83183751Y-109345238D01*
X83328894Y-109397619D01*
X83546608Y-109397619D01*
X83691751Y-109345238D01*
X83764322Y-109292857D01*
X83836894Y-109188095D01*
X83836894Y-108769047D01*
X82966037Y-110654761D02*
X84925465Y-109711904D01*
X84562608Y-111021428D02*
X83038608Y-111021428D01*
X84562608Y-111650000D01*
X83038608Y-111650000D01*
X86217962Y-102116666D02*
X86290534Y-102273809D01*
X86363105Y-102326190D01*
X86508248Y-102378571D01*
X86725962Y-102378571D01*
X86871105Y-102326190D01*
X86943677Y-102273809D01*
X87016248Y-102169047D01*
X87016248Y-101750000D01*
X85492248Y-101750000D01*
X85492248Y-102116666D01*
X85564820Y-102221428D01*
X85637391Y-102273809D01*
X85782534Y-102326190D01*
X85927677Y-102326190D01*
X86072820Y-102273809D01*
X86145391Y-102221428D01*
X86217962Y-102116666D01*
X86217962Y-101750000D01*
X87016248Y-103426190D02*
X87016248Y-102797619D01*
X87016248Y-103111904D02*
X85492248Y-103111904D01*
X85709962Y-103007142D01*
X85855105Y-102902380D01*
X85927677Y-102797619D01*
X85492248Y-103792857D02*
X85492248Y-104473809D01*
X86072820Y-104107142D01*
X86072820Y-104264285D01*
X86145391Y-104369047D01*
X86217962Y-104421428D01*
X86363105Y-104473809D01*
X86725962Y-104473809D01*
X86871105Y-104421428D01*
X86943677Y-104369047D01*
X87016248Y-104264285D01*
X87016248Y-103950000D01*
X86943677Y-103845238D01*
X86871105Y-103792857D01*
X87161391Y-104683333D02*
X87161391Y-105521428D01*
X87016248Y-106307142D02*
X87016248Y-105783333D01*
X85492248Y-105783333D01*
X87016248Y-107250000D02*
X87016248Y-106621428D01*
X87016248Y-106935714D02*
X85492248Y-106935714D01*
X85709962Y-106830952D01*
X85855105Y-106726190D01*
X85927677Y-106621428D01*
X86145391Y-107878571D02*
X86072820Y-107773809D01*
X86000248Y-107721428D01*
X85855105Y-107669047D01*
X85782534Y-107669047D01*
X85637391Y-107721428D01*
X85564820Y-107773809D01*
X85492248Y-107878571D01*
X85492248Y-108088095D01*
X85564820Y-108192857D01*
X85637391Y-108245238D01*
X85782534Y-108297619D01*
X85855105Y-108297619D01*
X86000248Y-108245238D01*
X86072820Y-108192857D01*
X86145391Y-108088095D01*
X86145391Y-107878571D01*
X86217962Y-107773809D01*
X86290534Y-107721428D01*
X86435677Y-107669047D01*
X86725962Y-107669047D01*
X86871105Y-107721428D01*
X86943677Y-107773809D01*
X87016248Y-107878571D01*
X87016248Y-108088095D01*
X86943677Y-108192857D01*
X86871105Y-108245238D01*
X86725962Y-108297619D01*
X86435677Y-108297619D01*
X86290534Y-108245238D01*
X86217962Y-108192857D01*
X86145391Y-108088095D01*
X87016248Y-108769047D02*
X85492248Y-108769047D01*
X85492248Y-109188095D01*
X85564820Y-109292857D01*
X85637391Y-109345238D01*
X85782534Y-109397619D01*
X86000248Y-109397619D01*
X86145391Y-109345238D01*
X86217962Y-109292857D01*
X86290534Y-109188095D01*
X86290534Y-108769047D01*
X85419677Y-110654761D02*
X87379105Y-109711904D01*
X87016248Y-111021428D02*
X85492248Y-111021428D01*
X87016248Y-111650000D01*
X85492248Y-111650000D01*
X88671602Y-102116666D02*
X88744174Y-102273809D01*
X88816745Y-102326190D01*
X88961888Y-102378571D01*
X89179602Y-102378571D01*
X89324745Y-102326190D01*
X89397317Y-102273809D01*
X89469888Y-102169047D01*
X89469888Y-101750000D01*
X87945888Y-101750000D01*
X87945888Y-102116666D01*
X88018460Y-102221428D01*
X88091031Y-102273809D01*
X88236174Y-102326190D01*
X88381317Y-102326190D01*
X88526460Y-102273809D01*
X88599031Y-102221428D01*
X88671602Y-102116666D01*
X88671602Y-101750000D01*
X89469888Y-103426190D02*
X89469888Y-102797619D01*
X89469888Y-103111904D02*
X87945888Y-103111904D01*
X88163602Y-103007142D01*
X88308745Y-102902380D01*
X88381317Y-102797619D01*
X87945888Y-103792857D02*
X87945888Y-104473809D01*
X88526460Y-104107142D01*
X88526460Y-104264285D01*
X88599031Y-104369047D01*
X88671602Y-104421428D01*
X88816745Y-104473809D01*
X89179602Y-104473809D01*
X89324745Y-104421428D01*
X89397317Y-104369047D01*
X89469888Y-104264285D01*
X89469888Y-103950000D01*
X89397317Y-103845238D01*
X89324745Y-103792857D01*
X89615031Y-104683333D02*
X89615031Y-105521428D01*
X89469888Y-106307142D02*
X89469888Y-105783333D01*
X87945888Y-105783333D01*
X89469888Y-107250000D02*
X89469888Y-106621428D01*
X89469888Y-106935714D02*
X87945888Y-106935714D01*
X88163602Y-106830952D01*
X88308745Y-106726190D01*
X88381317Y-106621428D01*
X89469888Y-107773809D02*
X89469888Y-107983333D01*
X89397317Y-108088095D01*
X89324745Y-108140476D01*
X89107031Y-108245238D01*
X88816745Y-108297619D01*
X88236174Y-108297619D01*
X88091031Y-108245238D01*
X88018460Y-108192857D01*
X87945888Y-108088095D01*
X87945888Y-107878571D01*
X88018460Y-107773809D01*
X88091031Y-107721428D01*
X88236174Y-107669047D01*
X88599031Y-107669047D01*
X88744174Y-107721428D01*
X88816745Y-107773809D01*
X88889317Y-107878571D01*
X88889317Y-108088095D01*
X88816745Y-108192857D01*
X88744174Y-108245238D01*
X88599031Y-108297619D01*
X89469888Y-108769047D02*
X87945888Y-108769047D01*
X87945888Y-109188095D01*
X88018460Y-109292857D01*
X88091031Y-109345238D01*
X88236174Y-109397619D01*
X88453888Y-109397619D01*
X88599031Y-109345238D01*
X88671602Y-109292857D01*
X88744174Y-109188095D01*
X88744174Y-108769047D01*
X87873317Y-110654761D02*
X89832745Y-109711904D01*
X89469888Y-111021428D02*
X87945888Y-111021428D01*
X89469888Y-111650000D01*
X87945888Y-111650000D01*
X91125242Y-102116666D02*
X91197814Y-102273809D01*
X91270385Y-102326190D01*
X91415528Y-102378571D01*
X91633242Y-102378571D01*
X91778385Y-102326190D01*
X91850957Y-102273809D01*
X91923528Y-102169047D01*
X91923528Y-101750000D01*
X90399528Y-101750000D01*
X90399528Y-102116666D01*
X90472100Y-102221428D01*
X90544671Y-102273809D01*
X90689814Y-102326190D01*
X90834957Y-102326190D01*
X90980100Y-102273809D01*
X91052671Y-102221428D01*
X91125242Y-102116666D01*
X91125242Y-101750000D01*
X91923528Y-103426190D02*
X91923528Y-102797619D01*
X91923528Y-103111904D02*
X90399528Y-103111904D01*
X90617242Y-103007142D01*
X90762385Y-102902380D01*
X90834957Y-102797619D01*
X90399528Y-103792857D02*
X90399528Y-104473809D01*
X90980100Y-104107142D01*
X90980100Y-104264285D01*
X91052671Y-104369047D01*
X91125242Y-104421428D01*
X91270385Y-104473809D01*
X91633242Y-104473809D01*
X91778385Y-104421428D01*
X91850957Y-104369047D01*
X91923528Y-104264285D01*
X91923528Y-103950000D01*
X91850957Y-103845238D01*
X91778385Y-103792857D01*
X92068671Y-104683333D02*
X92068671Y-105521428D01*
X91923528Y-106307142D02*
X91923528Y-105783333D01*
X90399528Y-105783333D01*
X91923528Y-107250000D02*
X91923528Y-106621428D01*
X91923528Y-106935714D02*
X90399528Y-106935714D01*
X90617242Y-106830952D01*
X90762385Y-106726190D01*
X90834957Y-106621428D01*
X91923528Y-108297619D02*
X91923528Y-107669047D01*
X91923528Y-107983333D02*
X90399528Y-107983333D01*
X90617242Y-107878571D01*
X90762385Y-107773809D01*
X90834957Y-107669047D01*
X91923528Y-108769047D02*
X90399528Y-108769047D01*
X90399528Y-109188095D01*
X90472100Y-109292857D01*
X90544671Y-109345238D01*
X90689814Y-109397619D01*
X90907528Y-109397619D01*
X91052671Y-109345238D01*
X91125242Y-109292857D01*
X91197814Y-109188095D01*
X91197814Y-108769047D01*
X90326957Y-110654761D02*
X92286385Y-109711904D01*
X91923528Y-111021428D02*
X90399528Y-111021428D01*
X91923528Y-111650000D01*
X90399528Y-111650000D01*
X92925740Y-103347619D02*
X92853168Y-103242857D01*
X92853168Y-103085714D01*
X92925740Y-102928571D01*
X93070882Y-102823809D01*
X93216025Y-102771428D01*
X93506311Y-102719047D01*
X93724025Y-102719047D01*
X94014311Y-102771428D01*
X94159454Y-102823809D01*
X94304597Y-102928571D01*
X94377168Y-103085714D01*
X94377168Y-103190476D01*
X94304597Y-103347619D01*
X94232025Y-103400000D01*
X93724025Y-103400000D01*
X93724025Y-103190476D01*
X94377168Y-103871428D02*
X92853168Y-103871428D01*
X94377168Y-104500000D01*
X92853168Y-104500000D01*
X94377168Y-105023809D02*
X92853168Y-105023809D01*
X92853168Y-105285714D01*
X92925740Y-105442857D01*
X93070882Y-105547619D01*
X93216025Y-105600000D01*
X93506311Y-105652380D01*
X93724025Y-105652380D01*
X94014311Y-105600000D01*
X94159454Y-105547619D01*
X94304597Y-105442857D01*
X94377168Y-105285714D01*
X94377168Y-105023809D01*
X92925740Y-108376190D02*
X92853168Y-108271428D01*
X92853168Y-108114285D01*
X92925740Y-107957142D01*
X93070882Y-107852380D01*
X93216025Y-107800000D01*
X93506311Y-107747619D01*
X93724025Y-107747619D01*
X94014311Y-107800000D01*
X94159454Y-107852380D01*
X94304597Y-107957142D01*
X94377168Y-108114285D01*
X94377168Y-108219047D01*
X94304597Y-108376190D01*
X94232025Y-108428571D01*
X93724025Y-108428571D01*
X93724025Y-108219047D01*
X94377168Y-108900000D02*
X92853168Y-108900000D01*
X94377168Y-109528571D01*
X92853168Y-109528571D01*
X94377168Y-110052380D02*
X92853168Y-110052380D01*
X92853168Y-110314285D01*
X92925740Y-110471428D01*
X93070882Y-110576190D01*
X93216025Y-110628571D01*
X93506311Y-110680952D01*
X93724025Y-110680952D01*
X94014311Y-110628571D01*
X94159454Y-110576190D01*
X94304597Y-110471428D01*
X94377168Y-110314285D01*
X94377168Y-110052380D01*
D13*
X100576309Y-79509523D02*
X100076309Y-75509523D01*
X99123928Y-75509523D01*
X98576309Y-75700000D01*
X98242976Y-76080952D01*
X98100119Y-76461904D01*
X98004880Y-77223809D01*
X98076309Y-77795238D01*
X98362023Y-78557142D01*
X98600119Y-78938095D01*
X99028690Y-79319047D01*
X99623928Y-79509523D01*
X100576309Y-79509523D01*
X96314404Y-77414285D02*
X94981071Y-77414285D01*
X94671547Y-79509523D02*
X96576309Y-79509523D01*
X96076309Y-75509523D01*
X94171547Y-75509523D01*
X93028690Y-75509523D02*
X92195357Y-79509523D01*
X90362023Y-75509523D01*
X89528690Y-79509523D02*
X89028690Y-75509523D01*
X87242976Y-79509523D02*
X88671547Y-77223809D01*
X86742976Y-75509523D02*
X89314404Y-77795238D01*
X85528690Y-79509523D02*
X85028690Y-75509523D01*
X83695357Y-75509523D02*
X81409642Y-75509523D01*
X83052500Y-79509523D02*
X82552500Y-75509523D01*
D10*
X77078571Y-51000000D02*
X75578571Y-51000000D01*
X75578571Y-51571428D01*
X75650000Y-51714285D01*
X75721428Y-51785714D01*
X75864285Y-51857142D01*
X76078571Y-51857142D01*
X76221428Y-51785714D01*
X76292857Y-51714285D01*
X76364285Y-51571428D01*
X76364285Y-51000000D01*
X75578571Y-52357142D02*
X77078571Y-52714285D01*
X76007142Y-53000000D01*
X77078571Y-53285714D01*
X75578571Y-53642857D01*
X77078571Y-55071428D02*
X76364285Y-54571428D01*
X77078571Y-54214285D02*
X75578571Y-54214285D01*
X75578571Y-54785714D01*
X75650000Y-54928571D01*
X75721428Y-55000000D01*
X75864285Y-55071428D01*
X76078571Y-55071428D01*
X76221428Y-55000000D01*
X76292857Y-54928571D01*
X76364285Y-54785714D01*
X76364285Y-54214285D01*
X145471428Y-82642857D02*
X146971428Y-82642857D01*
X146257142Y-82642857D02*
X146257142Y-81785714D01*
X145471428Y-81785714D02*
X146971428Y-81785714D01*
X145471428Y-81071428D02*
X146971428Y-81071428D01*
X146971428Y-80714285D01*
X146900000Y-80500000D01*
X146757142Y-80357142D01*
X146614285Y-80285714D01*
X146328571Y-80214285D01*
X146114285Y-80214285D01*
X145828571Y-80285714D01*
X145685714Y-80357142D01*
X145542857Y-80500000D01*
X145471428Y-80714285D01*
X145471428Y-81071428D01*
X145471428Y-79571428D02*
X146971428Y-79571428D01*
X145900000Y-79071428D01*
X146971428Y-78571428D01*
X145471428Y-78571428D01*
X145471428Y-77857142D02*
X146971428Y-77857142D01*
X129192857Y-33378571D02*
X129192857Y-34592857D01*
X129121428Y-34735714D01*
X129050000Y-34807142D01*
X128907142Y-34878571D01*
X128621428Y-34878571D01*
X128478571Y-34807142D01*
X128407142Y-34735714D01*
X128335714Y-34592857D01*
X128335714Y-33378571D01*
X127692857Y-34807142D02*
X127478571Y-34878571D01*
X127121428Y-34878571D01*
X126978571Y-34807142D01*
X126907142Y-34735714D01*
X126835714Y-34592857D01*
X126835714Y-34450000D01*
X126907142Y-34307142D01*
X126978571Y-34235714D01*
X127121428Y-34164285D01*
X127407142Y-34092857D01*
X127550000Y-34021428D01*
X127621428Y-33950000D01*
X127692857Y-33807142D01*
X127692857Y-33664285D01*
X127621428Y-33521428D01*
X127550000Y-33450000D01*
X127407142Y-33378571D01*
X127050000Y-33378571D01*
X126835714Y-33450000D01*
X125692857Y-34092857D02*
X125478571Y-34164285D01*
X125407142Y-34235714D01*
X125335714Y-34378571D01*
X125335714Y-34592857D01*
X125407142Y-34735714D01*
X125478571Y-34807142D01*
X125621428Y-34878571D01*
X126192857Y-34878571D01*
X126192857Y-33378571D01*
X125692857Y-33378571D01*
X125550000Y-33450000D01*
X125478571Y-33521428D01*
X125407142Y-33664285D01*
X125407142Y-33807142D01*
X125478571Y-33950000D01*
X125550000Y-34021428D01*
X125692857Y-34092857D01*
X126192857Y-34092857D01*
X146742857Y-33428571D02*
X146742857Y-34642857D01*
X146671428Y-34785714D01*
X146600000Y-34857142D01*
X146457142Y-34928571D01*
X146171428Y-34928571D01*
X146028571Y-34857142D01*
X145957142Y-34785714D01*
X145885714Y-34642857D01*
X145885714Y-33428571D01*
X145242857Y-34857142D02*
X145028571Y-34928571D01*
X144671428Y-34928571D01*
X144528571Y-34857142D01*
X144457142Y-34785714D01*
X144385714Y-34642857D01*
X144385714Y-34500000D01*
X144457142Y-34357142D01*
X144528571Y-34285714D01*
X144671428Y-34214285D01*
X144957142Y-34142857D01*
X145100000Y-34071428D01*
X145171428Y-34000000D01*
X145242857Y-33857142D01*
X145242857Y-33714285D01*
X145171428Y-33571428D01*
X145100000Y-33500000D01*
X144957142Y-33428571D01*
X144600000Y-33428571D01*
X144385714Y-33500000D01*
X143242857Y-34142857D02*
X143028571Y-34214285D01*
X142957142Y-34285714D01*
X142885714Y-34428571D01*
X142885714Y-34642857D01*
X142957142Y-34785714D01*
X143028571Y-34857142D01*
X143171428Y-34928571D01*
X143742857Y-34928571D01*
X143742857Y-33428571D01*
X143242857Y-33428571D01*
X143100000Y-33500000D01*
X143028571Y-33571428D01*
X142957142Y-33714285D01*
X142957142Y-33857142D01*
X143028571Y-34000000D01*
X143100000Y-34071428D01*
X143242857Y-34142857D01*
X143742857Y-34142857D01*
X73828571Y-52057142D02*
X72328571Y-52057142D01*
X72328571Y-52628571D01*
X72400000Y-52771428D01*
X72471428Y-52842857D01*
X72614285Y-52914285D01*
X72828571Y-52914285D01*
X72971428Y-52842857D01*
X73042857Y-52771428D01*
X73114285Y-52628571D01*
X73114285Y-52057142D01*
X73828571Y-53557142D02*
X72328571Y-53557142D01*
X72328571Y-53914285D01*
X72400000Y-54128571D01*
X72542857Y-54271428D01*
X72685714Y-54342857D01*
X72971428Y-54414285D01*
X73185714Y-54414285D01*
X73471428Y-54342857D01*
X73614285Y-54271428D01*
X73757142Y-54128571D01*
X73828571Y-53914285D01*
X73828571Y-53557142D01*
G04 #@! TO.C,SYME2*
G36*
X132068597Y-92526335D02*
G01*
X132087700Y-92544740D01*
X132143401Y-92600870D01*
X132217074Y-92677287D01*
X132305138Y-92770092D01*
X132404012Y-92875388D01*
X132510118Y-92989277D01*
X132619875Y-93107862D01*
X132729702Y-93227244D01*
X132836020Y-93343525D01*
X132935248Y-93452809D01*
X133023807Y-93551196D01*
X133098115Y-93634790D01*
X133154593Y-93699692D01*
X133189661Y-93742005D01*
X133199738Y-93757830D01*
X133196280Y-93759578D01*
X133163208Y-93778034D01*
X133097796Y-93815243D01*
X133002799Y-93869620D01*
X132880973Y-93939578D01*
X132735072Y-94023531D01*
X132567852Y-94119893D01*
X132382068Y-94227077D01*
X132180476Y-94343497D01*
X131965830Y-94467567D01*
X131740887Y-94597702D01*
X131656809Y-94646357D01*
X131435820Y-94774189D01*
X131226410Y-94895247D01*
X131031302Y-95007960D01*
X130853219Y-95110759D01*
X130694886Y-95202074D01*
X130559025Y-95280333D01*
X130448360Y-95343968D01*
X130365614Y-95391407D01*
X130313512Y-95421082D01*
X130294776Y-95431420D01*
X130295618Y-95425914D01*
X130310993Y-95394271D01*
X130339269Y-95343719D01*
X130356615Y-95313797D01*
X130393504Y-95249988D01*
X130447786Y-95156009D01*
X130517698Y-95034917D01*
X130601477Y-94889765D01*
X130697362Y-94723607D01*
X130803588Y-94539499D01*
X130918392Y-94340495D01*
X131040013Y-94129649D01*
X131166687Y-93910017D01*
X131290722Y-93695016D01*
X131411310Y-93486130D01*
X131524701Y-93289849D01*
X131629191Y-93109114D01*
X131723079Y-92946867D01*
X131804660Y-92806049D01*
X131872231Y-92689602D01*
X131924089Y-92600469D01*
X131958531Y-92541590D01*
X131973854Y-92515908D01*
X132005292Y-92466872D01*
X132068597Y-92526335D01*
G37*
D14*
X132068597Y-92526335D02*
X132087700Y-92544740D01*
X132143401Y-92600870D01*
X132217074Y-92677287D01*
X132305138Y-92770092D01*
X132404012Y-92875388D01*
X132510118Y-92989277D01*
X132619875Y-93107862D01*
X132729702Y-93227244D01*
X132836020Y-93343525D01*
X132935248Y-93452809D01*
X133023807Y-93551196D01*
X133098115Y-93634790D01*
X133154593Y-93699692D01*
X133189661Y-93742005D01*
X133199738Y-93757830D01*
X133196280Y-93759578D01*
X133163208Y-93778034D01*
X133097796Y-93815243D01*
X133002799Y-93869620D01*
X132880973Y-93939578D01*
X132735072Y-94023531D01*
X132567852Y-94119893D01*
X132382068Y-94227077D01*
X132180476Y-94343497D01*
X131965830Y-94467567D01*
X131740887Y-94597702D01*
X131656809Y-94646357D01*
X131435820Y-94774189D01*
X131226410Y-94895247D01*
X131031302Y-95007960D01*
X130853219Y-95110759D01*
X130694886Y-95202074D01*
X130559025Y-95280333D01*
X130448360Y-95343968D01*
X130365614Y-95391407D01*
X130313512Y-95421082D01*
X130294776Y-95431420D01*
X130295618Y-95425914D01*
X130310993Y-95394271D01*
X130339269Y-95343719D01*
X130356615Y-95313797D01*
X130393504Y-95249988D01*
X130447786Y-95156009D01*
X130517698Y-95034917D01*
X130601477Y-94889765D01*
X130697362Y-94723607D01*
X130803588Y-94539499D01*
X130918392Y-94340495D01*
X131040013Y-94129649D01*
X131166687Y-93910017D01*
X131290722Y-93695016D01*
X131411310Y-93486130D01*
X131524701Y-93289849D01*
X131629191Y-93109114D01*
X131723079Y-92946867D01*
X131804660Y-92806049D01*
X131872231Y-92689602D01*
X131924089Y-92600469D01*
X131958531Y-92541590D01*
X131973854Y-92515908D01*
X132005292Y-92466872D01*
X132068597Y-92526335D01*
G36*
X134442052Y-88259119D02*
G01*
X134457580Y-88282462D01*
X134491791Y-88338543D01*
X134542966Y-88424380D01*
X134609387Y-88536991D01*
X134689335Y-88673394D01*
X134781092Y-88830606D01*
X134882940Y-89005647D01*
X134993161Y-89195532D01*
X135110035Y-89397281D01*
X135231845Y-89607912D01*
X135356873Y-89824442D01*
X135483399Y-90043889D01*
X135609706Y-90263271D01*
X135734076Y-90479605D01*
X135854789Y-90689911D01*
X135970128Y-90891206D01*
X136078374Y-91080507D01*
X136177809Y-91254833D01*
X136266714Y-91411201D01*
X136343371Y-91546629D01*
X136406062Y-91658136D01*
X136453069Y-91742739D01*
X136482672Y-91797456D01*
X136493155Y-91819305D01*
X136493165Y-91819472D01*
X136476261Y-91842399D01*
X136427688Y-91881263D01*
X136352499Y-91932385D01*
X136255748Y-91992088D01*
X136190863Y-92030281D01*
X136097499Y-92083391D01*
X136032467Y-92116861D01*
X135991410Y-92132575D01*
X135969972Y-92132416D01*
X135963794Y-92118265D01*
X135963323Y-92115958D01*
X135945666Y-92087815D01*
X135907603Y-92039958D01*
X135856149Y-91981312D01*
X135832410Y-91956120D01*
X135758794Y-91888309D01*
X135677386Y-91830348D01*
X135583350Y-91780539D01*
X135471845Y-91737182D01*
X135338036Y-91698577D01*
X135177083Y-91663026D01*
X134984148Y-91628828D01*
X134754394Y-91594284D01*
X134489952Y-91555347D01*
X134234311Y-91513534D01*
X134010778Y-91471620D01*
X133814357Y-91428395D01*
X133640050Y-91382651D01*
X133482858Y-91333179D01*
X133337785Y-91278769D01*
X133199833Y-91218213D01*
X133098448Y-91168274D01*
X133001605Y-91115722D01*
X132925020Y-91068807D01*
X132874679Y-91031217D01*
X132856569Y-91006644D01*
X132857103Y-91004833D01*
X132871691Y-90975874D01*
X132904767Y-90915229D01*
X132954372Y-90826294D01*
X133018547Y-90712465D01*
X133095335Y-90577137D01*
X133182777Y-90423705D01*
X133278916Y-90255565D01*
X133381793Y-90076111D01*
X133489450Y-89888741D01*
X133599929Y-89696847D01*
X133711271Y-89503827D01*
X133821519Y-89313075D01*
X133928715Y-89127987D01*
X134030899Y-88951958D01*
X134126115Y-88788384D01*
X134212403Y-88640659D01*
X134287806Y-88512180D01*
X134350366Y-88406341D01*
X134398124Y-88326538D01*
X134429122Y-88276166D01*
X134441402Y-88258621D01*
X134442052Y-88259119D01*
G37*
X134442052Y-88259119D02*
X134457580Y-88282462D01*
X134491791Y-88338543D01*
X134542966Y-88424380D01*
X134609387Y-88536991D01*
X134689335Y-88673394D01*
X134781092Y-88830606D01*
X134882940Y-89005647D01*
X134993161Y-89195532D01*
X135110035Y-89397281D01*
X135231845Y-89607912D01*
X135356873Y-89824442D01*
X135483399Y-90043889D01*
X135609706Y-90263271D01*
X135734076Y-90479605D01*
X135854789Y-90689911D01*
X135970128Y-90891206D01*
X136078374Y-91080507D01*
X136177809Y-91254833D01*
X136266714Y-91411201D01*
X136343371Y-91546629D01*
X136406062Y-91658136D01*
X136453069Y-91742739D01*
X136482672Y-91797456D01*
X136493155Y-91819305D01*
X136493165Y-91819472D01*
X136476261Y-91842399D01*
X136427688Y-91881263D01*
X136352499Y-91932385D01*
X136255748Y-91992088D01*
X136190863Y-92030281D01*
X136097499Y-92083391D01*
X136032467Y-92116861D01*
X135991410Y-92132575D01*
X135969972Y-92132416D01*
X135963794Y-92118265D01*
X135963323Y-92115958D01*
X135945666Y-92087815D01*
X135907603Y-92039958D01*
X135856149Y-91981312D01*
X135832410Y-91956120D01*
X135758794Y-91888309D01*
X135677386Y-91830348D01*
X135583350Y-91780539D01*
X135471845Y-91737182D01*
X135338036Y-91698577D01*
X135177083Y-91663026D01*
X134984148Y-91628828D01*
X134754394Y-91594284D01*
X134489952Y-91555347D01*
X134234311Y-91513534D01*
X134010778Y-91471620D01*
X133814357Y-91428395D01*
X133640050Y-91382651D01*
X133482858Y-91333179D01*
X133337785Y-91278769D01*
X133199833Y-91218213D01*
X133098448Y-91168274D01*
X133001605Y-91115722D01*
X132925020Y-91068807D01*
X132874679Y-91031217D01*
X132856569Y-91006644D01*
X132857103Y-91004833D01*
X132871691Y-90975874D01*
X132904767Y-90915229D01*
X132954372Y-90826294D01*
X133018547Y-90712465D01*
X133095335Y-90577137D01*
X133182777Y-90423705D01*
X133278916Y-90255565D01*
X133381793Y-90076111D01*
X133489450Y-89888741D01*
X133599929Y-89696847D01*
X133711271Y-89503827D01*
X133821519Y-89313075D01*
X133928715Y-89127987D01*
X134030899Y-88951958D01*
X134126115Y-88788384D01*
X134212403Y-88640659D01*
X134287806Y-88512180D01*
X134350366Y-88406341D01*
X134398124Y-88326538D01*
X134429122Y-88276166D01*
X134441402Y-88258621D01*
X134442052Y-88259119D01*
G36*
X136952528Y-92598609D02*
G01*
X136960275Y-92610169D01*
X136987963Y-92655573D01*
X137033493Y-92732125D01*
X137095122Y-92836838D01*
X137171108Y-92966723D01*
X137259706Y-93118792D01*
X137359175Y-93290059D01*
X137467772Y-93477535D01*
X137583753Y-93678232D01*
X137705376Y-93889163D01*
X137738731Y-93947073D01*
X137870621Y-94176046D01*
X138003395Y-94406533D01*
X138134340Y-94633828D01*
X138260745Y-94853223D01*
X138379897Y-95060012D01*
X138489084Y-95249486D01*
X138585594Y-95416940D01*
X138666714Y-95557665D01*
X138729732Y-95666954D01*
X139027414Y-96183087D01*
X134853420Y-96183087D01*
X134680863Y-96183072D01*
X134269623Y-96182914D01*
X133870976Y-96182590D01*
X133486865Y-96182109D01*
X133119231Y-96181479D01*
X132770013Y-96180708D01*
X132441153Y-96179804D01*
X132134592Y-96178776D01*
X131852271Y-96177632D01*
X131596130Y-96176380D01*
X131368111Y-96175029D01*
X131170154Y-96173587D01*
X131004201Y-96172063D01*
X130872191Y-96170464D01*
X130776067Y-96168799D01*
X130717769Y-96167076D01*
X130699237Y-96165304D01*
X130712996Y-96156337D01*
X130760468Y-96127764D01*
X130838443Y-96081765D01*
X130943749Y-96020165D01*
X131073215Y-95944788D01*
X131223670Y-95857460D01*
X131391942Y-95760004D01*
X131574860Y-95654246D01*
X131769253Y-95542011D01*
X131971948Y-95425123D01*
X132179775Y-95305407D01*
X132389561Y-95184687D01*
X132598137Y-95064789D01*
X132802330Y-94947537D01*
X132998968Y-94834756D01*
X133184881Y-94728270D01*
X133356897Y-94629905D01*
X133511844Y-94541485D01*
X133646552Y-94464835D01*
X133757848Y-94401780D01*
X133842562Y-94354144D01*
X133897521Y-94323752D01*
X133919555Y-94312429D01*
X133933934Y-94315235D01*
X133977247Y-94340763D01*
X134039001Y-94388057D01*
X134112409Y-94452198D01*
X134178527Y-94516408D01*
X134262741Y-94603875D01*
X134356966Y-94705990D01*
X134456373Y-94817130D01*
X134556132Y-94931675D01*
X134651412Y-95044000D01*
X134737384Y-95148485D01*
X134809217Y-95239506D01*
X134862081Y-95311441D01*
X134891147Y-95358668D01*
X134910550Y-95393159D01*
X134963248Y-95464537D01*
X135030995Y-95540474D01*
X135104133Y-95611230D01*
X135173001Y-95667066D01*
X135227942Y-95698244D01*
X135288620Y-95705450D01*
X135369589Y-95685532D01*
X135446544Y-95639862D01*
X135506265Y-95574324D01*
X135516606Y-95557321D01*
X135529773Y-95529474D01*
X135538354Y-95495961D01*
X135542901Y-95449583D01*
X135543964Y-95383138D01*
X135542092Y-95289427D01*
X135537837Y-95161248D01*
X135534788Y-95087103D01*
X135528309Y-94969846D01*
X135520662Y-94867221D01*
X135512560Y-94788250D01*
X135504716Y-94741954D01*
X135485726Y-94689068D01*
X135429427Y-94584921D01*
X135341944Y-94461519D01*
X135222210Y-94317414D01*
X135069156Y-94151156D01*
X135002738Y-94081107D01*
X134925943Y-93998475D01*
X134862560Y-93928416D01*
X134817803Y-93876714D01*
X134796885Y-93849152D01*
X134794735Y-93844775D01*
X134792156Y-93825934D01*
X134805039Y-93805044D01*
X134838661Y-93777604D01*
X134898298Y-93739111D01*
X134989227Y-93685065D01*
X135066527Y-93639944D01*
X135208774Y-93557407D01*
X135320772Y-93493296D01*
X135406282Y-93445529D01*
X135469066Y-93412024D01*
X135512886Y-93390700D01*
X135541503Y-93379476D01*
X135571116Y-93367023D01*
X135588424Y-93350299D01*
X135590043Y-93346354D01*
X135615367Y-93324415D01*
X135661650Y-93296158D01*
X135734876Y-93256723D01*
X135788944Y-93307056D01*
X135808041Y-93327448D01*
X135852472Y-93382865D01*
X135906723Y-93456856D01*
X135963054Y-93539106D01*
X136083097Y-93720822D01*
X136078386Y-94191916D01*
X136073675Y-94663009D01*
X136005079Y-94729657D01*
X135982028Y-94753418D01*
X135908110Y-94860166D01*
X135864961Y-94987105D01*
X135850259Y-95140394D01*
X135853910Y-95222527D01*
X135879678Y-95367405D01*
X135926644Y-95499636D01*
X135990736Y-95605736D01*
X136035242Y-95644423D01*
X136114352Y-95673807D01*
X136203908Y-95677197D01*
X136292446Y-95656156D01*
X136368502Y-95612250D01*
X136420613Y-95547045D01*
X136422318Y-95543511D01*
X136453817Y-95478957D01*
X136487177Y-95411494D01*
X136515497Y-95348163D01*
X136556122Y-95241420D01*
X136600943Y-95109818D01*
X136648403Y-94959224D01*
X136696943Y-94795501D01*
X136745006Y-94624514D01*
X136791035Y-94452126D01*
X136833472Y-94284203D01*
X136870760Y-94126609D01*
X136901340Y-93985208D01*
X136923657Y-93865865D01*
X136936152Y-93774443D01*
X136937267Y-93716807D01*
X136934754Y-93703714D01*
X136910263Y-93637432D01*
X136864817Y-93548757D01*
X136802406Y-93445707D01*
X136778452Y-93408571D01*
X136682203Y-93257144D01*
X136600389Y-93124717D01*
X136534812Y-93014389D01*
X136487277Y-92929255D01*
X136459591Y-92872414D01*
X136453555Y-92846962D01*
X136454254Y-92846064D01*
X136479240Y-92827731D01*
X136532637Y-92794223D01*
X136607129Y-92750001D01*
X136695401Y-92699525D01*
X136702863Y-92695334D01*
X136798707Y-92642601D01*
X136865456Y-92608972D01*
X136909251Y-92592036D01*
X136936228Y-92589385D01*
X136952528Y-92598609D01*
G37*
X136952528Y-92598609D02*
X136960275Y-92610169D01*
X136987963Y-92655573D01*
X137033493Y-92732125D01*
X137095122Y-92836838D01*
X137171108Y-92966723D01*
X137259706Y-93118792D01*
X137359175Y-93290059D01*
X137467772Y-93477535D01*
X137583753Y-93678232D01*
X137705376Y-93889163D01*
X137738731Y-93947073D01*
X137870621Y-94176046D01*
X138003395Y-94406533D01*
X138134340Y-94633828D01*
X138260745Y-94853223D01*
X138379897Y-95060012D01*
X138489084Y-95249486D01*
X138585594Y-95416940D01*
X138666714Y-95557665D01*
X138729732Y-95666954D01*
X139027414Y-96183087D01*
X134853420Y-96183087D01*
X134680863Y-96183072D01*
X134269623Y-96182914D01*
X133870976Y-96182590D01*
X133486865Y-96182109D01*
X133119231Y-96181479D01*
X132770013Y-96180708D01*
X132441153Y-96179804D01*
X132134592Y-96178776D01*
X131852271Y-96177632D01*
X131596130Y-96176380D01*
X131368111Y-96175029D01*
X131170154Y-96173587D01*
X131004201Y-96172063D01*
X130872191Y-96170464D01*
X130776067Y-96168799D01*
X130717769Y-96167076D01*
X130699237Y-96165304D01*
X130712996Y-96156337D01*
X130760468Y-96127764D01*
X130838443Y-96081765D01*
X130943749Y-96020165D01*
X131073215Y-95944788D01*
X131223670Y-95857460D01*
X131391942Y-95760004D01*
X131574860Y-95654246D01*
X131769253Y-95542011D01*
X131971948Y-95425123D01*
X132179775Y-95305407D01*
X132389561Y-95184687D01*
X132598137Y-95064789D01*
X132802330Y-94947537D01*
X132998968Y-94834756D01*
X133184881Y-94728270D01*
X133356897Y-94629905D01*
X133511844Y-94541485D01*
X133646552Y-94464835D01*
X133757848Y-94401780D01*
X133842562Y-94354144D01*
X133897521Y-94323752D01*
X133919555Y-94312429D01*
X133933934Y-94315235D01*
X133977247Y-94340763D01*
X134039001Y-94388057D01*
X134112409Y-94452198D01*
X134178527Y-94516408D01*
X134262741Y-94603875D01*
X134356966Y-94705990D01*
X134456373Y-94817130D01*
X134556132Y-94931675D01*
X134651412Y-95044000D01*
X134737384Y-95148485D01*
X134809217Y-95239506D01*
X134862081Y-95311441D01*
X134891147Y-95358668D01*
X134910550Y-95393159D01*
X134963248Y-95464537D01*
X135030995Y-95540474D01*
X135104133Y-95611230D01*
X135173001Y-95667066D01*
X135227942Y-95698244D01*
X135288620Y-95705450D01*
X135369589Y-95685532D01*
X135446544Y-95639862D01*
X135506265Y-95574324D01*
X135516606Y-95557321D01*
X135529773Y-95529474D01*
X135538354Y-95495961D01*
X135542901Y-95449583D01*
X135543964Y-95383138D01*
X135542092Y-95289427D01*
X135537837Y-95161248D01*
X135534788Y-95087103D01*
X135528309Y-94969846D01*
X135520662Y-94867221D01*
X135512560Y-94788250D01*
X135504716Y-94741954D01*
X135485726Y-94689068D01*
X135429427Y-94584921D01*
X135341944Y-94461519D01*
X135222210Y-94317414D01*
X135069156Y-94151156D01*
X135002738Y-94081107D01*
X134925943Y-93998475D01*
X134862560Y-93928416D01*
X134817803Y-93876714D01*
X134796885Y-93849152D01*
X134794735Y-93844775D01*
X134792156Y-93825934D01*
X134805039Y-93805044D01*
X134838661Y-93777604D01*
X134898298Y-93739111D01*
X134989227Y-93685065D01*
X135066527Y-93639944D01*
X135208774Y-93557407D01*
X135320772Y-93493296D01*
X135406282Y-93445529D01*
X135469066Y-93412024D01*
X135512886Y-93390700D01*
X135541503Y-93379476D01*
X135571116Y-93367023D01*
X135588424Y-93350299D01*
X135590043Y-93346354D01*
X135615367Y-93324415D01*
X135661650Y-93296158D01*
X135734876Y-93256723D01*
X135788944Y-93307056D01*
X135808041Y-93327448D01*
X135852472Y-93382865D01*
X135906723Y-93456856D01*
X135963054Y-93539106D01*
X136083097Y-93720822D01*
X136078386Y-94191916D01*
X136073675Y-94663009D01*
X136005079Y-94729657D01*
X135982028Y-94753418D01*
X135908110Y-94860166D01*
X135864961Y-94987105D01*
X135850259Y-95140394D01*
X135853910Y-95222527D01*
X135879678Y-95367405D01*
X135926644Y-95499636D01*
X135990736Y-95605736D01*
X136035242Y-95644423D01*
X136114352Y-95673807D01*
X136203908Y-95677197D01*
X136292446Y-95656156D01*
X136368502Y-95612250D01*
X136420613Y-95547045D01*
X136422318Y-95543511D01*
X136453817Y-95478957D01*
X136487177Y-95411494D01*
X136515497Y-95348163D01*
X136556122Y-95241420D01*
X136600943Y-95109818D01*
X136648403Y-94959224D01*
X136696943Y-94795501D01*
X136745006Y-94624514D01*
X136791035Y-94452126D01*
X136833472Y-94284203D01*
X136870760Y-94126609D01*
X136901340Y-93985208D01*
X136923657Y-93865865D01*
X136936152Y-93774443D01*
X136937267Y-93716807D01*
X136934754Y-93703714D01*
X136910263Y-93637432D01*
X136864817Y-93548757D01*
X136802406Y-93445707D01*
X136778452Y-93408571D01*
X136682203Y-93257144D01*
X136600389Y-93124717D01*
X136534812Y-93014389D01*
X136487277Y-92929255D01*
X136459591Y-92872414D01*
X136453555Y-92846962D01*
X136454254Y-92846064D01*
X136479240Y-92827731D01*
X136532637Y-92794223D01*
X136607129Y-92750001D01*
X136695401Y-92699525D01*
X136702863Y-92695334D01*
X136798707Y-92642601D01*
X136865456Y-92608972D01*
X136909251Y-92592036D01*
X136936228Y-92589385D01*
X136952528Y-92598609D01*
G04 #@! TO.C,SYME1*
G36*
X94904875Y-55416687D02*
G01*
X94949836Y-55417728D01*
X94980838Y-55419656D01*
X94992391Y-55422204D01*
X94986499Y-55432919D01*
X94968721Y-55463147D01*
X94940175Y-55510995D01*
X94901988Y-55574594D01*
X94855285Y-55652077D01*
X94801193Y-55741575D01*
X94740838Y-55841221D01*
X94675345Y-55949145D01*
X94605842Y-56063480D01*
X94219293Y-56698825D01*
X94219293Y-57598404D01*
X94019784Y-57598404D01*
X94019784Y-56692177D01*
X93614949Y-56057343D01*
X93210113Y-55422508D01*
X93317816Y-55418875D01*
X93336996Y-55418317D01*
X93384877Y-55417758D01*
X93421206Y-55418526D01*
X93439302Y-55420530D01*
X93440161Y-55421210D01*
X93451800Y-55436729D01*
X93474923Y-55471033D01*
X93508229Y-55522084D01*
X93550416Y-55587845D01*
X93600185Y-55666278D01*
X93656233Y-55755344D01*
X93717259Y-55853007D01*
X93781963Y-55957227D01*
X93796390Y-55980527D01*
X93860151Y-56083203D01*
X93919753Y-56178709D01*
X93973923Y-56265035D01*
X94021387Y-56340172D01*
X94060871Y-56402110D01*
X94091102Y-56448840D01*
X94110807Y-56478351D01*
X94118712Y-56488635D01*
X94119306Y-56488181D01*
X94129472Y-56473601D01*
X94150807Y-56439992D01*
X94182077Y-56389390D01*
X94222044Y-56323833D01*
X94269471Y-56245355D01*
X94323121Y-56155994D01*
X94381759Y-56057786D01*
X94444147Y-55952768D01*
X94761709Y-55416900D01*
X94877050Y-55416587D01*
X94904875Y-55416687D01*
G37*
G36*
X89871698Y-54653040D02*
G01*
X89851466Y-54677290D01*
X89816570Y-54719149D01*
X89770086Y-54774931D01*
X89714265Y-54841931D01*
X89651357Y-54917450D01*
X89583614Y-54998784D01*
X89513288Y-55083231D01*
X89215186Y-55441212D01*
X88691497Y-55441212D01*
X88604259Y-55441195D01*
X88491678Y-55441063D01*
X88400504Y-55440720D01*
X88328610Y-55440076D01*
X88273869Y-55439038D01*
X88234156Y-55437514D01*
X88207345Y-55435412D01*
X88191308Y-55432641D01*
X88183920Y-55429108D01*
X88183055Y-55424722D01*
X88186586Y-55419391D01*
X88191053Y-55414108D01*
X88210684Y-55390659D01*
X88243557Y-55351277D01*
X88287913Y-55298070D01*
X88341994Y-55233150D01*
X88404042Y-55158625D01*
X88472301Y-55076605D01*
X88545012Y-54989200D01*
X88884661Y-54580829D01*
X89932006Y-54580829D01*
X89871698Y-54653040D01*
G37*
G36*
X88486873Y-55862052D02*
G01*
X88527901Y-55911271D01*
X88597914Y-55995407D01*
X88662146Y-56072778D01*
X88718893Y-56141323D01*
X88766454Y-56198979D01*
X88803125Y-56243686D01*
X88827206Y-56273383D01*
X88836993Y-56286009D01*
X88836812Y-56288515D01*
X88828045Y-56292031D01*
X88807176Y-56294891D01*
X88772373Y-56297149D01*
X88721802Y-56298861D01*
X88653629Y-56300081D01*
X88566020Y-56300865D01*
X88457141Y-56301267D01*
X88325159Y-56301342D01*
X87803829Y-56301089D01*
X87460923Y-55888367D01*
X87416630Y-55835006D01*
X87347021Y-55750935D01*
X87283435Y-55673880D01*
X87227529Y-55605865D01*
X87180962Y-55548912D01*
X87145389Y-55505045D01*
X87122470Y-55476288D01*
X87113860Y-55464664D01*
X87115127Y-55463758D01*
X87134699Y-55461383D01*
X87176043Y-55459236D01*
X87236835Y-55457369D01*
X87314748Y-55455830D01*
X87407460Y-55454670D01*
X87512644Y-55453937D01*
X87627976Y-55453682D01*
X88146249Y-55453682D01*
X88486873Y-55862052D01*
G37*
G36*
X96575994Y-55603313D02*
G01*
X95977467Y-55603313D01*
X95971358Y-55603314D01*
X95852188Y-55603452D01*
X95741090Y-55603824D01*
X95640473Y-55604405D01*
X95552746Y-55605170D01*
X95480320Y-55606093D01*
X95425604Y-55607150D01*
X95391007Y-55608315D01*
X95378940Y-55609562D01*
X95378956Y-55609631D01*
X95386550Y-55621519D01*
X95407300Y-55652380D01*
X95440207Y-55700759D01*
X95484271Y-55765201D01*
X95538492Y-55844250D01*
X95601870Y-55936453D01*
X95673404Y-56040355D01*
X95752095Y-56154499D01*
X95836943Y-56277432D01*
X95926948Y-56407698D01*
X96021110Y-56543843D01*
X96073694Y-56619837D01*
X96177386Y-56769732D01*
X96268146Y-56901063D01*
X96346836Y-57015162D01*
X96414318Y-57113357D01*
X96471451Y-57196978D01*
X96519098Y-57267354D01*
X96558119Y-57325815D01*
X96589376Y-57373690D01*
X96613731Y-57412308D01*
X96632044Y-57443000D01*
X96645177Y-57467095D01*
X96653990Y-57485922D01*
X96659346Y-57500810D01*
X96662106Y-57513089D01*
X96663130Y-57524090D01*
X96663279Y-57535140D01*
X96663279Y-57598404D01*
X95117084Y-57598404D01*
X95117084Y-57411365D01*
X95740550Y-57411365D01*
X95767443Y-57411359D01*
X95887984Y-57411205D01*
X96000113Y-57410851D01*
X96101469Y-57410319D01*
X96189690Y-57409630D01*
X96262416Y-57408807D01*
X96317287Y-57407869D01*
X96351940Y-57406839D01*
X96364016Y-57405737D01*
X96357446Y-57395340D01*
X96337744Y-57365799D01*
X96305906Y-57318598D01*
X96262933Y-57255204D01*
X96209823Y-57177086D01*
X96147579Y-57085710D01*
X96077198Y-56982545D01*
X95999681Y-56869059D01*
X95916028Y-56746720D01*
X95827240Y-56616995D01*
X95734315Y-56481354D01*
X95104615Y-55562598D01*
X95104615Y-55416274D01*
X96575994Y-55416274D01*
X96575994Y-55603313D01*
G37*
G36*
X91243901Y-56716322D02*
G01*
X91233788Y-56799880D01*
X91221741Y-56862430D01*
X91176434Y-57029305D01*
X91115246Y-57177833D01*
X91038394Y-57307549D01*
X90946097Y-57417982D01*
X90863938Y-57491122D01*
X90749212Y-57565434D01*
X90623448Y-57617648D01*
X90485109Y-57648531D01*
X90479040Y-57649326D01*
X90426637Y-57653369D01*
X90363540Y-57654821D01*
X90302077Y-57653357D01*
X90192906Y-57642245D01*
X90066653Y-57612681D01*
X89952474Y-57564665D01*
X89846421Y-57496841D01*
X89769228Y-57438424D01*
X89674682Y-57549587D01*
X89580137Y-57660751D01*
X89472906Y-57660751D01*
X89431533Y-57660568D01*
X89396622Y-57659275D01*
X89379541Y-57655891D01*
X89376271Y-57649444D01*
X89382789Y-57638961D01*
X89388947Y-57631309D01*
X89410372Y-57605160D01*
X89442753Y-57565911D01*
X89482922Y-57517398D01*
X89527712Y-57463457D01*
X89555722Y-57429543D01*
X89595339Y-57380704D01*
X89626976Y-57340609D01*
X89647937Y-57312701D01*
X89655523Y-57300421D01*
X89651279Y-57288271D01*
X89637847Y-57259854D01*
X89618417Y-57222591D01*
X89587617Y-57161068D01*
X89529983Y-57012914D01*
X89487043Y-56851502D01*
X89459792Y-56682247D01*
X89449229Y-56510561D01*
X89450487Y-56480740D01*
X89656869Y-56480740D01*
X89658315Y-56594104D01*
X89664788Y-56704362D01*
X89676076Y-56804366D01*
X89691968Y-56886968D01*
X89707061Y-56940599D01*
X89726037Y-56998116D01*
X89746117Y-57051469D01*
X89765302Y-57095708D01*
X89781591Y-57125881D01*
X89792985Y-57137040D01*
X89793243Y-57137017D01*
X89805735Y-57127160D01*
X89828479Y-57102822D01*
X89856746Y-57069048D01*
X89911144Y-57001057D01*
X90020251Y-57000467D01*
X90042539Y-57000461D01*
X90087010Y-57001245D01*
X90117830Y-57002937D01*
X90129357Y-57005288D01*
X90128518Y-57006941D01*
X90116266Y-57023281D01*
X90091676Y-57053838D01*
X90057661Y-57095030D01*
X90017133Y-57143274D01*
X90004231Y-57158618D01*
X89965211Y-57206361D01*
X89933681Y-57246964D01*
X89912595Y-57276531D01*
X89904909Y-57291167D01*
X89905500Y-57293838D01*
X89919391Y-57311798D01*
X89947515Y-57337346D01*
X89984236Y-57366016D01*
X90023923Y-57393343D01*
X90060940Y-57414859D01*
X90078766Y-57422860D01*
X90120935Y-57438539D01*
X90166930Y-57452847D01*
X90265696Y-57473277D01*
X90389858Y-57479081D01*
X90508649Y-57462463D01*
X90619646Y-57424060D01*
X90720427Y-57364508D01*
X90808571Y-57284442D01*
X90872217Y-57201355D01*
X90935584Y-57085759D01*
X90984944Y-56955787D01*
X91020172Y-56814931D01*
X91041146Y-56666684D01*
X91047741Y-56514536D01*
X91039833Y-56361978D01*
X91017298Y-56212504D01*
X90980012Y-56069604D01*
X90927851Y-55936769D01*
X90860691Y-55817492D01*
X90842163Y-55791238D01*
X90762171Y-55701217D01*
X90670022Y-55629057D01*
X90569826Y-55578142D01*
X90526944Y-55564983D01*
X90447989Y-55550466D01*
X90360947Y-55543134D01*
X90275527Y-55543658D01*
X90201436Y-55552708D01*
X90189076Y-55555410D01*
X90077788Y-55593293D01*
X89978199Y-55652755D01*
X89890807Y-55733140D01*
X89816110Y-55833788D01*
X89754608Y-55954041D01*
X89706799Y-56093239D01*
X89673180Y-56250726D01*
X89669899Y-56273280D01*
X89660660Y-56371416D01*
X89656869Y-56480740D01*
X89450487Y-56480740D01*
X89456347Y-56341857D01*
X89464895Y-56269388D01*
X89497684Y-56097326D01*
X89546056Y-55940813D01*
X89609318Y-55800846D01*
X89686775Y-55678419D01*
X89777734Y-55574526D01*
X89881499Y-55490164D01*
X89997377Y-55426327D01*
X90124673Y-55384009D01*
X90141250Y-55380458D01*
X90217703Y-55370035D01*
X90305398Y-55365259D01*
X90395451Y-55366116D01*
X90478974Y-55372591D01*
X90547079Y-55384672D01*
X90559617Y-55388198D01*
X90610883Y-55405796D01*
X90670464Y-55429685D01*
X90727884Y-55455746D01*
X90837204Y-55521777D01*
X90939718Y-55611183D01*
X91029969Y-55720273D01*
X91106834Y-55847447D01*
X91169187Y-55991108D01*
X91215905Y-56149655D01*
X91224922Y-56195087D01*
X91237309Y-56288376D01*
X91245605Y-56394569D01*
X91249605Y-56506241D01*
X91249567Y-56514536D01*
X91249105Y-56615967D01*
X91243901Y-56716322D01*
G37*
G36*
X91641337Y-56342121D02*
G01*
X91641200Y-56363131D01*
X91640103Y-56556895D01*
X91639464Y-56726136D01*
X91639286Y-56871227D01*
X91639572Y-56992539D01*
X91640324Y-57090448D01*
X91641545Y-57165325D01*
X91643239Y-57217543D01*
X91645407Y-57247477D01*
X91648052Y-57255498D01*
X91654886Y-57246082D01*
X91674739Y-57217120D01*
X91706464Y-57170195D01*
X91749053Y-57106821D01*
X91801493Y-57028510D01*
X91862777Y-56936773D01*
X91931892Y-56833124D01*
X92007830Y-56719075D01*
X92089579Y-56596138D01*
X92176129Y-56465826D01*
X92266471Y-56329651D01*
X92872090Y-55416274D01*
X93072116Y-55416274D01*
X93072116Y-57598404D01*
X92872765Y-57598404D01*
X92869568Y-56661976D01*
X92866372Y-55725548D01*
X92260314Y-56658859D01*
X91654255Y-57592170D01*
X91552680Y-57595791D01*
X91451105Y-57599413D01*
X91451105Y-55416274D01*
X91647421Y-55416274D01*
X91641337Y-56342121D01*
G37*
G04 #@! TO.C,SYME6*
G36*
X101919238Y-61152014D02*
G01*
X101924337Y-61156863D01*
X101936398Y-61169694D01*
X101954738Y-61189732D01*
X101978672Y-61216203D01*
X102007517Y-61248332D01*
X102040588Y-61285345D01*
X102077202Y-61326467D01*
X102116675Y-61370924D01*
X102158322Y-61417941D01*
X102201460Y-61466745D01*
X102245405Y-61516560D01*
X102289472Y-61566611D01*
X102332979Y-61616125D01*
X102375240Y-61664328D01*
X102415573Y-61710443D01*
X102453292Y-61753698D01*
X102487715Y-61793317D01*
X102518157Y-61828526D01*
X102543934Y-61858551D01*
X102564362Y-61882617D01*
X102579261Y-61900323D01*
X101270512Y-61900323D01*
X101291147Y-61875416D01*
X101299515Y-61865404D01*
X101317468Y-61844196D01*
X101340959Y-61816666D01*
X101369293Y-61783615D01*
X101401775Y-61745842D01*
X101437713Y-61704146D01*
X101476410Y-61659329D01*
X101517173Y-61612190D01*
X101559308Y-61563528D01*
X101602120Y-61514143D01*
X101644914Y-61464836D01*
X101686996Y-61416407D01*
X101727673Y-61369654D01*
X101766249Y-61325379D01*
X101802030Y-61284380D01*
X101834322Y-61247458D01*
X101862431Y-61215413D01*
X101885661Y-61189044D01*
X101903320Y-61169152D01*
X101914711Y-61156536D01*
X101919142Y-61151996D01*
X101919238Y-61152014D01*
G37*
G36*
X98563836Y-59448434D02*
G01*
X98573105Y-59464877D01*
X98615277Y-59539658D01*
X98655821Y-59611511D01*
X98694363Y-59679773D01*
X98730526Y-59743783D01*
X98763937Y-59802878D01*
X98794221Y-59856397D01*
X98821002Y-59903676D01*
X98843907Y-59944053D01*
X98862559Y-59976866D01*
X98876583Y-60001453D01*
X98885606Y-60017152D01*
X98889252Y-60023300D01*
X98890480Y-60023283D01*
X98894276Y-60019393D01*
X98900665Y-60010510D01*
X98909901Y-59996192D01*
X98922237Y-59975998D01*
X98937926Y-59949489D01*
X98957221Y-59916224D01*
X98980376Y-59875761D01*
X99007642Y-59827662D01*
X99039274Y-59771485D01*
X99075525Y-59706789D01*
X99116647Y-59633135D01*
X99162893Y-59550081D01*
X99214518Y-59457188D01*
X99533618Y-58882549D01*
X99746066Y-58882322D01*
X99794448Y-58882340D01*
X99839149Y-58882489D01*
X99878646Y-58882757D01*
X99911633Y-58883128D01*
X99936810Y-58883587D01*
X99952871Y-58884121D01*
X99958514Y-58884714D01*
X99955612Y-58889955D01*
X99947094Y-58904736D01*
X99933293Y-58928494D01*
X99914537Y-58960664D01*
X99891158Y-59000682D01*
X99863486Y-59047986D01*
X99831850Y-59102010D01*
X99796581Y-59162192D01*
X99758010Y-59227967D01*
X99716466Y-59298771D01*
X99672281Y-59374041D01*
X99625784Y-59453214D01*
X99577305Y-59535725D01*
X99527175Y-59621010D01*
X99487095Y-59689196D01*
X99430899Y-59784863D01*
X99380227Y-59871217D01*
X99334813Y-59948725D01*
X99294390Y-60017856D01*
X99258692Y-60079077D01*
X99227451Y-60132857D01*
X99200401Y-60179662D01*
X99177275Y-60219962D01*
X99157806Y-60254223D01*
X99141727Y-60282914D01*
X99128771Y-60306503D01*
X99118672Y-60325457D01*
X99111162Y-60340245D01*
X99105975Y-60351334D01*
X99102845Y-60359192D01*
X99101503Y-60364288D01*
X99101684Y-60367088D01*
X99102009Y-60367703D01*
X99106997Y-60376368D01*
X99117576Y-60394406D01*
X99133414Y-60421257D01*
X99154178Y-60456361D01*
X99179533Y-60499155D01*
X99209147Y-60549079D01*
X99242687Y-60605572D01*
X99279820Y-60668072D01*
X99320211Y-60736019D01*
X99363529Y-60808852D01*
X99409440Y-60886009D01*
X99457610Y-60966929D01*
X99507706Y-61051051D01*
X99559396Y-61137815D01*
X99572768Y-61160256D01*
X99623948Y-61246169D01*
X99673383Y-61329178D01*
X99720746Y-61408733D01*
X99765708Y-61484283D01*
X99807942Y-61555276D01*
X99847120Y-61621161D01*
X99882916Y-61681387D01*
X99915002Y-61735404D01*
X99943050Y-61782659D01*
X99966732Y-61822602D01*
X99985722Y-61854682D01*
X99999692Y-61878348D01*
X100008313Y-61893049D01*
X100011260Y-61898233D01*
X100007169Y-61898648D01*
X99992621Y-61899099D01*
X99968813Y-61899496D01*
X99937076Y-61899825D01*
X99898741Y-61900073D01*
X99855140Y-61900226D01*
X99807603Y-61900272D01*
X99603946Y-61900221D01*
X99249527Y-61290454D01*
X99198952Y-61203497D01*
X99148222Y-61116420D01*
X99102862Y-61038742D01*
X99062630Y-60970059D01*
X99027285Y-60909967D01*
X98996584Y-60858062D01*
X98970284Y-60813940D01*
X98948145Y-60777197D01*
X98929923Y-60747429D01*
X98915376Y-60724231D01*
X98904262Y-60707201D01*
X98896339Y-60695932D01*
X98891365Y-60690022D01*
X98889098Y-60689067D01*
X98887444Y-60691756D01*
X98880258Y-60703895D01*
X98867798Y-60725138D01*
X98850432Y-60754852D01*
X98828530Y-60792399D01*
X98802462Y-60837146D01*
X98772598Y-60888457D01*
X98739307Y-60945698D01*
X98702958Y-61008232D01*
X98663921Y-61075425D01*
X98622566Y-61146643D01*
X98579262Y-61221249D01*
X98534380Y-61298609D01*
X98185672Y-61899772D01*
X97973224Y-61900048D01*
X97924842Y-61900036D01*
X97880141Y-61899880D01*
X97840644Y-61899597D01*
X97807657Y-61899200D01*
X97782480Y-61898707D01*
X97766419Y-61898132D01*
X97760776Y-61897492D01*
X97761236Y-61896606D01*
X97766509Y-61887597D01*
X97777407Y-61869325D01*
X97793603Y-61842334D01*
X97814766Y-61807168D01*
X97840568Y-61764371D01*
X97870682Y-61714487D01*
X97904776Y-61658059D01*
X97942524Y-61595633D01*
X97983597Y-61527751D01*
X98027664Y-61454958D01*
X98074399Y-61377797D01*
X98123471Y-61296813D01*
X98174553Y-61212550D01*
X98227315Y-61125552D01*
X98259024Y-61073267D01*
X98321988Y-60969358D01*
X98379135Y-60874918D01*
X98430674Y-60789594D01*
X98476816Y-60713030D01*
X98517771Y-60644871D01*
X98553750Y-60584762D01*
X98584962Y-60532348D01*
X98611619Y-60487275D01*
X98633930Y-60449185D01*
X98652105Y-60417726D01*
X98666356Y-60392542D01*
X98676893Y-60373278D01*
X98683925Y-60359578D01*
X98687664Y-60351089D01*
X98688319Y-60347454D01*
X98683827Y-60339980D01*
X98673630Y-60322799D01*
X98658422Y-60297065D01*
X98638609Y-60263470D01*
X98614596Y-60222704D01*
X98586788Y-60175458D01*
X98555592Y-60122425D01*
X98521413Y-60064293D01*
X98484657Y-60001756D01*
X98445728Y-59935503D01*
X98405033Y-59866225D01*
X98362977Y-59794614D01*
X98319966Y-59721361D01*
X98276405Y-59647157D01*
X98232700Y-59572692D01*
X98189256Y-59498658D01*
X98146480Y-59425746D01*
X98104776Y-59354646D01*
X98064550Y-59286051D01*
X98026208Y-59220650D01*
X97990155Y-59159135D01*
X97956797Y-59102197D01*
X97926540Y-59050526D01*
X97899788Y-59004815D01*
X97876948Y-58965753D01*
X97858426Y-58934033D01*
X97844626Y-58910344D01*
X97835954Y-58895379D01*
X97832816Y-58889827D01*
X97832710Y-58889346D01*
X97834652Y-58887340D01*
X97841354Y-58885723D01*
X97853811Y-58884458D01*
X97873017Y-58883507D01*
X97899966Y-58882833D01*
X97935653Y-58882398D01*
X97981072Y-58882165D01*
X98037216Y-58882096D01*
X98244584Y-58882096D01*
X98563836Y-59448434D01*
G37*
G36*
X89995525Y-59455907D02*
G01*
X90008274Y-59478817D01*
X90050011Y-59553713D01*
X90090076Y-59625454D01*
X90128104Y-59693393D01*
X90163731Y-59756886D01*
X90196592Y-59815288D01*
X90226323Y-59867953D01*
X90252559Y-59914238D01*
X90274936Y-59953496D01*
X90293088Y-59985082D01*
X90306652Y-60008353D01*
X90315261Y-60022662D01*
X90318553Y-60027364D01*
X90318920Y-60026878D01*
X90323782Y-60018816D01*
X90333913Y-60001369D01*
X90348945Y-59975186D01*
X90368507Y-59940917D01*
X90392233Y-59899214D01*
X90419751Y-59850726D01*
X90450694Y-59796105D01*
X90484693Y-59736000D01*
X90521378Y-59671063D01*
X90560381Y-59601943D01*
X90601333Y-59529291D01*
X90643865Y-59453759D01*
X90965367Y-58882508D01*
X91385359Y-58882096D01*
X91373769Y-58901143D01*
X91370899Y-58905993D01*
X91362243Y-58920767D01*
X91348306Y-58944619D01*
X91329432Y-58976960D01*
X91305965Y-59017198D01*
X91278249Y-59064743D01*
X91246627Y-59119005D01*
X91211445Y-59179394D01*
X91173045Y-59245319D01*
X91131773Y-59316189D01*
X91087971Y-59391416D01*
X91041984Y-59470407D01*
X90994155Y-59552573D01*
X90944830Y-59637324D01*
X90914185Y-59689989D01*
X90858409Y-59785899D01*
X90808150Y-59872413D01*
X90763138Y-59950009D01*
X90723105Y-60019164D01*
X90687782Y-60080354D01*
X90656899Y-60134056D01*
X90630189Y-60180748D01*
X90607381Y-60220905D01*
X90588207Y-60255006D01*
X90572398Y-60283526D01*
X90559686Y-60306943D01*
X90549801Y-60325733D01*
X90542474Y-60340373D01*
X90537437Y-60351340D01*
X90534421Y-60359111D01*
X90533157Y-60364163D01*
X90533375Y-60366973D01*
X90533702Y-60367592D01*
X90538696Y-60376272D01*
X90549281Y-60394325D01*
X90565125Y-60421192D01*
X90585894Y-60456310D01*
X90611254Y-60499118D01*
X90640873Y-60549056D01*
X90674417Y-60605562D01*
X90711553Y-60668075D01*
X90751948Y-60736033D01*
X90795268Y-60808877D01*
X90841181Y-60886043D01*
X90889352Y-60966972D01*
X90939450Y-61051102D01*
X90991140Y-61137872D01*
X91004537Y-61160357D01*
X91055716Y-61246272D01*
X91105149Y-61329282D01*
X91152509Y-61408836D01*
X91197469Y-61484385D01*
X91239701Y-61555376D01*
X91278878Y-61621258D01*
X91314672Y-61681481D01*
X91346756Y-61735494D01*
X91374802Y-61782744D01*
X91398484Y-61822683D01*
X91417472Y-61854757D01*
X91431441Y-61878417D01*
X91440063Y-61893112D01*
X91443009Y-61898289D01*
X91438918Y-61898694D01*
X91424370Y-61899133D01*
X91400562Y-61899521D01*
X91368825Y-61899842D01*
X91330490Y-61900086D01*
X91286889Y-61900237D01*
X91239352Y-61900285D01*
X91035695Y-61900246D01*
X90678636Y-61293421D01*
X90645288Y-61236761D01*
X90600849Y-61161309D01*
X90558310Y-61089143D01*
X90518039Y-61020881D01*
X90480403Y-60957145D01*
X90445768Y-60898555D01*
X90414502Y-60845729D01*
X90386972Y-60799290D01*
X90363545Y-60759856D01*
X90344588Y-60728047D01*
X90330468Y-60704484D01*
X90321552Y-60689787D01*
X90318207Y-60684575D01*
X90316486Y-60686862D01*
X90309325Y-60698352D01*
X90296954Y-60718960D01*
X90279736Y-60748064D01*
X90258030Y-60785043D01*
X90232197Y-60829279D01*
X90202598Y-60880149D01*
X90169595Y-60937035D01*
X90133547Y-60999315D01*
X90094816Y-61066369D01*
X90053762Y-61137577D01*
X90010746Y-61212319D01*
X89966129Y-61289973D01*
X89617421Y-61897393D01*
X89407903Y-61898932D01*
X89392666Y-61899040D01*
X89338871Y-61899329D01*
X89295530Y-61899368D01*
X89261633Y-61899128D01*
X89236166Y-61898578D01*
X89218120Y-61897688D01*
X89206482Y-61896427D01*
X89200241Y-61894766D01*
X89198385Y-61892674D01*
X89198729Y-61891805D01*
X89203698Y-61882738D01*
X89214315Y-61864392D01*
X89230249Y-61837315D01*
X89251170Y-61802060D01*
X89276748Y-61759175D01*
X89306652Y-61709210D01*
X89340552Y-61652717D01*
X89378118Y-61590244D01*
X89419019Y-61522343D01*
X89462925Y-61449563D01*
X89509506Y-61372454D01*
X89558431Y-61291567D01*
X89609370Y-61207451D01*
X89661992Y-61120657D01*
X89690531Y-61073603D01*
X89753554Y-60969611D01*
X89810749Y-60875103D01*
X89862328Y-60789723D01*
X89908502Y-60713115D01*
X89949482Y-60644922D01*
X89985479Y-60584788D01*
X90016705Y-60532358D01*
X90043370Y-60487273D01*
X90065685Y-60449179D01*
X90083862Y-60417718D01*
X90098112Y-60392535D01*
X90108646Y-60373273D01*
X90115674Y-60359576D01*
X90119409Y-60351087D01*
X90120060Y-60347450D01*
X90119690Y-60346838D01*
X90114628Y-60338351D01*
X90104117Y-60320682D01*
X90088567Y-60294520D01*
X90068385Y-60260552D01*
X90043981Y-60219466D01*
X90015761Y-60171951D01*
X89984134Y-60118693D01*
X89949510Y-60060381D01*
X89912295Y-59997702D01*
X89872898Y-59931346D01*
X89831728Y-59861998D01*
X89789193Y-59790348D01*
X89745701Y-59717082D01*
X89701661Y-59642890D01*
X89657480Y-59568458D01*
X89613567Y-59494475D01*
X89570331Y-59421628D01*
X89528179Y-59350606D01*
X89487521Y-59282095D01*
X89448763Y-59216785D01*
X89412315Y-59155363D01*
X89378585Y-59098516D01*
X89347981Y-59046933D01*
X89320911Y-59001302D01*
X89297784Y-58962310D01*
X89279008Y-58930645D01*
X89264991Y-58906995D01*
X89256142Y-58892047D01*
X89252869Y-58886491D01*
X89252863Y-58886478D01*
X89258076Y-58885476D01*
X89273712Y-58884555D01*
X89298489Y-58883741D01*
X89331126Y-58883061D01*
X89370341Y-58882542D01*
X89414850Y-58882212D01*
X89463374Y-58882096D01*
X89676308Y-58882096D01*
X89995525Y-59455907D01*
G37*
G36*
X92030523Y-60039011D02*
G01*
X92032003Y-61195927D01*
X92799747Y-60039134D01*
X93567490Y-58882342D01*
X93738914Y-58882219D01*
X93910337Y-58882096D01*
X93910337Y-61900323D01*
X93541146Y-61900323D01*
X93539666Y-60738395D01*
X93538187Y-59576466D01*
X92770314Y-60736930D01*
X92002442Y-61897393D01*
X91837008Y-61898950D01*
X91671574Y-61900506D01*
X91671574Y-58882096D01*
X92029044Y-58882096D01*
X92030523Y-60039011D01*
G37*
G36*
X97543932Y-61900323D02*
G01*
X97174712Y-61900323D01*
X97174712Y-58882096D01*
X97543932Y-58882096D01*
X97543932Y-61900323D01*
G37*
G36*
X101999767Y-58882917D02*
G01*
X102089481Y-58883031D01*
X102173739Y-58883229D01*
X102249522Y-58883512D01*
X102578118Y-58885026D01*
X102249456Y-59261392D01*
X101920794Y-59637759D01*
X101831150Y-59533912D01*
X101817246Y-59517801D01*
X101791809Y-59488315D01*
X101760483Y-59451994D01*
X101724302Y-59410035D01*
X101684295Y-59363635D01*
X101641495Y-59313989D01*
X101596933Y-59262294D01*
X101551642Y-59209748D01*
X101506652Y-59157545D01*
X101271797Y-58885026D01*
X101596362Y-58883512D01*
X101646778Y-58883308D01*
X101728105Y-58883084D01*
X101816059Y-58882944D01*
X101907620Y-58882888D01*
X101999767Y-58882917D01*
G37*
G36*
X96676558Y-61900323D02*
G01*
X95076604Y-61900323D01*
X95076604Y-61572128D01*
X96307338Y-61572128D01*
X96307338Y-58882096D01*
X96676558Y-58882096D01*
X96676558Y-61900323D01*
G37*
G36*
X94777711Y-61900323D02*
G01*
X94408491Y-61900323D01*
X94408491Y-58882096D01*
X94777711Y-58882096D01*
X94777711Y-61900323D01*
G37*
G36*
X103859279Y-59243831D02*
G01*
X103882410Y-59270313D01*
X103930552Y-59325442D01*
X103976409Y-59377968D01*
X104019377Y-59427198D01*
X104058854Y-59472441D01*
X104094237Y-59513007D01*
X104124923Y-59548202D01*
X104150308Y-59577337D01*
X104169790Y-59599720D01*
X104182765Y-59614659D01*
X104188631Y-59621463D01*
X104202019Y-59637360D01*
X103877802Y-60008424D01*
X103846226Y-60044572D01*
X103798152Y-60099645D01*
X103752634Y-60151835D01*
X103710245Y-60200482D01*
X103671559Y-60244927D01*
X103637150Y-60284509D01*
X103607590Y-60318570D01*
X103583454Y-60346448D01*
X103565315Y-60367483D01*
X103553746Y-60381017D01*
X103549321Y-60386389D01*
X103551415Y-60390608D01*
X103560847Y-60403386D01*
X103577541Y-60424286D01*
X103601208Y-60452966D01*
X103631558Y-60489084D01*
X103668302Y-60532299D01*
X103711151Y-60582269D01*
X103759816Y-60638653D01*
X103814009Y-60701108D01*
X103873438Y-60769294D01*
X104201817Y-61145299D01*
X104187117Y-61162770D01*
X104185372Y-61164812D01*
X104176113Y-61175512D01*
X104160016Y-61194038D01*
X104137690Y-61219691D01*
X104109741Y-61251776D01*
X104076778Y-61289593D01*
X104039409Y-61332448D01*
X103998241Y-61379641D01*
X103953883Y-61430476D01*
X103906941Y-61484256D01*
X103858025Y-61540283D01*
X103543635Y-61900323D01*
X103063857Y-61900323D01*
X103025611Y-61900314D01*
X102953427Y-61900243D01*
X102885160Y-61900108D01*
X102821676Y-61899914D01*
X102763844Y-61899666D01*
X102712529Y-61899370D01*
X102668600Y-61899031D01*
X102632923Y-61898654D01*
X102606366Y-61898245D01*
X102589796Y-61897808D01*
X102584080Y-61897351D01*
X102585794Y-61895085D01*
X102594431Y-61884765D01*
X102609850Y-61866711D01*
X102631487Y-61841572D01*
X102658778Y-61809998D01*
X102691162Y-61772636D01*
X102728076Y-61730138D01*
X102768956Y-61683150D01*
X102813241Y-61632323D01*
X102860366Y-61578306D01*
X102909771Y-61521746D01*
X102943060Y-61483606D01*
X102990935Y-61428564D01*
X103036094Y-61376419D01*
X103077977Y-61327828D01*
X103116028Y-61283448D01*
X103149687Y-61243933D01*
X103178397Y-61209941D01*
X103201600Y-61182126D01*
X103218737Y-61161146D01*
X103229251Y-61147656D01*
X103232582Y-61142312D01*
X103232054Y-61141570D01*
X103225556Y-61133725D01*
X103212194Y-61118034D01*
X103192606Y-61095232D01*
X103167432Y-61066055D01*
X103137312Y-61031239D01*
X103102887Y-60991517D01*
X103064794Y-60947627D01*
X103023675Y-60900302D01*
X102980168Y-60850279D01*
X102934914Y-60798292D01*
X102888553Y-60745077D01*
X102841723Y-60691369D01*
X102795065Y-60637904D01*
X102749218Y-60585417D01*
X102704822Y-60534642D01*
X102662517Y-60486316D01*
X102622942Y-60441174D01*
X102586737Y-60399951D01*
X102586190Y-60398785D01*
X102586737Y-60395204D01*
X102589659Y-60389285D01*
X102595403Y-60380491D01*
X102604418Y-60368283D01*
X102617153Y-60352124D01*
X102634054Y-60331475D01*
X102655571Y-60305801D01*
X102682152Y-60274562D01*
X102714245Y-60237220D01*
X102752299Y-60193239D01*
X102796760Y-60142080D01*
X102848078Y-60083206D01*
X102906701Y-60016079D01*
X102941792Y-59975902D01*
X102989820Y-59920835D01*
X103035178Y-59868742D01*
X103077303Y-59820272D01*
X103115635Y-59776074D01*
X103149612Y-59736797D01*
X103178673Y-59703092D01*
X103202256Y-59675606D01*
X103219800Y-59654989D01*
X103230743Y-59641892D01*
X103234524Y-59636961D01*
X103232855Y-59634624D01*
X103224279Y-59624190D01*
X103208919Y-59606023D01*
X103187337Y-59580774D01*
X103160096Y-59549096D01*
X103127760Y-59511640D01*
X103090890Y-59469057D01*
X103050051Y-59422000D01*
X103005806Y-59371121D01*
X102958716Y-59317071D01*
X102909345Y-59260501D01*
X102876216Y-59222558D01*
X102828308Y-59167632D01*
X102783054Y-59115681D01*
X102741016Y-59067355D01*
X102702757Y-59023302D01*
X102668840Y-58984172D01*
X102639827Y-58950616D01*
X102616282Y-58923282D01*
X102598767Y-58902820D01*
X102587845Y-58889880D01*
X102584080Y-58885111D01*
X102585591Y-58884872D01*
X102596961Y-58884418D01*
X102618742Y-58883989D01*
X102650067Y-58883590D01*
X102690067Y-58883226D01*
X102737877Y-58882903D01*
X102792627Y-58882627D01*
X102853452Y-58882403D01*
X102919484Y-58882236D01*
X102989855Y-58882131D01*
X103063698Y-58882096D01*
X103543316Y-58882096D01*
X103859279Y-59243831D01*
G37*
G04 #@! TO.C,SYM1*
G36*
X110042864Y-72707008D02*
G01*
X110216138Y-72794050D01*
X110363655Y-72947028D01*
X110448521Y-73125260D01*
X110469245Y-73312367D01*
X110426720Y-73493781D01*
X110321843Y-73654933D01*
X110155507Y-73781257D01*
X110099562Y-73809249D01*
X109942624Y-73860996D01*
X109796099Y-73855031D01*
X109628455Y-73791996D01*
X109621984Y-73788812D01*
X109464134Y-73671455D01*
X109356015Y-73512544D01*
X109303060Y-73330381D01*
X109310699Y-73143268D01*
X109384364Y-72969507D01*
X109497616Y-72840552D01*
X109667250Y-72733709D01*
X109854450Y-72688044D01*
X110042864Y-72707008D01*
G37*
G36*
X112455623Y-70378213D02*
G01*
X112526940Y-70411890D01*
X112687005Y-70536325D01*
X112781872Y-70703596D01*
X112812973Y-70915856D01*
X112799385Y-71056739D01*
X112724256Y-71247371D01*
X112586700Y-71392549D01*
X112390466Y-71487201D01*
X112346434Y-71499822D01*
X112238094Y-71517930D01*
X112138233Y-71502982D01*
X112009083Y-71451435D01*
X111840083Y-71342021D01*
X111716845Y-71187969D01*
X111654452Y-71009637D01*
X111655219Y-70821730D01*
X111721461Y-70638954D01*
X111855494Y-70476013D01*
X111886572Y-70449999D01*
X112063749Y-70349841D01*
X112251108Y-70326292D01*
X112455623Y-70378213D01*
G37*
G36*
X128913554Y-72730616D02*
G01*
X129081379Y-72826559D01*
X129215637Y-72969507D01*
X129217389Y-72972126D01*
X129289786Y-73146080D01*
X129296315Y-73333313D01*
X129242358Y-73515481D01*
X129133299Y-73674239D01*
X128974520Y-73791244D01*
X128924549Y-73814650D01*
X128764080Y-73862578D01*
X128614165Y-73851637D01*
X128444493Y-73781257D01*
X128418207Y-73766600D01*
X128261197Y-73635265D01*
X128165728Y-73471038D01*
X128132293Y-73287978D01*
X128161381Y-73100143D01*
X128253483Y-72921590D01*
X128409089Y-72766377D01*
X128553858Y-72699048D01*
X128731325Y-72686503D01*
X128913554Y-72730616D01*
G37*
G36*
X126568412Y-70362066D02*
G01*
X126744507Y-70476013D01*
X126871501Y-70626758D01*
X126942451Y-70808617D01*
X126947580Y-70996692D01*
X126889177Y-71176440D01*
X126769527Y-71333314D01*
X126590918Y-71452770D01*
X126440146Y-71499791D01*
X126241300Y-71492790D01*
X126040769Y-71407726D01*
X125913693Y-71299524D01*
X125818668Y-71127119D01*
X125786769Y-70909826D01*
X125789981Y-70838900D01*
X125842835Y-70642398D01*
X125960847Y-70489014D01*
X126144377Y-70378213D01*
X126182440Y-70363467D01*
X126383382Y-70324929D01*
X126568412Y-70362066D01*
G37*
G36*
X110046364Y-67996368D02*
G01*
X110226156Y-68084494D01*
X110373309Y-68238194D01*
X110439810Y-68371635D01*
X110469870Y-68565086D01*
X110434801Y-68756967D01*
X110338700Y-68929249D01*
X110185665Y-69063903D01*
X110056828Y-69117277D01*
X109882462Y-69141554D01*
X109838010Y-69140084D01*
X109644576Y-69094673D01*
X109490301Y-68995951D01*
X109378872Y-68857739D01*
X109313975Y-68693859D01*
X109299297Y-68518134D01*
X109338526Y-68344385D01*
X109435349Y-68186435D01*
X109593453Y-68058104D01*
X109647409Y-68030359D01*
X109848570Y-67977196D01*
X110046364Y-67996368D01*
G37*
G36*
X119536750Y-70040670D02*
G01*
X119917806Y-70041175D01*
X120232578Y-70042447D01*
X120488774Y-70044772D01*
X120694100Y-70048438D01*
X120856263Y-70053731D01*
X120982969Y-70060938D01*
X121081926Y-70070347D01*
X121160841Y-70082244D01*
X121227419Y-70096915D01*
X121289369Y-70114649D01*
X121364112Y-70139755D01*
X121691120Y-70297324D01*
X121976270Y-70514924D01*
X122211487Y-70783718D01*
X122388699Y-71094869D01*
X122499830Y-71439539D01*
X122501688Y-71449998D01*
X122509233Y-71530872D01*
X122515971Y-71670952D01*
X122521921Y-71872132D01*
X122527103Y-72136306D01*
X122531533Y-72465370D01*
X122535231Y-72861218D01*
X122538216Y-73325744D01*
X122540505Y-73860844D01*
X122542117Y-74468411D01*
X122543071Y-75150340D01*
X122543385Y-75908526D01*
X122543385Y-80170436D01*
X122460990Y-80317038D01*
X122448459Y-80337749D01*
X122350672Y-80455161D01*
X122236298Y-80546153D01*
X122195724Y-80567570D01*
X122000737Y-80621236D01*
X121802750Y-80605811D01*
X121620206Y-80525218D01*
X121471547Y-80383384D01*
X121470076Y-80381375D01*
X121457624Y-80363125D01*
X121446521Y-80341481D01*
X121436667Y-80312045D01*
X121427963Y-80270419D01*
X121420309Y-80212206D01*
X121413606Y-80133007D01*
X121407753Y-80028426D01*
X121402652Y-79894065D01*
X121398204Y-79725527D01*
X121394307Y-79518413D01*
X121390864Y-79268327D01*
X121387773Y-78970871D01*
X121384937Y-78621646D01*
X121382255Y-78216257D01*
X121379627Y-77750304D01*
X121376955Y-77219391D01*
X121374138Y-76619121D01*
X121371077Y-75945094D01*
X121351539Y-71617113D01*
X121238926Y-71469487D01*
X121200884Y-71420230D01*
X121155238Y-71367605D01*
X121105259Y-71324642D01*
X121043567Y-71290425D01*
X120962779Y-71264035D01*
X120855514Y-71244556D01*
X120714388Y-71231071D01*
X120532021Y-71222663D01*
X120301029Y-71218414D01*
X120014032Y-71217407D01*
X119663646Y-71218725D01*
X119242490Y-71221452D01*
X118906213Y-71223814D01*
X118567331Y-71226597D01*
X118292855Y-71229701D01*
X118075280Y-71233531D01*
X117907100Y-71238492D01*
X117780812Y-71244990D01*
X117688909Y-71253429D01*
X117623886Y-71264214D01*
X117578239Y-71277751D01*
X117544461Y-71294444D01*
X117515049Y-71314700D01*
X117507138Y-71320781D01*
X117409836Y-71416774D01*
X117326616Y-71529623D01*
X117316773Y-71547222D01*
X117305614Y-71572091D01*
X117295693Y-71604191D01*
X117286910Y-71647956D01*
X117279170Y-71707818D01*
X117272373Y-71788210D01*
X117266422Y-71893564D01*
X117261220Y-72028314D01*
X117256670Y-72196890D01*
X117252673Y-72403727D01*
X117249133Y-72653256D01*
X117245951Y-72949910D01*
X117243029Y-73298122D01*
X117240272Y-73702325D01*
X117237580Y-74166950D01*
X117234856Y-74696431D01*
X117232003Y-75295200D01*
X117228923Y-75967689D01*
X117228724Y-76011598D01*
X117225674Y-76679065D01*
X117222862Y-77273062D01*
X117220188Y-77797998D01*
X117217553Y-78258284D01*
X117214855Y-78658328D01*
X117211994Y-79002542D01*
X117208870Y-79295334D01*
X117205383Y-79541113D01*
X117201432Y-79744291D01*
X117196918Y-79909276D01*
X117191738Y-80040478D01*
X117185794Y-80142307D01*
X117178985Y-80219172D01*
X117171211Y-80275483D01*
X117162371Y-80315650D01*
X117152365Y-80344082D01*
X117141092Y-80365189D01*
X117128453Y-80383382D01*
X117107030Y-80410907D01*
X116955152Y-80541380D01*
X116777380Y-80610289D01*
X116590085Y-80619035D01*
X116409639Y-80569021D01*
X116252411Y-80461647D01*
X116134773Y-80298315D01*
X116125981Y-80279523D01*
X116114658Y-80250975D01*
X116104638Y-80216214D01*
X116095844Y-80170744D01*
X116088194Y-80110068D01*
X116081608Y-80029690D01*
X116076008Y-79925113D01*
X116071313Y-79791842D01*
X116067444Y-79625380D01*
X116064321Y-79421230D01*
X116061864Y-79174897D01*
X116059993Y-78881885D01*
X116058629Y-78537696D01*
X116057691Y-78137834D01*
X116057101Y-77677804D01*
X116056778Y-77153109D01*
X116056643Y-76559253D01*
X116056616Y-75891740D01*
X116056629Y-75731260D01*
X116057074Y-74990141D01*
X116058166Y-74324895D01*
X116059924Y-73733627D01*
X116062365Y-73214445D01*
X116065510Y-72765456D01*
X116069376Y-72384766D01*
X116073981Y-72070482D01*
X116079345Y-71820710D01*
X116085485Y-71633558D01*
X116092421Y-71507132D01*
X116100170Y-71439539D01*
X116118085Y-71363001D01*
X116243705Y-71024882D01*
X116432982Y-70722163D01*
X116677616Y-70463986D01*
X116969311Y-70259495D01*
X117299766Y-70117834D01*
X117346390Y-70104070D01*
X117411453Y-70087967D01*
X117484776Y-70074832D01*
X117574125Y-70064365D01*
X117687266Y-70056266D01*
X117831965Y-70050235D01*
X118015988Y-70045973D01*
X118247100Y-70043179D01*
X118533068Y-70041555D01*
X118881658Y-70040800D01*
X119300635Y-70040615D01*
X119536750Y-70040670D01*
G37*
G36*
X110124175Y-70388171D02*
G01*
X110139371Y-70395840D01*
X110309148Y-70513856D01*
X110412887Y-70664516D01*
X110459734Y-70860703D01*
X110444874Y-71060584D01*
X110365163Y-71245384D01*
X110231085Y-71392953D01*
X110053646Y-71486336D01*
X109924575Y-71510088D01*
X109742290Y-71489643D01*
X109579218Y-71413612D01*
X109444851Y-71294187D01*
X109348679Y-71143559D01*
X109300192Y-70973919D01*
X109308879Y-70797460D01*
X109384231Y-70626372D01*
X109404212Y-70598018D01*
X109561397Y-70433520D01*
X109736721Y-70342768D01*
X109925782Y-70327179D01*
X110124175Y-70388171D01*
G37*
G36*
X128928289Y-75076716D02*
G01*
X129091983Y-75170136D01*
X129228071Y-75325412D01*
X129231682Y-75331264D01*
X129294282Y-75504113D01*
X129294549Y-75692940D01*
X129238602Y-75877194D01*
X129132562Y-76036325D01*
X128982551Y-76149781D01*
X128962943Y-76159023D01*
X128767368Y-76209630D01*
X128575841Y-76193502D01*
X128402426Y-76119187D01*
X128261192Y-75995233D01*
X128166205Y-75830190D01*
X128131531Y-75632606D01*
X128132306Y-75600609D01*
X128174420Y-75403355D01*
X128270991Y-75244967D01*
X128408340Y-75129278D01*
X128572790Y-75060119D01*
X128750666Y-75041321D01*
X128928289Y-75076716D01*
G37*
G36*
X109957404Y-75047277D02*
G01*
X110146090Y-75102054D01*
X110294884Y-75207589D01*
X110400334Y-75350233D01*
X110458987Y-75516338D01*
X110467393Y-75692257D01*
X110422100Y-75864341D01*
X110319656Y-76018943D01*
X110156610Y-76142414D01*
X109990589Y-76202180D01*
X109796647Y-76207352D01*
X109617510Y-76149300D01*
X109467033Y-76035691D01*
X109359067Y-75874192D01*
X109307466Y-75672469D01*
X109314158Y-75510518D01*
X109381281Y-75323269D01*
X109504797Y-75175047D01*
X109674071Y-75077584D01*
X109878471Y-75042607D01*
X109957404Y-75047277D01*
G37*
G36*
X110156610Y-77459432D02*
G01*
X110219831Y-77498009D01*
X110361546Y-77637774D01*
X110444905Y-77808571D01*
X110469452Y-77994369D01*
X110434731Y-78179135D01*
X110340288Y-78346836D01*
X110185665Y-78481442D01*
X110060062Y-78539206D01*
X109870874Y-78565745D01*
X109689266Y-78529748D01*
X109528680Y-78439663D01*
X109402558Y-78303940D01*
X109324339Y-78131028D01*
X109307466Y-77929377D01*
X109347348Y-77755657D01*
X109447709Y-77587608D01*
X109592669Y-77466294D01*
X109768374Y-77399382D01*
X109960972Y-77394539D01*
X110156610Y-77459432D01*
G37*
G36*
X112364755Y-75058200D02*
G01*
X112548349Y-75136221D01*
X112710884Y-75278518D01*
X112754881Y-75341226D01*
X112813951Y-75510919D01*
X112813376Y-75695215D01*
X112757761Y-75875174D01*
X112651712Y-76031857D01*
X112499837Y-76146324D01*
X112390656Y-76188351D01*
X112191778Y-76207196D01*
X112002365Y-76158742D01*
X111839203Y-76048661D01*
X111719081Y-75882622D01*
X111713567Y-75871090D01*
X111652177Y-75692154D01*
X111653630Y-75530200D01*
X111717862Y-75357458D01*
X111834640Y-75198102D01*
X111993199Y-75090309D01*
X112174805Y-75043286D01*
X112364755Y-75058200D01*
G37*
G36*
X112350147Y-72690882D02*
G01*
X112540096Y-72762665D01*
X112612344Y-72813199D01*
X112736809Y-72959484D01*
X112804196Y-73134582D01*
X112814960Y-73321873D01*
X112769554Y-73504735D01*
X112668431Y-73666546D01*
X112512045Y-73790685D01*
X112475840Y-73808802D01*
X112283844Y-73859413D01*
X112096001Y-73842798D01*
X111926026Y-73767322D01*
X111787634Y-73641349D01*
X111694541Y-73473242D01*
X111660462Y-73271365D01*
X111664418Y-73201188D01*
X111719975Y-73010057D01*
X111830243Y-72855413D01*
X111981305Y-72745304D01*
X112159245Y-72687778D01*
X112350147Y-72690882D01*
G37*
G36*
X114691783Y-72691183D02*
G01*
X114863774Y-72749386D01*
X115013334Y-72864400D01*
X115126023Y-73037296D01*
X115162350Y-73148459D01*
X115171023Y-73349009D01*
X115114132Y-73538891D01*
X114998366Y-73700479D01*
X114830416Y-73816146D01*
X114821109Y-73820254D01*
X114635411Y-73862611D01*
X114452713Y-73839442D01*
X114285539Y-73761554D01*
X114146416Y-73639759D01*
X114047869Y-73484863D01*
X114002421Y-73307678D01*
X114022600Y-73119010D01*
X114068294Y-73005107D01*
X114185615Y-72846755D01*
X114338263Y-72740937D01*
X114511799Y-72688723D01*
X114691783Y-72691183D01*
G37*
G36*
X124306623Y-72760373D02*
G01*
X124315649Y-72765722D01*
X124437346Y-72874774D01*
X124534248Y-73024903D01*
X124592505Y-73188649D01*
X124598264Y-73338552D01*
X124540905Y-73503099D01*
X124420953Y-73674346D01*
X124263379Y-73797798D01*
X124096110Y-73856599D01*
X123913098Y-73857990D01*
X123744959Y-73801195D01*
X123602021Y-73696697D01*
X123494609Y-73554980D01*
X123433049Y-73386528D01*
X123427666Y-73201825D01*
X123488788Y-73011355D01*
X123574119Y-72885438D01*
X123730372Y-72757874D01*
X123915231Y-72691228D01*
X124112660Y-72690420D01*
X124306623Y-72760373D01*
G37*
G36*
X126610958Y-75091379D02*
G01*
X126762523Y-75194378D01*
X126882138Y-75357458D01*
X126896676Y-75387874D01*
X126941162Y-75511513D01*
X126959077Y-75614721D01*
X126951620Y-75689671D01*
X126891916Y-75859187D01*
X126787510Y-76015510D01*
X126656552Y-76127853D01*
X126607064Y-76153695D01*
X126414086Y-76206660D01*
X126225137Y-76193173D01*
X126054081Y-76121128D01*
X125914782Y-75998421D01*
X125821106Y-75832948D01*
X125786915Y-75632606D01*
X125792923Y-75543568D01*
X125850328Y-75357899D01*
X125957455Y-75211792D01*
X126100694Y-75108667D01*
X126266432Y-75051943D01*
X126441058Y-75045041D01*
X126610958Y-75091379D01*
G37*
G36*
X128813640Y-67986710D02*
G01*
X129006548Y-68058104D01*
X129045379Y-68082310D01*
X129189928Y-68221220D01*
X129275321Y-68391674D01*
X129301328Y-68577422D01*
X129267720Y-68762210D01*
X129174268Y-68929788D01*
X129020742Y-69063903D01*
X128891905Y-69117277D01*
X128717539Y-69141554D01*
X128607358Y-69132056D01*
X128416002Y-69062962D01*
X128265499Y-68936333D01*
X128166968Y-68763300D01*
X128131531Y-68554994D01*
X128134191Y-68497052D01*
X128186096Y-68305449D01*
X128293785Y-68150781D01*
X128443467Y-68040881D01*
X128621349Y-67983580D01*
X128813640Y-67986710D01*
G37*
G36*
X128976172Y-77450510D02*
G01*
X129048984Y-77491964D01*
X129186334Y-77625192D01*
X129268999Y-77792278D01*
X129296046Y-77976796D01*
X129266542Y-78162320D01*
X129179552Y-78332424D01*
X129034144Y-78470682D01*
X128932837Y-78524754D01*
X128746188Y-78565532D01*
X128562202Y-78542644D01*
X128394812Y-78463832D01*
X128257948Y-78336834D01*
X128165544Y-78169390D01*
X128131531Y-77969240D01*
X128131605Y-77959238D01*
X128169345Y-77761957D01*
X128266727Y-77598351D01*
X128409926Y-77476914D01*
X128585116Y-77406134D01*
X128778473Y-77394502D01*
X128976172Y-77450510D01*
G37*
G36*
X119478687Y-72403697D02*
G01*
X119706218Y-72486846D01*
X119907347Y-72635457D01*
X120070757Y-72845709D01*
X120083861Y-72868913D01*
X120165323Y-73094684D01*
X120178745Y-73330568D01*
X120129110Y-73561873D01*
X120021401Y-73773908D01*
X119860601Y-73951978D01*
X119651692Y-74081392D01*
X119544557Y-74115131D01*
X119343832Y-74139214D01*
X119135284Y-74128534D01*
X118956822Y-74083004D01*
X118937415Y-74074628D01*
X118722891Y-73938719D01*
X118561301Y-73751002D01*
X118459834Y-73522556D01*
X118425680Y-73264461D01*
X118458260Y-73005668D01*
X118555436Y-72784733D01*
X118718385Y-72605679D01*
X118948308Y-72466668D01*
X118989695Y-72449077D01*
X119236074Y-72389834D01*
X119478687Y-72403697D01*
G37*
G36*
X128888341Y-70350836D02*
G01*
X129061428Y-70451829D01*
X129215769Y-70626372D01*
X129266871Y-70723990D01*
X129300791Y-70904830D01*
X129273331Y-71088850D01*
X129191097Y-71258686D01*
X129060693Y-71396970D01*
X128888723Y-71486336D01*
X128743065Y-71511080D01*
X128548784Y-71480322D01*
X128369775Y-71378395D01*
X128215827Y-71209330D01*
X128166814Y-71125786D01*
X128138506Y-71019815D01*
X128140304Y-70878045D01*
X128144122Y-70839586D01*
X128195066Y-70648286D01*
X128302270Y-70502725D01*
X128475825Y-70388171D01*
X128503541Y-70375171D01*
X128700910Y-70324811D01*
X128888341Y-70350836D01*
G37*
G36*
X126611564Y-72742221D02*
G01*
X126766137Y-72851535D01*
X126880959Y-73002985D01*
X126943632Y-73184397D01*
X126941760Y-73383597D01*
X126932984Y-73419911D01*
X126856509Y-73577180D01*
X126734147Y-73718703D01*
X126589784Y-73815188D01*
X126446422Y-73859268D01*
X126289705Y-73855209D01*
X126109961Y-73793414D01*
X126070510Y-73773990D01*
X125912933Y-73650165D01*
X125818526Y-73480385D01*
X125787173Y-73264461D01*
X125808817Y-73089293D01*
X125894000Y-72909035D01*
X126039828Y-72776350D01*
X126242078Y-72696510D01*
X126429638Y-72687217D01*
X126611564Y-72742221D01*
G37*
G04 #@! TO.C,SYME3*
G36*
X136553486Y-103215300D02*
G01*
X136632013Y-103217451D01*
X136766275Y-103217451D01*
X136766275Y-103441569D01*
X136450339Y-103441569D01*
X136420841Y-103793645D01*
X136416880Y-103841779D01*
X136407653Y-103962272D01*
X136401134Y-104060319D01*
X136397888Y-104126866D01*
X136398478Y-104152857D01*
X136407060Y-104145385D01*
X136446217Y-104106437D01*
X136513912Y-104037404D01*
X136606718Y-103941866D01*
X136721211Y-103823400D01*
X136853963Y-103685586D01*
X137001550Y-103532002D01*
X137160546Y-103366226D01*
X137327525Y-103191838D01*
X137499061Y-103012415D01*
X137671729Y-102831537D01*
X137842103Y-102652782D01*
X138006757Y-102479729D01*
X138162266Y-102315956D01*
X138305204Y-102165041D01*
X138432145Y-102030564D01*
X138539664Y-101916103D01*
X138731779Y-101710882D01*
X138733529Y-102060520D01*
X136354931Y-104562026D01*
X136331157Y-104847099D01*
X136236037Y-105987729D01*
X136219225Y-106190036D01*
X136198365Y-106443172D01*
X136179113Y-106679146D01*
X136161836Y-106893320D01*
X136146904Y-107081058D01*
X136134685Y-107237720D01*
X136125546Y-107358669D01*
X136119856Y-107439266D01*
X136117983Y-107474873D01*
X136122927Y-107491189D01*
X136145148Y-107526420D01*
X136187292Y-107579519D01*
X136207630Y-107602727D01*
X136251601Y-107652903D01*
X136340320Y-107748991D01*
X136455692Y-107870204D01*
X136599962Y-108018960D01*
X136775372Y-108197678D01*
X136984167Y-108408777D01*
X137121523Y-108547301D01*
X137313001Y-108740518D01*
X137503806Y-108933176D01*
X137688204Y-109119478D01*
X137860459Y-109293625D01*
X138014833Y-109449820D01*
X138145592Y-109582266D01*
X138246999Y-109685164D01*
X138644488Y-110089089D01*
X138572291Y-110164447D01*
X138555264Y-110181425D01*
X138505032Y-110223118D01*
X138470571Y-110239804D01*
X138443592Y-110225559D01*
X138393432Y-110182811D01*
X138333298Y-110121520D01*
X138296696Y-110082807D01*
X138228434Y-110012115D01*
X138131958Y-109912962D01*
X138010674Y-109788824D01*
X137867989Y-109643180D01*
X137707310Y-109479506D01*
X137532043Y-109301281D01*
X137345595Y-109111981D01*
X137151374Y-108915085D01*
X136077200Y-107826934D01*
X136033444Y-108392144D01*
X136023906Y-108512782D01*
X136009976Y-108674947D01*
X135997413Y-108797774D01*
X135985284Y-108887720D01*
X135972659Y-108951239D01*
X135958607Y-108994789D01*
X135942197Y-109024825D01*
X135919229Y-109066805D01*
X135900331Y-109143980D01*
X135894706Y-109255168D01*
X135894706Y-109418039D01*
X135446471Y-109418039D01*
X135446471Y-109069412D01*
X133771867Y-109069412D01*
X133675068Y-109179381D01*
X133648596Y-109208017D01*
X133505121Y-109323061D01*
X133343014Y-109393886D01*
X133167488Y-109418039D01*
X133012605Y-109405234D01*
X132837422Y-109351250D01*
X132687454Y-109254766D01*
X132658226Y-109227191D01*
X132585181Y-109137924D01*
X132521094Y-109033934D01*
X132475137Y-108931433D01*
X132456485Y-108846630D01*
X132456125Y-108834320D01*
X132453442Y-108789212D01*
X132446427Y-108758054D01*
X132431752Y-108743311D01*
X132406089Y-108747446D01*
X132366108Y-108772922D01*
X132308483Y-108822203D01*
X132229884Y-108897752D01*
X132126983Y-109002033D01*
X131996451Y-109137509D01*
X131834960Y-109306644D01*
X131748941Y-109396927D01*
X131605157Y-109548089D01*
X131469121Y-109691403D01*
X131346167Y-109821235D01*
X131241624Y-109931953D01*
X131160824Y-110017926D01*
X131109098Y-110073521D01*
X130967706Y-110227353D01*
X130880316Y-110140196D01*
X130792925Y-110053039D01*
X131873875Y-108920000D01*
X131942032Y-108848510D01*
X132184512Y-108593204D01*
X132392662Y-108372355D01*
X132567105Y-108185276D01*
X132708465Y-108031283D01*
X132808421Y-107919677D01*
X133217685Y-107919677D01*
X133220903Y-107945937D01*
X133221465Y-107948680D01*
X133248284Y-108010883D01*
X133301854Y-108039866D01*
X133466981Y-108101654D01*
X133614101Y-108204585D01*
X133729812Y-108340742D01*
X133809116Y-108504173D01*
X133847012Y-108688925D01*
X133859564Y-108845294D01*
X135739895Y-108845294D01*
X135753005Y-108789265D01*
X135755324Y-108775515D01*
X135762530Y-108714027D01*
X135772364Y-108614611D01*
X135784095Y-108485185D01*
X135796991Y-108333668D01*
X135810323Y-108167981D01*
X135854531Y-107602727D01*
X135258636Y-106997589D01*
X135149337Y-106886962D01*
X135015608Y-106752660D01*
X134895636Y-106633351D01*
X134793630Y-106533162D01*
X134713799Y-106456219D01*
X134660352Y-106406650D01*
X134637497Y-106388580D01*
X134622172Y-106397214D01*
X134576527Y-106436496D01*
X134507834Y-106502115D01*
X134422238Y-106588153D01*
X134325882Y-106688692D01*
X134300747Y-106715355D01*
X134188042Y-106834623D01*
X134053741Y-106976397D01*
X133907957Y-107130021D01*
X133760800Y-107284837D01*
X133622383Y-107430186D01*
X133614068Y-107438907D01*
X133485380Y-107574319D01*
X133387184Y-107679174D01*
X133315597Y-107758461D01*
X133266736Y-107817166D01*
X133236719Y-107860279D01*
X133221663Y-107892787D01*
X133217685Y-107919677D01*
X132808421Y-107919677D01*
X132817365Y-107909691D01*
X132894430Y-107819815D01*
X132940284Y-107760970D01*
X132955550Y-107732471D01*
X132955551Y-107732302D01*
X132953458Y-107696784D01*
X132947341Y-107617168D01*
X132937679Y-107498870D01*
X132924953Y-107347312D01*
X132909641Y-107167911D01*
X132892222Y-106966086D01*
X132873177Y-106747256D01*
X132852983Y-106516840D01*
X132832120Y-106280257D01*
X132811068Y-106042926D01*
X132790306Y-105810265D01*
X132770313Y-105587693D01*
X132751568Y-105380630D01*
X132734550Y-105194494D01*
X132719739Y-105034704D01*
X132707614Y-104906679D01*
X132698655Y-104815837D01*
X132693339Y-104767598D01*
X132682622Y-104686801D01*
X132938461Y-104686801D01*
X132941739Y-104748037D01*
X132948950Y-104851018D01*
X132959735Y-104991297D01*
X132973732Y-105164432D01*
X132990579Y-105365976D01*
X133009917Y-105591484D01*
X133031384Y-105836512D01*
X133054619Y-106096615D01*
X133072783Y-106297210D01*
X133095533Y-106545981D01*
X133116833Y-106776175D01*
X133136259Y-106983359D01*
X133153389Y-107163100D01*
X133167798Y-107310964D01*
X133179065Y-107422519D01*
X133186764Y-107493332D01*
X133190473Y-107518970D01*
X133201724Y-107511027D01*
X133242981Y-107472038D01*
X133310021Y-107405068D01*
X133398228Y-107314990D01*
X133502987Y-107206680D01*
X133619682Y-107085013D01*
X133743700Y-106954863D01*
X133870424Y-106821104D01*
X133995240Y-106688612D01*
X134113532Y-106562261D01*
X134220686Y-106446926D01*
X134312086Y-106347481D01*
X134383117Y-106268801D01*
X134429164Y-106215761D01*
X134442618Y-106197337D01*
X134802699Y-106197337D01*
X135348703Y-106742917D01*
X135482221Y-106876110D01*
X135608058Y-107000751D01*
X135705538Y-107095688D01*
X135778231Y-107163999D01*
X135829710Y-107208767D01*
X135863546Y-107233070D01*
X135883311Y-107239991D01*
X135892577Y-107232608D01*
X135894916Y-107214004D01*
X135896415Y-107184111D01*
X135901817Y-107107139D01*
X135910743Y-106990320D01*
X135922765Y-106838975D01*
X135937454Y-106658428D01*
X135954379Y-106454000D01*
X135973113Y-106231016D01*
X135993225Y-105994797D01*
X136010981Y-105786604D01*
X136029483Y-105567322D01*
X136046072Y-105368219D01*
X136060352Y-105194200D01*
X136071922Y-105050171D01*
X136080386Y-104941041D01*
X136085344Y-104871714D01*
X136086398Y-104847099D01*
X136085563Y-104847562D01*
X136062046Y-104870222D01*
X136009806Y-104923392D01*
X135933442Y-105002250D01*
X135837558Y-105101972D01*
X135726755Y-105217737D01*
X135605633Y-105344720D01*
X135478794Y-105478100D01*
X135350840Y-105613054D01*
X135226372Y-105744759D01*
X135109992Y-105868393D01*
X135006301Y-105979132D01*
X134806526Y-106193235D01*
X134802699Y-106197337D01*
X134442618Y-106197337D01*
X134445613Y-106193235D01*
X134429489Y-106171406D01*
X134382612Y-106119154D01*
X134309338Y-106040984D01*
X134214026Y-105941300D01*
X134101038Y-105824508D01*
X133974735Y-105695016D01*
X133839478Y-105557230D01*
X133699629Y-105415554D01*
X133559548Y-105274396D01*
X133423597Y-105138162D01*
X133296136Y-105011258D01*
X133181528Y-104898090D01*
X133084132Y-104803064D01*
X133008311Y-104730587D01*
X132958426Y-104685064D01*
X132938836Y-104670902D01*
X132938461Y-104686801D01*
X132682622Y-104686801D01*
X132679301Y-104661765D01*
X132134510Y-104661765D01*
X132134199Y-104462549D01*
X132333726Y-104462549D01*
X132495588Y-104462549D01*
X132509988Y-104462536D01*
X132591293Y-104460801D01*
X132635509Y-104453383D01*
X132653831Y-104436358D01*
X132657451Y-104405800D01*
X132641507Y-104360883D01*
X132586895Y-104286161D01*
X132495588Y-104188628D01*
X132333726Y-104028204D01*
X132333726Y-104462549D01*
X132134199Y-104462549D01*
X132133206Y-103827549D01*
X131238614Y-102918628D01*
X130344022Y-102009706D01*
X130342795Y-101837248D01*
X130341569Y-101664791D01*
X131414581Y-102752395D01*
X131518291Y-102857446D01*
X131733492Y-103074842D01*
X131917482Y-103259696D01*
X132072639Y-103414283D01*
X132201340Y-103540878D01*
X132305962Y-103641755D01*
X132388882Y-103719189D01*
X132452478Y-103775456D01*
X132499126Y-103812831D01*
X132531204Y-103833587D01*
X132551089Y-103840000D01*
X132584617Y-103838058D01*
X132603440Y-103823874D01*
X132606686Y-103785069D01*
X132598881Y-103709265D01*
X132593500Y-103661539D01*
X132586013Y-103581768D01*
X132582996Y-103528726D01*
X132581519Y-103510441D01*
X132567124Y-103490857D01*
X132527362Y-103484367D01*
X132450168Y-103487200D01*
X132430459Y-103488310D01*
X132351562Y-103487058D01*
X132295442Y-103469722D01*
X132255886Y-103441569D01*
X132816863Y-103441569D01*
X132825104Y-103534951D01*
X132828911Y-103577320D01*
X132840772Y-103692997D01*
X132852459Y-103769186D01*
X132866125Y-103813805D01*
X132883920Y-103834771D01*
X132907996Y-103840000D01*
X132929644Y-103843562D01*
X132944000Y-103860579D01*
X132952021Y-103900137D01*
X132955512Y-103971323D01*
X132956275Y-104083219D01*
X132956275Y-104326438D01*
X133035884Y-104405800D01*
X133230196Y-104599510D01*
X133504118Y-104872582D01*
X133504118Y-104661765D01*
X134998235Y-104661765D01*
X134998235Y-105134902D01*
X133773350Y-105134902D01*
X134188760Y-105564461D01*
X134268328Y-105646504D01*
X134378355Y-105759121D01*
X134473894Y-105855926D01*
X134549942Y-105931893D01*
X134601496Y-105981996D01*
X134623552Y-106001208D01*
X134631935Y-105995910D01*
X134671246Y-105960294D01*
X134739030Y-105894343D01*
X134831665Y-105801722D01*
X134945531Y-105686093D01*
X135077006Y-105551118D01*
X135222470Y-105400461D01*
X135378300Y-105237783D01*
X135534930Y-105073397D01*
X135688471Y-104911386D01*
X135812987Y-104778595D01*
X135911523Y-104671503D01*
X135987126Y-104586589D01*
X136042841Y-104520332D01*
X136081713Y-104469214D01*
X136106788Y-104429712D01*
X136121111Y-104398307D01*
X136127728Y-104371477D01*
X136129482Y-104358409D01*
X136137261Y-104286399D01*
X136147106Y-104180387D01*
X136157934Y-104052460D01*
X136168662Y-103914706D01*
X136172299Y-103866728D01*
X136182809Y-103737097D01*
X136192830Y-103625283D01*
X136201375Y-103541909D01*
X136207456Y-103497598D01*
X136219380Y-103441569D01*
X132816863Y-103441569D01*
X132255886Y-103441569D01*
X132240130Y-103430355D01*
X132230604Y-103422068D01*
X132152699Y-103321707D01*
X132121846Y-103217451D01*
X132796755Y-103217451D01*
X135598064Y-103217451D01*
X136019216Y-103217451D01*
X136132151Y-103217451D01*
X136165986Y-103217212D01*
X136216120Y-103212855D01*
X136230593Y-103198740D01*
X136219358Y-103169379D01*
X136216038Y-103163781D01*
X136178769Y-103120732D01*
X136124774Y-103072957D01*
X136070914Y-103034208D01*
X136034048Y-103018235D01*
X136030733Y-103020760D01*
X136022508Y-103055443D01*
X136019216Y-103117843D01*
X136019216Y-103217451D01*
X135598064Y-103217451D01*
X135590748Y-103037854D01*
X135583431Y-102858257D01*
X135434020Y-102828245D01*
X135359091Y-102814633D01*
X135233963Y-102795574D01*
X135116520Y-102781197D01*
X134948431Y-102764161D01*
X134948431Y-102968431D01*
X133802941Y-102968431D01*
X133802941Y-102788379D01*
X133659755Y-102805470D01*
X133440977Y-102842100D01*
X133220793Y-102908330D01*
X133038664Y-103000681D01*
X132891504Y-103120419D01*
X132796755Y-103217451D01*
X132121846Y-103217451D01*
X132118418Y-103205869D01*
X132128919Y-103084354D01*
X132185361Y-102966961D01*
X132190824Y-102959651D01*
X132266254Y-102896763D01*
X132364588Y-102859564D01*
X132470591Y-102849669D01*
X132569028Y-102868695D01*
X132644664Y-102918256D01*
X132670272Y-102943557D01*
X132695220Y-102949690D01*
X132730944Y-102930720D01*
X132791269Y-102883358D01*
X132809777Y-102868801D01*
X132952676Y-102776927D01*
X133121968Y-102695224D01*
X133260430Y-102644706D01*
X134002157Y-102644706D01*
X134002157Y-102769216D01*
X134749216Y-102769216D01*
X134749216Y-102644706D01*
X134002157Y-102644706D01*
X133260430Y-102644706D01*
X133301891Y-102629579D01*
X133476680Y-102585876D01*
X133630574Y-102570000D01*
X133646924Y-102569874D01*
X133737799Y-102561027D01*
X133787705Y-102536221D01*
X133802941Y-102492630D01*
X133804731Y-102478897D01*
X133814512Y-102467085D01*
X133838269Y-102458439D01*
X133881974Y-102452467D01*
X133951596Y-102448677D01*
X134053108Y-102446579D01*
X134192481Y-102445681D01*
X134375686Y-102445490D01*
X134547346Y-102445826D01*
X134693246Y-102447181D01*
X134800055Y-102449915D01*
X134873374Y-102454381D01*
X134918808Y-102460933D01*
X134941959Y-102469926D01*
X134948431Y-102481715D01*
X134969718Y-102510660D01*
X135029363Y-102529132D01*
X135052192Y-102532363D01*
X135130030Y-102543739D01*
X135233608Y-102559159D01*
X135346863Y-102576240D01*
X135409323Y-102584935D01*
X135500733Y-102594352D01*
X135565230Y-102596624D01*
X135591732Y-102591078D01*
X135596257Y-102587465D01*
X135638037Y-102578543D01*
X135713193Y-102572331D01*
X135809624Y-102570000D01*
X136019216Y-102570000D01*
X136019240Y-102644706D01*
X136019241Y-102650931D01*
X136020220Y-102676578D01*
X136032956Y-102719638D01*
X136069205Y-102756155D01*
X136139917Y-102799625D01*
X136201991Y-102839339D01*
X136296493Y-102915587D01*
X136382136Y-103001185D01*
X136447648Y-103084456D01*
X136481758Y-103153724D01*
X136490115Y-103180416D01*
X136505597Y-103198740D01*
X136510817Y-103204919D01*
X136553486Y-103215300D01*
G37*
X136553486Y-103215300D02*
X136632013Y-103217451D01*
X136766275Y-103217451D01*
X136766275Y-103441569D01*
X136450339Y-103441569D01*
X136420841Y-103793645D01*
X136416880Y-103841779D01*
X136407653Y-103962272D01*
X136401134Y-104060319D01*
X136397888Y-104126866D01*
X136398478Y-104152857D01*
X136407060Y-104145385D01*
X136446217Y-104106437D01*
X136513912Y-104037404D01*
X136606718Y-103941866D01*
X136721211Y-103823400D01*
X136853963Y-103685586D01*
X137001550Y-103532002D01*
X137160546Y-103366226D01*
X137327525Y-103191838D01*
X137499061Y-103012415D01*
X137671729Y-102831537D01*
X137842103Y-102652782D01*
X138006757Y-102479729D01*
X138162266Y-102315956D01*
X138305204Y-102165041D01*
X138432145Y-102030564D01*
X138539664Y-101916103D01*
X138731779Y-101710882D01*
X138733529Y-102060520D01*
X136354931Y-104562026D01*
X136331157Y-104847099D01*
X136236037Y-105987729D01*
X136219225Y-106190036D01*
X136198365Y-106443172D01*
X136179113Y-106679146D01*
X136161836Y-106893320D01*
X136146904Y-107081058D01*
X136134685Y-107237720D01*
X136125546Y-107358669D01*
X136119856Y-107439266D01*
X136117983Y-107474873D01*
X136122927Y-107491189D01*
X136145148Y-107526420D01*
X136187292Y-107579519D01*
X136207630Y-107602727D01*
X136251601Y-107652903D01*
X136340320Y-107748991D01*
X136455692Y-107870204D01*
X136599962Y-108018960D01*
X136775372Y-108197678D01*
X136984167Y-108408777D01*
X137121523Y-108547301D01*
X137313001Y-108740518D01*
X137503806Y-108933176D01*
X137688204Y-109119478D01*
X137860459Y-109293625D01*
X138014833Y-109449820D01*
X138145592Y-109582266D01*
X138246999Y-109685164D01*
X138644488Y-110089089D01*
X138572291Y-110164447D01*
X138555264Y-110181425D01*
X138505032Y-110223118D01*
X138470571Y-110239804D01*
X138443592Y-110225559D01*
X138393432Y-110182811D01*
X138333298Y-110121520D01*
X138296696Y-110082807D01*
X138228434Y-110012115D01*
X138131958Y-109912962D01*
X138010674Y-109788824D01*
X137867989Y-109643180D01*
X137707310Y-109479506D01*
X137532043Y-109301281D01*
X137345595Y-109111981D01*
X137151374Y-108915085D01*
X136077200Y-107826934D01*
X136033444Y-108392144D01*
X136023906Y-108512782D01*
X136009976Y-108674947D01*
X135997413Y-108797774D01*
X135985284Y-108887720D01*
X135972659Y-108951239D01*
X135958607Y-108994789D01*
X135942197Y-109024825D01*
X135919229Y-109066805D01*
X135900331Y-109143980D01*
X135894706Y-109255168D01*
X135894706Y-109418039D01*
X135446471Y-109418039D01*
X135446471Y-109069412D01*
X133771867Y-109069412D01*
X133675068Y-109179381D01*
X133648596Y-109208017D01*
X133505121Y-109323061D01*
X133343014Y-109393886D01*
X133167488Y-109418039D01*
X133012605Y-109405234D01*
X132837422Y-109351250D01*
X132687454Y-109254766D01*
X132658226Y-109227191D01*
X132585181Y-109137924D01*
X132521094Y-109033934D01*
X132475137Y-108931433D01*
X132456485Y-108846630D01*
X132456125Y-108834320D01*
X132453442Y-108789212D01*
X132446427Y-108758054D01*
X132431752Y-108743311D01*
X132406089Y-108747446D01*
X132366108Y-108772922D01*
X132308483Y-108822203D01*
X132229884Y-108897752D01*
X132126983Y-109002033D01*
X131996451Y-109137509D01*
X131834960Y-109306644D01*
X131748941Y-109396927D01*
X131605157Y-109548089D01*
X131469121Y-109691403D01*
X131346167Y-109821235D01*
X131241624Y-109931953D01*
X131160824Y-110017926D01*
X131109098Y-110073521D01*
X130967706Y-110227353D01*
X130880316Y-110140196D01*
X130792925Y-110053039D01*
X131873875Y-108920000D01*
X131942032Y-108848510D01*
X132184512Y-108593204D01*
X132392662Y-108372355D01*
X132567105Y-108185276D01*
X132708465Y-108031283D01*
X132808421Y-107919677D01*
X133217685Y-107919677D01*
X133220903Y-107945937D01*
X133221465Y-107948680D01*
X133248284Y-108010883D01*
X133301854Y-108039866D01*
X133466981Y-108101654D01*
X133614101Y-108204585D01*
X133729812Y-108340742D01*
X133809116Y-108504173D01*
X133847012Y-108688925D01*
X133859564Y-108845294D01*
X135739895Y-108845294D01*
X135753005Y-108789265D01*
X135755324Y-108775515D01*
X135762530Y-108714027D01*
X135772364Y-108614611D01*
X135784095Y-108485185D01*
X135796991Y-108333668D01*
X135810323Y-108167981D01*
X135854531Y-107602727D01*
X135258636Y-106997589D01*
X135149337Y-106886962D01*
X135015608Y-106752660D01*
X134895636Y-106633351D01*
X134793630Y-106533162D01*
X134713799Y-106456219D01*
X134660352Y-106406650D01*
X134637497Y-106388580D01*
X134622172Y-106397214D01*
X134576527Y-106436496D01*
X134507834Y-106502115D01*
X134422238Y-106588153D01*
X134325882Y-106688692D01*
X134300747Y-106715355D01*
X134188042Y-106834623D01*
X134053741Y-106976397D01*
X133907957Y-107130021D01*
X133760800Y-107284837D01*
X133622383Y-107430186D01*
X133614068Y-107438907D01*
X133485380Y-107574319D01*
X133387184Y-107679174D01*
X133315597Y-107758461D01*
X133266736Y-107817166D01*
X133236719Y-107860279D01*
X133221663Y-107892787D01*
X133217685Y-107919677D01*
X132808421Y-107919677D01*
X132817365Y-107909691D01*
X132894430Y-107819815D01*
X132940284Y-107760970D01*
X132955550Y-107732471D01*
X132955551Y-107732302D01*
X132953458Y-107696784D01*
X132947341Y-107617168D01*
X132937679Y-107498870D01*
X132924953Y-107347312D01*
X132909641Y-107167911D01*
X132892222Y-106966086D01*
X132873177Y-106747256D01*
X132852983Y-106516840D01*
X132832120Y-106280257D01*
X132811068Y-106042926D01*
X132790306Y-105810265D01*
X132770313Y-105587693D01*
X132751568Y-105380630D01*
X132734550Y-105194494D01*
X132719739Y-105034704D01*
X132707614Y-104906679D01*
X132698655Y-104815837D01*
X132693339Y-104767598D01*
X132682622Y-104686801D01*
X132938461Y-104686801D01*
X132941739Y-104748037D01*
X132948950Y-104851018D01*
X132959735Y-104991297D01*
X132973732Y-105164432D01*
X132990579Y-105365976D01*
X133009917Y-105591484D01*
X133031384Y-105836512D01*
X133054619Y-106096615D01*
X133072783Y-106297210D01*
X133095533Y-106545981D01*
X133116833Y-106776175D01*
X133136259Y-106983359D01*
X133153389Y-107163100D01*
X133167798Y-107310964D01*
X133179065Y-107422519D01*
X133186764Y-107493332D01*
X133190473Y-107518970D01*
X133201724Y-107511027D01*
X133242981Y-107472038D01*
X133310021Y-107405068D01*
X133398228Y-107314990D01*
X133502987Y-107206680D01*
X133619682Y-107085013D01*
X133743700Y-106954863D01*
X133870424Y-106821104D01*
X133995240Y-106688612D01*
X134113532Y-106562261D01*
X134220686Y-106446926D01*
X134312086Y-106347481D01*
X134383117Y-106268801D01*
X134429164Y-106215761D01*
X134442618Y-106197337D01*
X134802699Y-106197337D01*
X135348703Y-106742917D01*
X135482221Y-106876110D01*
X135608058Y-107000751D01*
X135705538Y-107095688D01*
X135778231Y-107163999D01*
X135829710Y-107208767D01*
X135863546Y-107233070D01*
X135883311Y-107239991D01*
X135892577Y-107232608D01*
X135894916Y-107214004D01*
X135896415Y-107184111D01*
X135901817Y-107107139D01*
X135910743Y-106990320D01*
X135922765Y-106838975D01*
X135937454Y-106658428D01*
X135954379Y-106454000D01*
X135973113Y-106231016D01*
X135993225Y-105994797D01*
X136010981Y-105786604D01*
X136029483Y-105567322D01*
X136046072Y-105368219D01*
X136060352Y-105194200D01*
X136071922Y-105050171D01*
X136080386Y-104941041D01*
X136085344Y-104871714D01*
X136086398Y-104847099D01*
X136085563Y-104847562D01*
X136062046Y-104870222D01*
X136009806Y-104923392D01*
X135933442Y-105002250D01*
X135837558Y-105101972D01*
X135726755Y-105217737D01*
X135605633Y-105344720D01*
X135478794Y-105478100D01*
X135350840Y-105613054D01*
X135226372Y-105744759D01*
X135109992Y-105868393D01*
X135006301Y-105979132D01*
X134806526Y-106193235D01*
X134802699Y-106197337D01*
X134442618Y-106197337D01*
X134445613Y-106193235D01*
X134429489Y-106171406D01*
X134382612Y-106119154D01*
X134309338Y-106040984D01*
X134214026Y-105941300D01*
X134101038Y-105824508D01*
X133974735Y-105695016D01*
X133839478Y-105557230D01*
X133699629Y-105415554D01*
X133559548Y-105274396D01*
X133423597Y-105138162D01*
X133296136Y-105011258D01*
X133181528Y-104898090D01*
X133084132Y-104803064D01*
X133008311Y-104730587D01*
X132958426Y-104685064D01*
X132938836Y-104670902D01*
X132938461Y-104686801D01*
X132682622Y-104686801D01*
X132679301Y-104661765D01*
X132134510Y-104661765D01*
X132134199Y-104462549D01*
X132333726Y-104462549D01*
X132495588Y-104462549D01*
X132509988Y-104462536D01*
X132591293Y-104460801D01*
X132635509Y-104453383D01*
X132653831Y-104436358D01*
X132657451Y-104405800D01*
X132641507Y-104360883D01*
X132586895Y-104286161D01*
X132495588Y-104188628D01*
X132333726Y-104028204D01*
X132333726Y-104462549D01*
X132134199Y-104462549D01*
X132133206Y-103827549D01*
X131238614Y-102918628D01*
X130344022Y-102009706D01*
X130342795Y-101837248D01*
X130341569Y-101664791D01*
X131414581Y-102752395D01*
X131518291Y-102857446D01*
X131733492Y-103074842D01*
X131917482Y-103259696D01*
X132072639Y-103414283D01*
X132201340Y-103540878D01*
X132305962Y-103641755D01*
X132388882Y-103719189D01*
X132452478Y-103775456D01*
X132499126Y-103812831D01*
X132531204Y-103833587D01*
X132551089Y-103840000D01*
X132584617Y-103838058D01*
X132603440Y-103823874D01*
X132606686Y-103785069D01*
X132598881Y-103709265D01*
X132593500Y-103661539D01*
X132586013Y-103581768D01*
X132582996Y-103528726D01*
X132581519Y-103510441D01*
X132567124Y-103490857D01*
X132527362Y-103484367D01*
X132450168Y-103487200D01*
X132430459Y-103488310D01*
X132351562Y-103487058D01*
X132295442Y-103469722D01*
X132255886Y-103441569D01*
X132816863Y-103441569D01*
X132825104Y-103534951D01*
X132828911Y-103577320D01*
X132840772Y-103692997D01*
X132852459Y-103769186D01*
X132866125Y-103813805D01*
X132883920Y-103834771D01*
X132907996Y-103840000D01*
X132929644Y-103843562D01*
X132944000Y-103860579D01*
X132952021Y-103900137D01*
X132955512Y-103971323D01*
X132956275Y-104083219D01*
X132956275Y-104326438D01*
X133035884Y-104405800D01*
X133230196Y-104599510D01*
X133504118Y-104872582D01*
X133504118Y-104661765D01*
X134998235Y-104661765D01*
X134998235Y-105134902D01*
X133773350Y-105134902D01*
X134188760Y-105564461D01*
X134268328Y-105646504D01*
X134378355Y-105759121D01*
X134473894Y-105855926D01*
X134549942Y-105931893D01*
X134601496Y-105981996D01*
X134623552Y-106001208D01*
X134631935Y-105995910D01*
X134671246Y-105960294D01*
X134739030Y-105894343D01*
X134831665Y-105801722D01*
X134945531Y-105686093D01*
X135077006Y-105551118D01*
X135222470Y-105400461D01*
X135378300Y-105237783D01*
X135534930Y-105073397D01*
X135688471Y-104911386D01*
X135812987Y-104778595D01*
X135911523Y-104671503D01*
X135987126Y-104586589D01*
X136042841Y-104520332D01*
X136081713Y-104469214D01*
X136106788Y-104429712D01*
X136121111Y-104398307D01*
X136127728Y-104371477D01*
X136129482Y-104358409D01*
X136137261Y-104286399D01*
X136147106Y-104180387D01*
X136157934Y-104052460D01*
X136168662Y-103914706D01*
X136172299Y-103866728D01*
X136182809Y-103737097D01*
X136192830Y-103625283D01*
X136201375Y-103541909D01*
X136207456Y-103497598D01*
X136219380Y-103441569D01*
X132816863Y-103441569D01*
X132255886Y-103441569D01*
X132240130Y-103430355D01*
X132230604Y-103422068D01*
X132152699Y-103321707D01*
X132121846Y-103217451D01*
X132796755Y-103217451D01*
X135598064Y-103217451D01*
X136019216Y-103217451D01*
X136132151Y-103217451D01*
X136165986Y-103217212D01*
X136216120Y-103212855D01*
X136230593Y-103198740D01*
X136219358Y-103169379D01*
X136216038Y-103163781D01*
X136178769Y-103120732D01*
X136124774Y-103072957D01*
X136070914Y-103034208D01*
X136034048Y-103018235D01*
X136030733Y-103020760D01*
X136022508Y-103055443D01*
X136019216Y-103117843D01*
X136019216Y-103217451D01*
X135598064Y-103217451D01*
X135590748Y-103037854D01*
X135583431Y-102858257D01*
X135434020Y-102828245D01*
X135359091Y-102814633D01*
X135233963Y-102795574D01*
X135116520Y-102781197D01*
X134948431Y-102764161D01*
X134948431Y-102968431D01*
X133802941Y-102968431D01*
X133802941Y-102788379D01*
X133659755Y-102805470D01*
X133440977Y-102842100D01*
X133220793Y-102908330D01*
X133038664Y-103000681D01*
X132891504Y-103120419D01*
X132796755Y-103217451D01*
X132121846Y-103217451D01*
X132118418Y-103205869D01*
X132128919Y-103084354D01*
X132185361Y-102966961D01*
X132190824Y-102959651D01*
X132266254Y-102896763D01*
X132364588Y-102859564D01*
X132470591Y-102849669D01*
X132569028Y-102868695D01*
X132644664Y-102918256D01*
X132670272Y-102943557D01*
X132695220Y-102949690D01*
X132730944Y-102930720D01*
X132791269Y-102883358D01*
X132809777Y-102868801D01*
X132952676Y-102776927D01*
X133121968Y-102695224D01*
X133260430Y-102644706D01*
X134002157Y-102644706D01*
X134002157Y-102769216D01*
X134749216Y-102769216D01*
X134749216Y-102644706D01*
X134002157Y-102644706D01*
X133260430Y-102644706D01*
X133301891Y-102629579D01*
X133476680Y-102585876D01*
X133630574Y-102570000D01*
X133646924Y-102569874D01*
X133737799Y-102561027D01*
X133787705Y-102536221D01*
X133802941Y-102492630D01*
X133804731Y-102478897D01*
X133814512Y-102467085D01*
X133838269Y-102458439D01*
X133881974Y-102452467D01*
X133951596Y-102448677D01*
X134053108Y-102446579D01*
X134192481Y-102445681D01*
X134375686Y-102445490D01*
X134547346Y-102445826D01*
X134693246Y-102447181D01*
X134800055Y-102449915D01*
X134873374Y-102454381D01*
X134918808Y-102460933D01*
X134941959Y-102469926D01*
X134948431Y-102481715D01*
X134969718Y-102510660D01*
X135029363Y-102529132D01*
X135052192Y-102532363D01*
X135130030Y-102543739D01*
X135233608Y-102559159D01*
X135346863Y-102576240D01*
X135409323Y-102584935D01*
X135500733Y-102594352D01*
X135565230Y-102596624D01*
X135591732Y-102591078D01*
X135596257Y-102587465D01*
X135638037Y-102578543D01*
X135713193Y-102572331D01*
X135809624Y-102570000D01*
X136019216Y-102570000D01*
X136019240Y-102644706D01*
X136019241Y-102650931D01*
X136020220Y-102676578D01*
X136032956Y-102719638D01*
X136069205Y-102756155D01*
X136139917Y-102799625D01*
X136201991Y-102839339D01*
X136296493Y-102915587D01*
X136382136Y-103001185D01*
X136447648Y-103084456D01*
X136481758Y-103153724D01*
X136490115Y-103180416D01*
X136505597Y-103198740D01*
X136510817Y-103204919D01*
X136553486Y-103215300D01*
G36*
X138061177Y-113626471D02*
G01*
X131088628Y-113626471D01*
X131088628Y-111908235D01*
X138061177Y-111908235D01*
X138061177Y-113626471D01*
G37*
X138061177Y-113626471D02*
X131088628Y-113626471D01*
X131088628Y-111908235D01*
X138061177Y-111908235D01*
X138061177Y-113626471D01*
G04 #@! TD*
M02*
