M48
; DRILL file {KiCad (6.0.7)} date Fri Dec  9 22:26:01 2022
; FORMAT={-:-/ absolute / inch / decimal}
; #@! TF.CreationDate,2022-12-09T22:26:01+08:00
; #@! TF.GenerationSoftware,Kicad,Pcbnew,(6.0.7)
; #@! TF.FileFunction,Plated,1,4,PTH
FMAT,2
INCH
; #@! TA.AperFunction,Plated,PTH,ViaDrill
T1C0.0079
; #@! TA.AperFunction,Plated,PTH,ComponentDrill
T2C0.0236
; #@! TA.AperFunction,Plated,PTH,ComponentDrill
T3C0.0354
; #@! TA.AperFunction,Plated,PTH,ComponentDrill
T4C0.0362
; #@! TA.AperFunction,Plated,PTH,ComponentDrill
T5C0.0390
; #@! TA.AperFunction,Plated,PTH,ComponentDrill
T6C0.0394
; #@! TA.AperFunction,Plated,PTH,ComponentDrill
T7C0.0402
; #@! TA.AperFunction,Plated,PTH,ComponentDrill
T8C0.0591
; #@! TA.AperFunction,Plated,PTH,ComponentDrill
T9C0.0642
; #@! TA.AperFunction,Plated,PTH,ComponentDrill
T10C0.0866
%
G90
G05
T1
X2.8346Y-1.5354
X2.8346Y-1.6732
X2.8346Y-1.811
X2.8543Y-2.0669
X2.8543Y-2.1654
X2.8543Y-2.6575
X2.8543Y-3.4843
X2.8543Y-3.622
X2.8543Y-3.7402
X2.8543Y-3.878
X2.8543Y-4.3701
X2.8543Y-4.4882
X2.8543Y-4.5866
X2.8543Y-4.685
X2.874Y-1.2992
X2.8937Y-2.5984
X2.9134Y-2.3228
X2.9528Y-2.6575
X3.0118Y-2.3425
X3.0217Y-1.2992
X3.0512Y-2.6575
X3.0709Y-4.2323
X3.0709Y-4.311
X3.0906Y-2.815
X3.0906Y-2.9134
X3.0906Y-3.0118
X3.0906Y-3.1102
X3.0906Y-4.685
X3.1102Y-2.2244
X3.1102Y-2.2835
X3.1496Y-2.7559
X3.1496Y-3.5236
X3.1594Y-1.2992
X3.1594Y-3.0039
X3.1654Y-2.5305
X3.1693Y-2.0472
X3.1693Y-2.126
X3.1978Y-2.5305
X3.2087Y-2.6969
X3.2283Y-2.2835
X3.2283Y-2.3425
X3.2283Y-2.5
X3.2283Y-2.6575
X3.2283Y-2.9331
X3.2283Y-3.0512
X3.2283Y-3.1299
X3.2283Y-3.2283
X3.2283Y-4.1339
X3.248Y-1.4567
X3.2677Y-2.5
X3.2874Y-1.2992
X3.2874Y-3.3465
X3.2933Y-2.8858
X3.2992Y-2.2402
X3.3031Y-3.0669
X3.3071Y-2.5
X3.3071Y-4.685
X3.3189Y-1.8031
X3.3248Y-2.9213
X3.3258Y-2.9852
X3.3268Y-2.8622
X3.3268Y-3.1102
X3.3268Y-3.1693
X3.3268Y-3.2283
X3.3386Y-2.2402
X3.3465Y-2.185
X3.3465Y-2.5
X3.3504Y-2.9803
X3.3543Y-2.9154
X3.3661Y-3.4252
X3.3661Y-4.1339
X3.3701Y-2.7087
X3.374Y-2.6634
X3.3858Y-2.0276
X3.3898Y-2.8819
X3.4035Y-2.8327
X3.4252Y-2.2047
X3.4291Y-3.4843
X3.435Y-1.2992
X3.4409Y-3.1003
X3.4449Y-1.9685
X3.4449Y-2.0669
X3.4449Y-2.3425
X3.4567Y-2.9744
X3.4646Y-3.2283
X3.4646Y-3.1004
X3.4843Y-1.4567
X3.4862Y-3.1545
X3.4863Y-2.7382
X3.4921Y-2.9409
X3.4921Y-2.9744
X3.4921Y-3.0039
X3.5Y-2.6476
X3.5039Y-4.1339
X3.5039Y-4.685
X3.5217Y-2.9744
X3.5236Y-3.2283
X3.5443Y-2.7588
X3.5531Y-2.6654
X3.5534Y-2.7324
X3.5552Y-2.704
X3.5826Y-2.8146
X3.5827Y-3.2283
X3.5838Y-2.7882
X3.6024Y-4.3701
X3.6142Y-2.7461
X3.621Y-2.9338
X3.622Y-4.4291
X3.626Y-2.9723
X3.6358Y-2.7244
X3.6417Y-2.3425
X3.6417Y-2.5
X3.6417Y-4.1339
X3.6457Y-2.8031
X3.6457Y-2.8307
X3.6457Y-2.8583
X3.6535Y-2.7598
X3.6575Y-2.7067
X3.6594Y-2.8839
X3.6614Y-3.8976
X3.6811Y-1.4567
X3.6831Y-2.6909
X3.7008Y-2.5
X3.7106Y-3.0315
X3.7205Y-1.2992
X3.7343Y-2.6654
X3.7402Y-2.3425
X3.7402Y-4.685
X3.7598Y-2.3031
X3.7598Y-2.5
X3.7707Y-2.9222
X3.7795Y-3.2677
X3.7943Y-2.9222
X3.7972Y-3.0217
X3.7992Y-2.2047
X3.8278Y-2.3514
X3.8386Y-1.9685
X3.8386Y-2.0669
X3.8386Y-2.1654
X3.8386Y-2.7953
X3.8386Y-2.8543
X3.8386Y-3.5039
X3.8386Y-4.1339
X3.8681Y-2.7087
X3.8957Y-2.6516
X3.8976Y-3.0906
X3.8976Y-3.1496
X3.8976Y-3.2677
X3.8976Y-3.4055
X3.8976Y-3.8976
X3.9094Y-2.7087
X3.9173Y-2.3425
X3.9331Y-2.6457
X3.9764Y-2.6457
X3.9764Y-3.622
X3.9764Y-4.1339
X3.9764Y-4.685
X3.9961Y-3.2677
X4.0157Y-2.3425
X4.0157Y-2.6654
X4.0551Y-1.752
X4.0551Y-3.4055
X4.063Y-2.126
X4.0748Y-1.2795
X4.0748Y-3.5039
X4.0866Y-2.1496
X4.0945Y-2.0472
X4.1142Y-3.2677
X4.1339Y-4.2913
X4.1535Y-3.8976
X4.1732Y-1.5354
X4.1732Y-1.6732
X4.1732Y-2.6772
X4.1732Y-2.7953
X4.2323Y-2.3228
X4.2323Y-2.6496
X4.2323Y-2.9921
X4.2323Y-3.5039
X4.2323Y-3.622
X4.252Y-2.0472
X4.252Y-4.311
X4.252Y-4.685
X4.2756Y-2.6496
X4.2913Y-1.752
X4.2913Y-4.1339
X4.2953Y-2.9685
X4.311Y-2.9173
X4.315Y-2.6496
X4.3307Y-1.2795
X4.3307Y-4.4094
X4.3386Y-2.9449
X4.3504Y-2.1654
X4.3504Y-2.3228
X4.3504Y-3.8976
X4.3504Y-4.311
X4.3543Y-2.6496
X4.378Y-2.7165
X4.378Y-2.8189
X4.3898Y-2.6496
X4.3898Y-3.1496
X4.3976Y-3.0039
X4.4016Y-2.8583
X4.4094Y-4.1339
X4.4193Y-2.65
X4.4291Y-2.185
X4.4291Y-3.1024
X4.4409Y-2.7283
X4.4449Y-3.0512
X4.4547Y-2.6516
X4.4646Y-2.811
X4.4685Y-1.8701
X4.4685Y-1.9291
X4.4685Y-2.3228
X4.4685Y-4.685
X4.4724Y-2.9291
X4.4724Y-3.1457
X4.4827Y-2.652
X4.4882Y-3.0945
X4.4882Y-3.248
X4.5039Y-2.7283
X4.5252Y-2.6516
X4.5276Y-2.874
X4.5276Y-2.9921
X4.5276Y-3.2008
X4.5354Y-3.1417
X4.5463Y-2.1437
X4.5531Y-2.6516
X4.5669Y-4.1339
X4.5709Y-2.7244
X4.5787Y-2.9252
X4.5827Y-2.6516
X4.5827Y-3.2559
X4.5866Y-1.7717
X4.5866Y-2.0079
X4.5866Y-2.0669
X4.5866Y-2.1063
X4.5866Y-2.3031
X4.5866Y-3.0512
X4.5866Y-3.3465
X4.6024Y-2.8543
X4.6122Y-2.6516
X4.6132Y-2.1683
X4.6144Y-2.2104
X4.626Y-2.9724
X4.6339Y-3.7323
X4.6378Y-2.689
X4.6457Y-1.3189
X4.6457Y-1.4764
X4.6654Y-3.2717
X4.6654Y-4.1339
X4.6732Y-3.0197
X4.6772Y-2.3612
X4.6772Y-2.4646
X4.6772Y-2.9291
X4.685Y-4.685
X4.689Y-3.1457
X4.6929Y-3.7323
X4.6969Y-3.2677
X4.7047Y-3.8189
X4.7087Y-2.3632
X4.7087Y-2.4636
X4.7087Y-2.6427
X4.7087Y-2.6663
X4.7185Y-3.2874
X4.7244Y-3.3622
X4.7283Y-3.185
X4.7313Y-2.4134
X4.7362Y-3.0827
X4.7402Y-2.6437
X4.7441Y-3.4646
X4.7441Y-3.8583
X4.752Y-2.7933
X4.7559Y-2.9134
X4.7559Y-3.0039
X4.7638Y-3.8189
X4.7677Y-3.7559
X4.8031Y-1.7717
X4.8031Y-2.2441
X4.8031Y-4.0354
X4.8031Y-4.2717
X4.8037Y-3.3955
X4.8039Y-3.3315
X4.813Y-2.8543
X4.8189Y-2.7308
X4.8197Y-3.848
X4.8228Y-2.3819
X4.8268Y-2.9764
X4.8307Y-2.7008
X4.8327Y-2.8799
X4.8346Y-3.2244
X4.8346Y-3.9409
X4.841Y-2.7308
X4.8583Y-3.811
X4.8622Y-3.5827
X4.874Y-3.0276
X4.8781Y-3.4978
X4.8819Y-2.0276
X4.8819Y-2.3031
X4.8819Y-4.0748
X4.8819Y-4.2717
X4.8819Y-4.685
X4.8858Y-3.2244
X4.8898Y-2.6791
X4.8976Y-3.872
X4.8996Y-2.7677
X4.9016Y-1.7717
X4.9016Y-2.5394
X4.9024Y-3.3289
X4.928Y-3.7083
X4.9331Y-3.9094
X4.937Y-3.2283
X4.9606Y-3.3268
X4.9606Y-3.3858
X4.9606Y-3.4449
X4.9606Y-3.5039
X4.9614Y-3.7457
X4.9636Y-2.9183
X4.9685Y-3.1575
X4.9713Y-3.6335
X4.9724Y-3.0394
X4.9764Y-2.874
X4.9803Y-2.0276
X4.9843Y-2.8297
X4.9921Y-3.5866
X4.9988Y-3.7083
X4.9988Y-3.7791
X5.0Y-4.0551
X5.0197Y-3.878
X5.0197Y-3.9173
X5.0307Y-2.1409
X5.0307Y-2.1807
X5.0394Y-2.7559
X5.0433Y-3.0394
X5.0433Y-3.6122
X5.0492Y-2.6083
X5.0512Y-2.6654
X5.0591Y-4.3307
X5.0591Y-4.4488
X5.0591Y-4.5472
X5.0591Y-4.6457
X5.0669Y-3.7161
X5.0787Y-3.6122
X5.0787Y-3.9567
X5.0787Y-4.0945
X5.0906Y-3.2205
X5.0925Y-3.6594
X5.0984Y-2.5394
X5.1102Y-2.6083
X5.1142Y-2.9764
X5.1161Y-2.6654
X5.1181Y-1.3976
X5.1181Y-3.1575
X5.122Y-3.2677
X5.122Y-3.3189
X5.126Y-3.0394
X5.1339Y-3.4724
X5.1339Y-3.4961
X5.1339Y-3.6949
X5.1378Y-1.7717
X5.1378Y-2.0669
X5.1378Y-2.126
X5.1378Y-3.4252
X5.1496Y-3.2205
X5.1569Y-4.4047
X5.1587Y-2.2909
X5.1659Y-4.0098
X5.1772Y-2.4803
X5.1772Y-2.5591
X5.1811Y-2.6083
X5.1831Y-2.6673
X5.1969Y-3.5
X5.1969Y-4.1732
X5.1969Y-4.2717
X5.1969Y-4.3701
X5.1969Y-4.4488
X5.1988Y-4.0157
X5.2077Y-3.3996
X5.2163Y-4.5077
X5.2165Y-1.7717
X5.2165Y-2.0669
X5.2165Y-2.4409
X5.2276Y-2.2504
X5.2394Y-3.9559
X5.2409Y-3.8692
X5.2598Y-2.9764
X5.2598Y-3.0394
X5.2677Y-3.2244
X5.2902Y-2.0945
X5.2913Y-2.1319
X5.2925Y-2.4465
X5.2933Y-2.4094
X5.2953Y-3.3661
X5.2957Y-2.1831
X5.2961Y-2.2205
X5.3126Y-2.1118
X5.315Y-2.2028
X5.315Y-4.2205
X5.3157Y-4.313
X5.3157Y-4.3524
X5.3157Y-4.3996
X5.3173Y-2.4303
X5.3291Y-3.9563
X5.3307Y-2.9764
X5.3307Y-3.0394
X5.3307Y-3.2244
X5.3366Y-3.4823
X5.3701Y-3.3465
X5.3709Y-4.3996
X5.3711Y-2.1476
X5.3711Y-2.2756
X5.372Y-3.2303
X5.374Y-1.3976
X5.3839Y-2.0305
X5.3898Y-2.935
X5.3937Y-2.5984
X5.3957Y-2.4823
X5.4102Y-4.3996
X5.4183Y-2.4596
X5.4449Y-3.3071
X5.4528Y-3.6811
X5.4528Y-3.7992
X5.4528Y-3.8976
X5.4528Y-3.9961
X5.4528Y-4.0945
X5.4561Y-3.2667
X5.4567Y-3.0807
X5.4567Y-3.1437
X5.4581Y-3.1093
X5.4581Y-3.0239
X5.4585Y-3.0502
X5.4587Y-3.1713
X5.4591Y-2.9911
X5.4594Y-3.2094
X5.4724Y-1.7717
X5.4772Y-4.2421
X5.4929Y-4.313
X5.4956Y-4.3806
X5.5102Y-4.6632
X5.5118Y-2.2835
X5.5152Y-4.4437
X5.5173Y-4.4921
X5.5283Y-4.2382
X5.535Y-2.7386
X5.536Y-2.5474
X5.5709Y-2.0866
X5.5811Y-3.0106
X5.5811Y-3.1291
X5.5815Y-3.3059
X5.5821Y-4.364
X5.5827Y-3.0697
X5.5827Y-3.1878
X5.586Y-4.2276
X5.586Y-4.4323
X5.5906Y-1.3976
X5.5906Y-1.7717
X5.5906Y-3.878
X5.5924Y-3.3327
X5.5953Y-4.5228
X5.5965Y-4.2638
X5.5992Y-2.5118
X5.6096Y-4.6606
X5.6102Y-3.7795
X5.6299Y-2.4016
X5.6496Y-2.0276
X5.6791Y-2.6083
X5.6791Y-2.6476
X5.6969Y-2.7146
X5.7081Y-4.6606
X5.7283Y-2.9921
X5.7283Y-3.0906
X5.7283Y-3.1693
X5.7283Y-3.2677
X5.7474Y-2.3978
X5.748Y-2.5197
X5.748Y-2.7756
X5.748Y-3.878
X5.75Y-2.1732
X5.7618Y-2.3524
X5.7677Y-1.3976
X5.7736Y-2.1732
X5.7874Y-3.7795
X5.7894Y-2.4142
X5.8065Y-4.3654
X5.8065Y-4.4638
X5.8065Y-4.6606
X5.8071Y-2.5591
X5.8071Y-2.6378
X5.8071Y-2.6969
X5.8268Y-1.7717
X5.8268Y-2.9921
X5.8268Y-3.2677
X5.8287Y-2.4012
X5.8366Y-2.2864
X5.8386Y-2.248
X5.8465Y-2.0079
X5.8465Y-2.0669
X5.8465Y-2.126
X5.8661Y-2.7362
T4
X4.6811Y-1.6335
X4.6811Y-1.7122
X4.6811Y-1.7909
X4.6811Y-1.8697
X5.0217Y-1.6335
X5.0217Y-1.7122
X5.0217Y-1.7909
X5.0217Y-1.8697
X5.3622Y-1.6335
X5.3622Y-1.7122
X5.3622Y-1.7909
X5.3622Y-1.8697
X5.7008Y-1.6335
X5.7008Y-1.7122
X5.7008Y-1.7909
X5.7008Y-1.8697
T5
X3.9404Y-1.8604
X3.9904Y-1.9604
X4.0404Y-1.8604
X4.0904Y-1.9604
X4.1404Y-1.8604
X4.1904Y-1.9604
X4.2404Y-1.8604
X4.2904Y-1.9604
X4.3404Y-1.8604
X4.3904Y-1.9604
T6
X2.987Y-4.4979
X2.987Y-4.5979
X3.0071Y-1.6204
X3.0071Y-1.7204
X3.087Y-4.4979
X3.087Y-4.5979
X3.1071Y-1.6204
X3.1071Y-1.7204
X3.187Y-4.4979
X3.187Y-4.5979
X3.2071Y-1.6204
X3.2071Y-1.7204
X3.287Y-4.4979
X3.287Y-4.5979
X3.3071Y-1.6204
X3.3071Y-1.7204
X3.387Y-4.4979
X3.387Y-4.5979
X3.4071Y-1.6204
X3.4071Y-1.7204
X3.487Y-4.4979
X3.487Y-4.5979
X3.5071Y-1.6204
X3.5071Y-1.7204
X3.587Y-4.4979
X3.587Y-4.5979
X3.6071Y-1.6204
X3.6071Y-1.7204
X3.687Y-4.4979
X3.687Y-4.5979
X3.787Y-4.4979
X3.787Y-4.5979
X3.887Y-4.4979
X3.887Y-4.5979
X3.987Y-4.4979
X3.987Y-4.5979
X4.087Y-4.4979
X4.087Y-4.5979
X4.187Y-4.4979
X4.187Y-4.5979
X4.287Y-4.4979
X4.287Y-4.5979
X4.387Y-4.4979
X4.387Y-4.5979
X4.487Y-4.4979
X4.487Y-4.5979
X4.587Y-4.4979
X4.587Y-4.5979
X4.687Y-4.4979
X4.687Y-4.5979
X4.787Y-4.4979
X4.787Y-4.5979
X4.887Y-4.4979
X4.887Y-4.5979
X5.3429Y-2.5447
X5.3429Y-2.6447
X5.3429Y-2.7447
X5.4429Y-2.5447
X5.4429Y-2.6447
X5.4429Y-2.7447
T7
X3.9045Y-1.4175
X4.0045Y-1.4175
X4.3262Y-1.4175
X4.4262Y-1.4175
T8
X4.574Y-1.6047
X4.574Y-1.8803
X4.7882Y-1.6047
X4.7882Y-1.8803
X4.9146Y-1.6047
X4.9146Y-1.8803
X5.1287Y-1.6047
X5.1287Y-1.8803
X5.2551Y-1.6047
X5.2551Y-1.8803
X5.4693Y-1.6047
X5.4693Y-1.8803
X5.5937Y-1.6047
X5.5937Y-1.8803
X5.8079Y-1.6047
X5.8079Y-1.8803
T9
X3.8484Y-1.7305
X4.4823Y-1.7305
T10
X2.874Y-2.4508
X2.874Y-4.1831
X5.0Y-2.4508
X5.0Y-4.1831
T2
G00X2.8203Y-1.9165
M15
G01X2.8518Y-1.9165
M16
G05
G00X2.8203Y-2.2567
M15
G01X2.8518Y-2.2567
M16
G05
G00X2.9785Y-1.9165
M15
G01X3.0219Y-1.9165
M16
G05
G00X2.9785Y-2.2567
M15
G01X3.0219Y-2.2567
M16
G05
G00X5.6774Y-4.2346
M15
G01X5.6341Y-4.2346
M16
G05
G00X5.6774Y-4.5748
M15
G01X5.6341Y-4.5748
M16
G05
G00X5.6799Y-2.4677
M15
G01X5.6366Y-2.4677
M16
G05
G00X5.6799Y-2.8079
M15
G01X5.6366Y-2.8079
M16
G05
G00X5.8356Y-4.2346
M15
G01X5.8041Y-4.2346
M16
G05
G00X5.8356Y-4.5748
M15
G01X5.8041Y-4.5748
M16
G05
G00X5.8382Y-2.4677
M15
G01X5.8067Y-2.4677
M16
G05
G00X5.8382Y-2.8079
M15
G01X5.8067Y-2.8079
M16
G05
T3
G00X5.5167Y-2.8829
M15
G01X5.5876Y-2.8829
M16
G05
G00X5.5167Y-3.4537
M15
G01X5.5876Y-3.4537
M16
G05
G00X5.7711Y-2.8829
M15
G01X5.8026Y-2.8829
M16
G05
G00X5.7711Y-3.4537
M15
G01X5.8026Y-3.4537
M16
G05
T0
M30
